<svg version="1.1" xmlns="http://www.w3.org/2000/svg" xmlns:xlink="http://www.w3.org/1999/xlink" width="400" height="300" style="width: 400px; height: 300px;"><defs><clipPath id="hzabyPsGBudL"><path fill="none" stroke="none" d=" M 81 29 L 370 29 L 370 276 L 81 276 L 81 29 Z"/></clipPath><clipPath id="QOaAULpciaHC"><path fill="none" stroke="none" d=" M 81 29 L 370 29 L 370 276 L 81 276 L 81 29 Z"/></clipPath><clipPath id="txfyOsPJIflF"><path fill="none" stroke="none" d=" M 81 29 L 370 29 L 370 276 L 81 276 L 81 29 Z"/></clipPath><clipPath id="LFPzwbSbnFvG"><path fill="none" stroke="none" d=" M 81 29 L 370 29 L 370 276 L 81 276 L 81 29 Z"/></clipPath><clipPath id="LPfJOKhtStyJ"><path fill="none" stroke="none" d=" M 81 29 L 370 29 L 370 276 L 81 276 L 81 29 Z"/></clipPath><clipPath id="zmXmQItOUwFr"><path fill="none" stroke="none" d=" M 81 29 L 370 29 L 370 276 L 81 276 L 81 29 Z"/></clipPath><clipPath id="tyuSeOMyruaM"><path fill="none" stroke="none" d=" M 81 29 L 370 29 L 370 276 L 81 276 L 81 29 Z"/></clipPath><clipPath id="VezNOtTFmERw"><path fill="none" stroke="none" d=" M 81 29 L 370 29 L 370 276 L 81 276 L 81 29 Z"/></clipPath><clipPath id="OBxTAbocIqCy"><path fill="none" stroke="none" d=" M 81 29 L 370 29 L 370 276 L 81 276 L 81 29 Z"/></clipPath></defs><g><g transform="scale(1,1) translate(0.5,0.5)"><rect fill="#FFFFFF" stroke="none" x="0" y="0" width="400" height="300"/><rect fill="white" stroke="none" x="0" y="0" width="400" height="300"/><rect fill="#FFFFFF" stroke="none" x="81" y="29" width="289" height="247"/><rect fill="snow" stroke="none" x="81" y="29" width="289" height="247"/><g><rect fill="none" stroke="white" x="81" y="29" width="289" height="247" stroke-linejoin="bevel" stroke-miterlimit="10"/></g><g clip-path="url(#hzabyPsGBudL)"><g><g/></g></g><g clip-path="url(#QOaAULpciaHC)"><g><g><path fill="none" stroke="#e5e5e5" paint-order="fill stroke markers" d=" M 81 245 L 370 245" stroke-linejoin="bevel" stroke-miterlimit="10" stroke-opacity="0.2" stroke-dasharray="6,4"/><path fill="none" stroke="#e5e5e5" paint-order="fill stroke markers" d=" M 81 214 L 370 214" stroke-linejoin="bevel" stroke-miterlimit="10" stroke-opacity="0.2" stroke-dasharray="6,4"/><path fill="none" stroke="#e5e5e5" paint-order="fill stroke markers" d=" M 81 183 L 370 183" stroke-linejoin="bevel" stroke-miterlimit="10" stroke-opacity="0.2" stroke-dasharray="6,4"/><path fill="none" stroke="#e5e5e5" paint-order="fill stroke markers" d=" M 81 153 L 370 153" stroke-linejoin="bevel" stroke-miterlimit="10" stroke-opacity="0.2" stroke-dasharray="6,4"/><path fill="none" stroke="#e5e5e5" paint-order="fill stroke markers" d=" M 81 122 L 370 122" stroke-linejoin="bevel" stroke-miterlimit="10" stroke-opacity="0.2" stroke-dasharray="6,4"/><path fill="none" stroke="#e5e5e5" paint-order="fill stroke markers" d=" M 81 91 L 370 91" stroke-linejoin="bevel" stroke-miterlimit="10" stroke-opacity="0.2" stroke-dasharray="6,4"/><path fill="none" stroke="#e5e5e5" paint-order="fill stroke markers" d=" M 81 60 L 370 60" stroke-linejoin="bevel" stroke-miterlimit="10" stroke-opacity="0.2" stroke-dasharray="6,4"/></g></g></g><g clip-path="url(#txfyOsPJIflF)"><g><g><path fill="none" stroke="none"/><path fill="none" stroke="#7C0000" paint-order="fill stroke markers" d=" M 88.60526315789474 246.39763670982666 L 88.60526315789474 208.4146088966208" stroke-linejoin="bevel" stroke-miterlimit="10" stroke-width="2"/><path fill="none" stroke="#7C0000" paint-order="fill stroke markers" d=" M 103.81578947368422 256.0587932299767 L 103.81578947368422 229.66787815021075" stroke-linejoin="bevel" stroke-miterlimit="10" stroke-width="2"/><path fill="none" stroke="#7C0000" paint-order="fill stroke markers" d=" M 119.02631578947368 255.96368157532046 L 119.02631578947368 230.69927647687103" stroke-linejoin="bevel" stroke-miterlimit="10" stroke-width="2"/><path fill="none" stroke="#7C0000" paint-order="fill stroke markers" d=" M 134.23684210526315 243.74328504496725 L 134.23684210526315 205.6385381255983" stroke-linejoin="bevel" stroke-miterlimit="10" stroke-width="2"/><path fill="none" stroke="#7C0000" paint-order="fill stroke markers" d=" M 149.44736842105263 255.32802223304145 L 149.44736842105263 229.95309807713576" stroke-linejoin="bevel" stroke-miterlimit="10" stroke-width="2"/><path fill="none" stroke="#7C0000" paint-order="fill stroke markers" d=" M 164.6578947368421 213.0188091484621 L 164.6578947368421 144.30755370162504" stroke-linejoin="bevel" stroke-miterlimit="10" stroke-width="2"/><path fill="none" stroke="#7C0000" paint-order="fill stroke markers" d=" M 179.8684210526316 188.12951393119715 L 179.8684210526316 116.9766420597793" stroke-linejoin="bevel" stroke-miterlimit="10" stroke-width="2"/><path fill="none" stroke="#7C0000" paint-order="fill stroke markers" d=" M 195.07894736842104 253.54421785593772 L 195.07894736842104 229.7479459864117" stroke-linejoin="bevel" stroke-miterlimit="10" stroke-width="2"/><path fill="none" stroke="#7C0000" paint-order="fill stroke markers" d=" M 210.28947368421052 210.6391021366481 L 210.28947368421052 125.65493352523933" stroke-linejoin="bevel" stroke-miterlimit="10" stroke-width="2"/><path fill="none" stroke="#7C0000" paint-order="fill stroke markers" d=" M 225.5 254.25975248734915 L 225.5 225.9951752711273" stroke-linejoin="bevel" stroke-miterlimit="10" stroke-width="2"/><path fill="none" stroke="#7C0000" paint-order="fill stroke markers" d=" M 240.71052631578948 251.50396906538097 L 240.71052631578948 229.57684090559295" stroke-linejoin="bevel" stroke-miterlimit="10" stroke-width="2"/><path fill="none" stroke="#7C0000" paint-order="fill stroke markers" d=" M 255.92105263157896 236.02107884713905 L 255.92105263157896 199.30074019016217" stroke-linejoin="bevel" stroke-miterlimit="10" stroke-width="2"/><path fill="none" stroke="#7C0000" paint-order="fill stroke markers" d=" M 271.13157894736844 239.62663901442136 L 271.13157894736844 194.9987336860206" stroke-linejoin="bevel" stroke-miterlimit="10" stroke-width="2"/><path fill="none" stroke="#7C0000" paint-order="fill stroke markers" d=" M 286.3421052631579 253.62273318782724 L 286.3421052631579 225.28775273548155" stroke-linejoin="bevel" stroke-miterlimit="10" stroke-width="2"/><path fill="none" stroke="#7C0000" paint-order="fill stroke markers" d=" M 301.5526315789474 260.49041905647164 L 301.5526315789474 239.8140024242783" stroke-linejoin="bevel" stroke-miterlimit="10" stroke-width="2"/><path fill="none" stroke="#7C0000" paint-order="fill stroke markers" d=" M 316.7631578947369 231.52662870440724 L 316.7631578947369 177.9817911532365" stroke-linejoin="bevel" stroke-miterlimit="10" stroke-width="2"/><path fill="none" stroke="#7C0000" paint-order="fill stroke markers" d=" M 331.97368421052636 256.75384892517513 L 331.97368421052636 238.68057923147663" stroke-linejoin="bevel" stroke-miterlimit="10" stroke-width="2"/><path fill="none" stroke="#7C0000" paint-order="fill stroke markers" d=" M 347.1842105263158 260.7625985330708 L 347.1842105263158 242.38344172857396" stroke-linejoin="bevel" stroke-miterlimit="10" stroke-width="2"/><path fill="none" stroke="#7C0000" paint-order="fill stroke markers" d=" M 362.39473684210526 260.33761674342986 L 362.39473684210526 247.18158972585806" stroke-linejoin="bevel" stroke-miterlimit="10" stroke-width="2"/></g></g></g><g clip-path="url(#LFPzwbSbnFvG)"><g><g><path fill="none" stroke="none"/><path fill="none" stroke="#7C0000" paint-order="fill stroke markers" d=" M 88.60526315789474 272.9646185254747 L 88.60526315789474 275.99745588633635" stroke-linejoin="bevel" stroke-miterlimit="10" stroke-width="2"/><path fill="none" stroke="#7C0000" paint-order="fill stroke markers" d=" M 103.81578947368422 274.92477704104334 L 103.81578947368422 275.99999633262007" stroke-linejoin="bevel" stroke-miterlimit="10" stroke-width="2"/><path fill="none" stroke="#7C0000" paint-order="fill stroke markers" d=" M 119.02631578947368 274.6300063075133 L 119.02631578947368 275.9999854652175" stroke-linejoin="bevel" stroke-miterlimit="10" stroke-width="2"/><path fill="none" stroke="#7C0000" paint-order="fill stroke markers" d=" M 134.23684210526315 273.2343715147792 L 134.23684210526315 275.9990270726045" stroke-linejoin="bevel" stroke-miterlimit="10" stroke-width="2"/><path fill="none" stroke="#7C0000" paint-order="fill stroke markers" d=" M 149.44736842105263 274.66618702306664 L 149.44736842105263 275.99992679088524" stroke-linejoin="bevel" stroke-miterlimit="10" stroke-width="2"/><path fill="none" stroke="#7C0000" paint-order="fill stroke markers" d=" M 164.6578947368421 264.3979389693578 L 164.6578947368421 275.54722040953703" stroke-linejoin="bevel" stroke-miterlimit="10" stroke-width="2"/><path fill="none" stroke="#7C0000" paint-order="fill stroke markers" d=" M 179.8684210526316 261.30024226097083 L 179.8684210526316 275.9247339442376" stroke-linejoin="bevel" stroke-miterlimit="10" stroke-width="2"/><path fill="none" stroke="#7C0000" paint-order="fill stroke markers" d=" M 195.07894736842104 274.6343600449946 L 195.07894736842104 275.9732361401448" stroke-linejoin="bevel" stroke-miterlimit="10" stroke-width="2"/><path fill="none" stroke="#7C0000" paint-order="fill stroke markers" d=" M 210.28947368421052 273.1230112664737 L 210.28947368421052 275.9843081393215" stroke-linejoin="bevel" stroke-miterlimit="10" stroke-width="2"/><path fill="none" stroke="#7C0000" paint-order="fill stroke markers" d=" M 225.5 274.10328657362794 L 225.5 275.98883201161726" stroke-linejoin="bevel" stroke-miterlimit="10" stroke-width="2"/><path fill="none" stroke="#7C0000" paint-order="fill stroke markers" d=" M 240.71052631578948 274.8378278502091 L 240.71052631578948 275.9961838395534" stroke-linejoin="bevel" stroke-miterlimit="10" stroke-width="2"/><path fill="none" stroke="#7C0000" paint-order="fill stroke markers" d=" M 255.92105263157896 271.73052456511465 L 255.92105263157896 275.9931678983097" stroke-linejoin="bevel" stroke-miterlimit="10" stroke-width="2"/><path fill="none" stroke="#7C0000" paint-order="fill stroke markers" d=" M 271.13157894736844 271.1560596755729 L 271.13157894736844 275.9531799670031" stroke-linejoin="bevel" stroke-miterlimit="10" stroke-width="2"/><path fill="none" stroke="#7C0000" paint-order="fill stroke markers" d=" M 286.3421052631579 275.2797944957834 L 286.3421052631579 275.999360684852" stroke-linejoin="bevel" stroke-miterlimit="10" stroke-width="2"/><path fill="none" stroke="#7C0000" paint-order="fill stroke markers" d=" M 301.5526315789474 274.72723324375755 L 301.5526315789474 275.9984140324828" stroke-linejoin="bevel" stroke-miterlimit="10" stroke-width="2"/><path fill="none" stroke="#7C0000" paint-order="fill stroke markers" d=" M 316.7631578947369 269.2945640379286 L 316.7631578947369 275.99996245141887" stroke-linejoin="bevel" stroke-miterlimit="10" stroke-width="2"/><path fill="none" stroke="#7C0000" paint-order="fill stroke markers" d=" M 331.97368421052636 275.1268392624083 L 331.97368421052636 275.99990329498075" stroke-linejoin="bevel" stroke-miterlimit="10" stroke-width="2"/><path fill="none" stroke="#7C0000" paint-order="fill stroke markers" d=" M 347.1842105263158 274.9082983618128 L 347.1842105263158 275.9980893888941" stroke-linejoin="bevel" stroke-miterlimit="10" stroke-width="2"/><path fill="none" stroke="#7C0000" paint-order="fill stroke markers" d=" M 362.39473684210526 274.49543982082105 L 362.39473684210526 275.9879571755338" stroke-linejoin="bevel" stroke-miterlimit="10" stroke-width="2"/></g></g></g><g clip-path="url(#LPfJOKhtStyJ)"><g><g><path fill="none" stroke="none"/><path fill="#1f77b4" stroke="none" paint-order="stroke fill markers" d=" M 87.84473684210526 208.4146088966208 L 89.36578947368422 208.4146088966208 L 89.36578947368422 208.4146088966208 L 87.84473684210526 208.4146088966208 L 87.84473684210526 208.4146088966208 Z"/><path fill="none" stroke="#7C0000" paint-order="fill stroke markers" d=" M 87.84473684210526 208.4146088966208 L 89.36578947368422 208.4146088966208 L 89.36578947368422 208.4146088966208 L 87.84473684210526 208.4146088966208 L 87.84473684210526 208.4146088966208 Z" stroke-linejoin="bevel" stroke-miterlimit="10" stroke-width="2"/><path fill="#1f77b4" stroke="none" paint-order="stroke fill markers" d=" M 103.05526315789474 229.66787815021075 L 104.5763157894737 229.66787815021075 L 104.5763157894737 229.66787815021075 L 103.05526315789474 229.66787815021075 L 103.05526315789474 229.66787815021075 Z"/><path fill="none" stroke="#7C0000" paint-order="fill stroke markers" d=" M 103.05526315789474 229.66787815021075 L 104.5763157894737 229.66787815021075 L 104.5763157894737 229.66787815021075 L 103.05526315789474 229.66787815021075 L 103.05526315789474 229.66787815021075 Z" stroke-linejoin="bevel" stroke-miterlimit="10" stroke-width="2"/><path fill="#1f77b4" stroke="none" paint-order="stroke fill markers" d=" M 118.26578947368421 230.69927647687103 L 119.78684210526316 230.69927647687103 L 119.78684210526316 230.69927647687103 L 118.26578947368421 230.69927647687103 L 118.26578947368421 230.69927647687103 Z"/><path fill="none" stroke="#7C0000" paint-order="fill stroke markers" d=" M 118.26578947368421 230.69927647687103 L 119.78684210526316 230.69927647687103 L 119.78684210526316 230.69927647687103 L 118.26578947368421 230.69927647687103 L 118.26578947368421 230.69927647687103 Z" stroke-linejoin="bevel" stroke-miterlimit="10" stroke-width="2"/><path fill="#1f77b4" stroke="none" paint-order="stroke fill markers" d=" M 133.4763157894737 205.6385381255983 L 134.9973684210526 205.6385381255983 L 134.9973684210526 205.6385381255983 L 133.4763157894737 205.6385381255983 L 133.4763157894737 205.6385381255983 Z"/><path fill="none" stroke="#7C0000" paint-order="fill stroke markers" d=" M 133.4763157894737 205.6385381255983 L 134.9973684210526 205.6385381255983 L 134.9973684210526 205.6385381255983 L 133.4763157894737 205.6385381255983 L 133.4763157894737 205.6385381255983 Z" stroke-linejoin="bevel" stroke-miterlimit="10" stroke-width="2"/><path fill="#1f77b4" stroke="none" paint-order="stroke fill markers" d=" M 148.68684210526317 229.95309807713576 L 150.2078947368421 229.95309807713576 L 150.2078947368421 229.95309807713576 L 148.68684210526317 229.95309807713576 L 148.68684210526317 229.95309807713576 Z"/><path fill="none" stroke="#7C0000" paint-order="fill stroke markers" d=" M 148.68684210526317 229.95309807713576 L 150.2078947368421 229.95309807713576 L 150.2078947368421 229.95309807713576 L 148.68684210526317 229.95309807713576 L 148.68684210526317 229.95309807713576 Z" stroke-linejoin="bevel" stroke-miterlimit="10" stroke-width="2"/><path fill="#1f77b4" stroke="none" paint-order="stroke fill markers" d=" M 163.89736842105265 144.30755370162504 L 165.41842105263157 144.30755370162504 L 165.41842105263157 144.30755370162504 L 163.89736842105265 144.30755370162504 L 163.89736842105265 144.30755370162504 Z"/><path fill="none" stroke="#7C0000" paint-order="fill stroke markers" d=" M 163.89736842105265 144.30755370162504 L 165.41842105263157 144.30755370162504 L 165.41842105263157 144.30755370162504 L 163.89736842105265 144.30755370162504 L 163.89736842105265 144.30755370162504 Z" stroke-linejoin="bevel" stroke-miterlimit="10" stroke-width="2"/><path fill="#1f77b4" stroke="none" paint-order="stroke fill markers" d=" M 179.10789473684213 116.9766420597793 L 180.62894736842105 116.9766420597793 L 180.62894736842105 116.9766420597793 L 179.10789473684213 116.9766420597793 L 179.10789473684213 116.9766420597793 Z"/><path fill="none" stroke="#7C0000" paint-order="fill stroke markers" d=" M 179.10789473684213 116.9766420597793 L 180.62894736842105 116.9766420597793 L 180.62894736842105 116.9766420597793 L 179.10789473684213 116.9766420597793 L 179.10789473684213 116.9766420597793 Z" stroke-linejoin="bevel" stroke-miterlimit="10" stroke-width="2"/><path fill="#1f77b4" stroke="none" paint-order="stroke fill markers" d=" M 194.31842105263158 229.7479459864117 L 195.8394736842105 229.7479459864117 L 195.8394736842105 229.7479459864117 L 194.31842105263158 229.7479459864117 L 194.31842105263158 229.7479459864117 Z"/><path fill="none" stroke="#7C0000" paint-order="fill stroke markers" d=" M 194.31842105263158 229.7479459864117 L 195.8394736842105 229.7479459864117 L 195.8394736842105 229.7479459864117 L 194.31842105263158 229.7479459864117 L 194.31842105263158 229.7479459864117 Z" stroke-linejoin="bevel" stroke-miterlimit="10" stroke-width="2"/><path fill="#1f77b4" stroke="none" paint-order="stroke fill markers" d=" M 209.52894736842103 125.65493352523933 L 211.05 125.65493352523933 L 211.05 125.65493352523933 L 209.52894736842103 125.65493352523933 L 209.52894736842103 125.65493352523933 Z"/><path fill="none" stroke="#7C0000" paint-order="fill stroke markers" d=" M 209.52894736842103 125.65493352523933 L 211.05 125.65493352523933 L 211.05 125.65493352523933 L 209.52894736842103 125.65493352523933 L 209.52894736842103 125.65493352523933 Z" stroke-linejoin="bevel" stroke-miterlimit="10" stroke-width="2"/><path fill="#1f77b4" stroke="none" paint-order="stroke fill markers" d=" M 224.7394736842105 225.9951752711273 L 226.2605263157895 225.9951752711273 L 226.2605263157895 225.9951752711273 L 224.7394736842105 225.9951752711273 L 224.7394736842105 225.9951752711273 Z"/><path fill="none" stroke="#7C0000" paint-order="fill stroke markers" d=" M 224.7394736842105 225.9951752711273 L 226.2605263157895 225.9951752711273 L 226.2605263157895 225.9951752711273 L 224.7394736842105 225.9951752711273 L 224.7394736842105 225.9951752711273 Z" stroke-linejoin="bevel" stroke-miterlimit="10" stroke-width="2"/><path fill="#1f77b4" stroke="none" paint-order="stroke fill markers" d=" M 239.95 229.57684090559295 L 241.47105263157897 229.57684090559295 L 241.47105263157897 229.57684090559295 L 239.95 229.57684090559295 L 239.95 229.57684090559295 Z"/><path fill="none" stroke="#7C0000" paint-order="fill stroke markers" d=" M 239.95 229.57684090559295 L 241.47105263157897 229.57684090559295 L 241.47105263157897 229.57684090559295 L 239.95 229.57684090559295 L 239.95 229.57684090559295 Z" stroke-linejoin="bevel" stroke-miterlimit="10" stroke-width="2"/><path fill="#1f77b4" stroke="none" paint-order="stroke fill markers" d=" M 255.16052631578947 199.30074019016217 L 256.68157894736845 199.30074019016217 L 256.68157894736845 199.30074019016217 L 255.16052631578947 199.30074019016217 L 255.16052631578947 199.30074019016217 Z"/><path fill="none" stroke="#7C0000" paint-order="fill stroke markers" d=" M 255.16052631578947 199.30074019016217 L 256.68157894736845 199.30074019016217 L 256.68157894736845 199.30074019016217 L 255.16052631578947 199.30074019016217 L 255.16052631578947 199.30074019016217 Z" stroke-linejoin="bevel" stroke-miterlimit="10" stroke-width="2"/><path fill="#1f77b4" stroke="none" paint-order="stroke fill markers" d=" M 270.371052631579 194.9987336860206 L 271.8921052631579 194.9987336860206 L 271.8921052631579 194.9987336860206 L 270.371052631579 194.9987336860206 L 270.371052631579 194.9987336860206 Z"/><path fill="none" stroke="#7C0000" paint-order="fill stroke markers" d=" M 270.371052631579 194.9987336860206 L 271.8921052631579 194.9987336860206 L 271.8921052631579 194.9987336860206 L 270.371052631579 194.9987336860206 L 270.371052631579 194.9987336860206 Z" stroke-linejoin="bevel" stroke-miterlimit="10" stroke-width="2"/><path fill="#1f77b4" stroke="none" paint-order="stroke fill markers" d=" M 285.5815789473685 225.28775273548155 L 287.10263157894735 225.28775273548155 L 287.10263157894735 225.28775273548155 L 285.5815789473685 225.28775273548155 L 285.5815789473685 225.28775273548155 Z"/><path fill="none" stroke="#7C0000" paint-order="fill stroke markers" d=" M 285.5815789473685 225.28775273548155 L 287.10263157894735 225.28775273548155 L 287.10263157894735 225.28775273548155 L 285.5815789473685 225.28775273548155 L 285.5815789473685 225.28775273548155 Z" stroke-linejoin="bevel" stroke-miterlimit="10" stroke-width="2"/><path fill="#1f77b4" stroke="none" paint-order="stroke fill markers" d=" M 300.79210526315796 239.8140024242783 L 302.31315789473683 239.8140024242783 L 302.31315789473683 239.8140024242783 L 300.79210526315796 239.8140024242783 L 300.79210526315796 239.8140024242783 Z"/><path fill="none" stroke="#7C0000" paint-order="fill stroke markers" d=" M 300.79210526315796 239.8140024242783 L 302.31315789473683 239.8140024242783 L 302.31315789473683 239.8140024242783 L 300.79210526315796 239.8140024242783 L 300.79210526315796 239.8140024242783 Z" stroke-linejoin="bevel" stroke-miterlimit="10" stroke-width="2"/><path fill="#1f77b4" stroke="none" paint-order="stroke fill markers" d=" M 316.0026315789474 177.9817911532365 L 317.52368421052637 177.9817911532365 L 317.52368421052637 177.9817911532365 L 316.0026315789474 177.9817911532365 L 316.0026315789474 177.9817911532365 Z"/><path fill="none" stroke="#7C0000" paint-order="fill stroke markers" d=" M 316.0026315789474 177.9817911532365 L 317.52368421052637 177.9817911532365 L 317.52368421052637 177.9817911532365 L 316.0026315789474 177.9817911532365 L 316.0026315789474 177.9817911532365 Z" stroke-linejoin="bevel" stroke-miterlimit="10" stroke-width="2"/><path fill="#1f77b4" stroke="none" paint-order="stroke fill markers" d=" M 331.21315789473687 238.68057923147663 L 332.73421052631585 238.68057923147663 L 332.73421052631585 238.68057923147663 L 331.21315789473687 238.68057923147663 L 331.21315789473687 238.68057923147663 Z"/><path fill="none" stroke="#7C0000" paint-order="fill stroke markers" d=" M 331.21315789473687 238.68057923147663 L 332.73421052631585 238.68057923147663 L 332.73421052631585 238.68057923147663 L 331.21315789473687 238.68057923147663 L 331.21315789473687 238.68057923147663 Z" stroke-linejoin="bevel" stroke-miterlimit="10" stroke-width="2"/><path fill="#1f77b4" stroke="none" paint-order="stroke fill markers" d=" M 346.4236842105263 242.38344172857396 L 347.94473684210527 242.38344172857396 L 347.94473684210527 242.38344172857396 L 346.4236842105263 242.38344172857396 L 346.4236842105263 242.38344172857396 Z"/><path fill="none" stroke="#7C0000" paint-order="fill stroke markers" d=" M 346.4236842105263 242.38344172857396 L 347.94473684210527 242.38344172857396 L 347.94473684210527 242.38344172857396 L 346.4236842105263 242.38344172857396 L 346.4236842105263 242.38344172857396 Z" stroke-linejoin="bevel" stroke-miterlimit="10" stroke-width="2"/><path fill="#1f77b4" stroke="none" paint-order="stroke fill markers" d=" M 361.63421052631577 247.18158972585806 L 363.15526315789475 247.18158972585806 L 363.15526315789475 247.18158972585806 L 361.63421052631577 247.18158972585806 L 361.63421052631577 247.18158972585806 Z"/><path fill="none" stroke="#7C0000" paint-order="fill stroke markers" d=" M 361.63421052631577 247.18158972585806 L 363.15526315789475 247.18158972585806 L 363.15526315789475 247.18158972585806 L 361.63421052631577 247.18158972585806 L 361.63421052631577 247.18158972585806 Z" stroke-linejoin="bevel" stroke-miterlimit="10" stroke-width="2"/></g></g></g><g clip-path="url(#zmXmQItOUwFr)"><g><g><path fill="none" stroke="none"/><path fill="#1f77b4" stroke="none" paint-order="stroke fill markers" d=" M 87.84473684210526 275.99745588633635 L 89.36578947368422 275.99745588633635 L 89.36578947368422 275.99745588633635 L 87.84473684210526 275.99745588633635 L 87.84473684210526 275.99745588633635 Z"/><path fill="none" stroke="#7C0000" paint-order="fill stroke markers" d=" M 87.84473684210526 275.99745588633635 L 89.36578947368422 275.99745588633635 L 89.36578947368422 275.99745588633635 L 87.84473684210526 275.99745588633635 L 87.84473684210526 275.99745588633635 Z" stroke-linejoin="bevel" stroke-miterlimit="10" stroke-width="2"/><path fill="#1f77b4" stroke="none" paint-order="stroke fill markers" d=" M 103.05526315789474 275.99999633262007 L 104.5763157894737 275.99999633262007 L 104.5763157894737 275.99999633262007 L 103.05526315789474 275.99999633262007 L 103.05526315789474 275.99999633262007 Z"/><path fill="none" stroke="#7C0000" paint-order="fill stroke markers" d=" M 103.05526315789474 275.99999633262007 L 104.5763157894737 275.99999633262007 L 104.5763157894737 275.99999633262007 L 103.05526315789474 275.99999633262007 L 103.05526315789474 275.99999633262007 Z" stroke-linejoin="bevel" stroke-miterlimit="10" stroke-width="2"/><path fill="#1f77b4" stroke="none" paint-order="stroke fill markers" d=" M 118.26578947368421 275.9999854652175 L 119.78684210526316 275.9999854652175 L 119.78684210526316 275.9999854652175 L 118.26578947368421 275.9999854652175 L 118.26578947368421 275.9999854652175 Z"/><path fill="none" stroke="#7C0000" paint-order="fill stroke markers" d=" M 118.26578947368421 275.9999854652175 L 119.78684210526316 275.9999854652175 L 119.78684210526316 275.9999854652175 L 118.26578947368421 275.9999854652175 L 118.26578947368421 275.9999854652175 Z" stroke-linejoin="bevel" stroke-miterlimit="10" stroke-width="2"/><path fill="#1f77b4" stroke="none" paint-order="stroke fill markers" d=" M 133.4763157894737 275.9990270726045 L 134.9973684210526 275.9990270726045 L 134.9973684210526 275.9990270726045 L 133.4763157894737 275.9990270726045 L 133.4763157894737 275.9990270726045 Z"/><path fill="none" stroke="#7C0000" paint-order="fill stroke markers" d=" M 133.4763157894737 275.9990270726045 L 134.9973684210526 275.9990270726045 L 134.9973684210526 275.9990270726045 L 133.4763157894737 275.9990270726045 L 133.4763157894737 275.9990270726045 Z" stroke-linejoin="bevel" stroke-miterlimit="10" stroke-width="2"/><path fill="#1f77b4" stroke="none" paint-order="stroke fill markers" d=" M 148.68684210526317 275.99992679088524 L 150.2078947368421 275.99992679088524 L 150.2078947368421 275.99992679088524 L 148.68684210526317 275.99992679088524 L 148.68684210526317 275.99992679088524 Z"/><path fill="none" stroke="#7C0000" paint-order="fill stroke markers" d=" M 148.68684210526317 275.99992679088524 L 150.2078947368421 275.99992679088524 L 150.2078947368421 275.99992679088524 L 148.68684210526317 275.99992679088524 L 148.68684210526317 275.99992679088524 Z" stroke-linejoin="bevel" stroke-miterlimit="10" stroke-width="2"/><path fill="#1f77b4" stroke="none" paint-order="stroke fill markers" d=" M 163.89736842105265 275.54722040953703 L 165.41842105263157 275.54722040953703 L 165.41842105263157 275.54722040953703 L 163.89736842105265 275.54722040953703 L 163.89736842105265 275.54722040953703 Z"/><path fill="none" stroke="#7C0000" paint-order="fill stroke markers" d=" M 163.89736842105265 275.54722040953703 L 165.41842105263157 275.54722040953703 L 165.41842105263157 275.54722040953703 L 163.89736842105265 275.54722040953703 L 163.89736842105265 275.54722040953703 Z" stroke-linejoin="bevel" stroke-miterlimit="10" stroke-width="2"/><path fill="#1f77b4" stroke="none" paint-order="stroke fill markers" d=" M 179.10789473684213 275.9247339442376 L 180.62894736842105 275.9247339442376 L 180.62894736842105 275.9247339442376 L 179.10789473684213 275.9247339442376 L 179.10789473684213 275.9247339442376 Z"/><path fill="none" stroke="#7C0000" paint-order="fill stroke markers" d=" M 179.10789473684213 275.9247339442376 L 180.62894736842105 275.9247339442376 L 180.62894736842105 275.9247339442376 L 179.10789473684213 275.9247339442376 L 179.10789473684213 275.9247339442376 Z" stroke-linejoin="bevel" stroke-miterlimit="10" stroke-width="2"/><path fill="#1f77b4" stroke="none" paint-order="stroke fill markers" d=" M 194.31842105263158 275.9732361401448 L 195.8394736842105 275.9732361401448 L 195.8394736842105 275.9732361401448 L 194.31842105263158 275.9732361401448 L 194.31842105263158 275.9732361401448 Z"/><path fill="none" stroke="#7C0000" paint-order="fill stroke markers" d=" M 194.31842105263158 275.9732361401448 L 195.8394736842105 275.9732361401448 L 195.8394736842105 275.9732361401448 L 194.31842105263158 275.9732361401448 L 194.31842105263158 275.9732361401448 Z" stroke-linejoin="bevel" stroke-miterlimit="10" stroke-width="2"/><path fill="#1f77b4" stroke="none" paint-order="stroke fill markers" d=" M 209.52894736842103 275.9843081393215 L 211.05 275.9843081393215 L 211.05 275.9843081393215 L 209.52894736842103 275.9843081393215 L 209.52894736842103 275.9843081393215 Z"/><path fill="none" stroke="#7C0000" paint-order="fill stroke markers" d=" M 209.52894736842103 275.9843081393215 L 211.05 275.9843081393215 L 211.05 275.9843081393215 L 209.52894736842103 275.9843081393215 L 209.52894736842103 275.9843081393215 Z" stroke-linejoin="bevel" stroke-miterlimit="10" stroke-width="2"/><path fill="#1f77b4" stroke="none" paint-order="stroke fill markers" d=" M 224.7394736842105 275.98883201161726 L 226.2605263157895 275.98883201161726 L 226.2605263157895 275.98883201161726 L 224.7394736842105 275.98883201161726 L 224.7394736842105 275.98883201161726 Z"/><path fill="none" stroke="#7C0000" paint-order="fill stroke markers" d=" M 224.7394736842105 275.98883201161726 L 226.2605263157895 275.98883201161726 L 226.2605263157895 275.98883201161726 L 224.7394736842105 275.98883201161726 L 224.7394736842105 275.98883201161726 Z" stroke-linejoin="bevel" stroke-miterlimit="10" stroke-width="2"/><path fill="#1f77b4" stroke="none" paint-order="stroke fill markers" d=" M 239.95 275.9961838395534 L 241.47105263157897 275.9961838395534 L 241.47105263157897 275.9961838395534 L 239.95 275.9961838395534 L 239.95 275.9961838395534 Z"/><path fill="none" stroke="#7C0000" paint-order="fill stroke markers" d=" M 239.95 275.9961838395534 L 241.47105263157897 275.9961838395534 L 241.47105263157897 275.9961838395534 L 239.95 275.9961838395534 L 239.95 275.9961838395534 Z" stroke-linejoin="bevel" stroke-miterlimit="10" stroke-width="2"/><path fill="#1f77b4" stroke="none" paint-order="stroke fill markers" d=" M 255.16052631578947 275.9931678983097 L 256.68157894736845 275.9931678983097 L 256.68157894736845 275.9931678983097 L 255.16052631578947 275.9931678983097 L 255.16052631578947 275.9931678983097 Z"/><path fill="none" stroke="#7C0000" paint-order="fill stroke markers" d=" M 255.16052631578947 275.9931678983097 L 256.68157894736845 275.9931678983097 L 256.68157894736845 275.9931678983097 L 255.16052631578947 275.9931678983097 L 255.16052631578947 275.9931678983097 Z" stroke-linejoin="bevel" stroke-miterlimit="10" stroke-width="2"/><path fill="#1f77b4" stroke="none" paint-order="stroke fill markers" d=" M 270.371052631579 275.9531799670031 L 271.8921052631579 275.9531799670031 L 271.8921052631579 275.9531799670031 L 270.371052631579 275.9531799670031 L 270.371052631579 275.9531799670031 Z"/><path fill="none" stroke="#7C0000" paint-order="fill stroke markers" d=" M 270.371052631579 275.9531799670031 L 271.8921052631579 275.9531799670031 L 271.8921052631579 275.9531799670031 L 270.371052631579 275.9531799670031 L 270.371052631579 275.9531799670031 Z" stroke-linejoin="bevel" stroke-miterlimit="10" stroke-width="2"/><path fill="#1f77b4" stroke="none" paint-order="stroke fill markers" d=" M 285.5815789473685 275.999360684852 L 287.10263157894735 275.999360684852 L 287.10263157894735 275.999360684852 L 285.5815789473685 275.999360684852 L 285.5815789473685 275.999360684852 Z"/><path fill="none" stroke="#7C0000" paint-order="fill stroke markers" d=" M 285.5815789473685 275.999360684852 L 287.10263157894735 275.999360684852 L 287.10263157894735 275.999360684852 L 285.5815789473685 275.999360684852 L 285.5815789473685 275.999360684852 Z" stroke-linejoin="bevel" stroke-miterlimit="10" stroke-width="2"/><path fill="#1f77b4" stroke="none" paint-order="stroke fill markers" d=" M 300.79210526315796 275.9984140324828 L 302.31315789473683 275.9984140324828 L 302.31315789473683 275.9984140324828 L 300.79210526315796 275.9984140324828 L 300.79210526315796 275.9984140324828 Z"/><path fill="none" stroke="#7C0000" paint-order="fill stroke markers" d=" M 300.79210526315796 275.9984140324828 L 302.31315789473683 275.9984140324828 L 302.31315789473683 275.9984140324828 L 300.79210526315796 275.9984140324828 L 300.79210526315796 275.9984140324828 Z" stroke-linejoin="bevel" stroke-miterlimit="10" stroke-width="2"/><path fill="#1f77b4" stroke="none" paint-order="stroke fill markers" d=" M 316.0026315789474 275.99996245141887 L 317.52368421052637 275.99996245141887 L 317.52368421052637 275.99996245141887 L 316.0026315789474 275.99996245141887 L 316.0026315789474 275.99996245141887 Z"/><path fill="none" stroke="#7C0000" paint-order="fill stroke markers" d=" M 316.0026315789474 275.99996245141887 L 317.52368421052637 275.99996245141887 L 317.52368421052637 275.99996245141887 L 316.0026315789474 275.99996245141887 L 316.0026315789474 275.99996245141887 Z" stroke-linejoin="bevel" stroke-miterlimit="10" stroke-width="2"/><path fill="#1f77b4" stroke="none" paint-order="stroke fill markers" d=" M 331.21315789473687 275.99990329498075 L 332.73421052631585 275.99990329498075 L 332.73421052631585 275.99990329498075 L 331.21315789473687 275.99990329498075 L 331.21315789473687 275.99990329498075 Z"/><path fill="none" stroke="#7C0000" paint-order="fill stroke markers" d=" M 331.21315789473687 275.99990329498075 L 332.73421052631585 275.99990329498075 L 332.73421052631585 275.99990329498075 L 331.21315789473687 275.99990329498075 L 331.21315789473687 275.99990329498075 Z" stroke-linejoin="bevel" stroke-miterlimit="10" stroke-width="2"/><path fill="#1f77b4" stroke="none" paint-order="stroke fill markers" d=" M 346.4236842105263 275.9980893888941 L 347.94473684210527 275.9980893888941 L 347.94473684210527 275.9980893888941 L 346.4236842105263 275.9980893888941 L 346.4236842105263 275.9980893888941 Z"/><path fill="none" stroke="#7C0000" paint-order="fill stroke markers" d=" M 346.4236842105263 275.9980893888941 L 347.94473684210527 275.9980893888941 L 347.94473684210527 275.9980893888941 L 346.4236842105263 275.9980893888941 L 346.4236842105263 275.9980893888941 Z" stroke-linejoin="bevel" stroke-miterlimit="10" stroke-width="2"/><path fill="#1f77b4" stroke="none" paint-order="stroke fill markers" d=" M 361.63421052631577 275.9879571755338 L 363.15526315789475 275.9879571755338 L 363.15526315789475 275.9879571755338 L 361.63421052631577 275.9879571755338 L 361.63421052631577 275.9879571755338 Z"/><path fill="none" stroke="#7C0000" paint-order="fill stroke markers" d=" M 361.63421052631577 275.9879571755338 L 363.15526315789475 275.9879571755338 L 363.15526315789475 275.9879571755338 L 361.63421052631577 275.9879571755338 L 361.63421052631577 275.9879571755338 Z" stroke-linejoin="bevel" stroke-miterlimit="10" stroke-width="2"/></g></g></g><g clip-path="url(#tyuSeOMyruaM)"><g><g><path fill="none" stroke="none"/><path fill="#7C0000" stroke="none" paint-order="stroke fill markers" d=" M 85.56315789473685 246.39763670982666 L 91.64736842105263 246.39763670982666 L 91.64736842105263 272.9646185254747 L 85.56315789473685 272.9646185254747 L 85.56315789473685 246.39763670982666 Z"/><path fill="#7C0000" stroke="none" paint-order="stroke fill markers" d=" M 100.77368421052633 256.0587932299767 L 106.85789473684211 256.0587932299767 L 106.85789473684211 274.92477704104334 L 100.77368421052633 274.92477704104334 L 100.77368421052633 256.0587932299767 Z"/><path fill="#7C0000" stroke="none" paint-order="stroke fill markers" d=" M 115.98421052631579 255.96368157532046 L 122.06842105263158 255.96368157532046 L 122.06842105263158 274.6300063075133 L 115.98421052631579 274.6300063075133 L 115.98421052631579 255.96368157532046 Z"/><path fill="#7C0000" stroke="none" paint-order="stroke fill markers" d=" M 131.19473684210527 243.74328504496725 L 137.27894736842103 243.74328504496725 L 137.27894736842103 273.2343715147792 L 131.19473684210527 273.2343715147792 L 131.19473684210527 243.74328504496725 Z"/><path fill="#7C0000" stroke="none" paint-order="stroke fill markers" d=" M 146.40526315789475 255.32802223304145 L 152.4894736842105 255.32802223304145 L 152.4894736842105 274.66618702306664 L 146.40526315789475 274.66618702306664 L 146.40526315789475 255.32802223304145 Z"/><path fill="#7C0000" stroke="none" paint-order="stroke fill markers" d=" M 161.61578947368423 213.0188091484621 L 167.7 213.0188091484621 L 167.7 264.3979389693578 L 161.61578947368423 264.3979389693578 L 161.61578947368423 213.0188091484621 Z"/><path fill="#7C0000" stroke="none" paint-order="stroke fill markers" d=" M 176.8263157894737 188.12951393119715 L 182.91052631578947 188.12951393119715 L 182.91052631578947 261.30024226097083 L 176.8263157894737 261.30024226097083 L 176.8263157894737 188.12951393119715 Z"/><path fill="#7C0000" stroke="none" paint-order="stroke fill markers" d=" M 192.03684210526313 253.54421785593772 L 198.12105263157895 253.54421785593772 L 198.12105263157895 274.6343600449946 L 192.03684210526313 274.6343600449946 L 192.03684210526313 253.54421785593772 Z"/><path fill="#7C0000" stroke="none" paint-order="stroke fill markers" d=" M 207.2473684210526 210.6391021366481 L 213.33157894736843 210.6391021366481 L 213.33157894736843 273.1230112664737 L 207.2473684210526 273.1230112664737 L 207.2473684210526 210.6391021366481 Z"/><path fill="#7C0000" stroke="none" paint-order="stroke fill markers" d=" M 222.45789473684212 254.25975248734915 L 228.54210526315788 254.25975248734915 L 228.54210526315788 274.10328657362794 L 222.45789473684212 274.10328657362794 L 222.45789473684212 254.25975248734915 Z"/><path fill="#7C0000" stroke="none" paint-order="stroke fill markers" d=" M 237.6684210526316 251.50396906538097 L 243.75263157894736 251.50396906538097 L 243.75263157894736 274.8378278502091 L 237.6684210526316 274.8378278502091 L 237.6684210526316 251.50396906538097 Z"/><path fill="#7C0000" stroke="none" paint-order="stroke fill markers" d=" M 252.8789473684211 236.02107884713905 L 258.9631578947368 236.02107884713905 L 258.9631578947368 271.73052456511465 L 252.8789473684211 271.73052456511465 L 252.8789473684211 236.02107884713905 Z"/><path fill="#7C0000" stroke="none" paint-order="stroke fill markers" d=" M 268.0894736842106 239.62663901442136 L 274.1736842105263 239.62663901442136 L 274.1736842105263 271.1560596755729 L 268.0894736842106 271.1560596755729 L 268.0894736842106 239.62663901442136 Z"/><path fill="#7C0000" stroke="none" paint-order="stroke fill markers" d=" M 283.30000000000007 253.62273318782724 L 289.38421052631577 253.62273318782724 L 289.38421052631577 275.2797944957834 L 283.30000000000007 275.2797944957834 L 283.30000000000007 253.62273318782724 Z"/><path fill="#7C0000" stroke="none" paint-order="stroke fill markers" d=" M 298.51052631578955 260.49041905647164 L 304.59473684210525 260.49041905647164 L 304.59473684210525 274.72723324375755 L 298.51052631578955 274.72723324375755 L 298.51052631578955 260.49041905647164 Z"/><path fill="#7C0000" stroke="none" paint-order="stroke fill markers" d=" M 313.721052631579 231.52662870440724 L 319.80526315789473 231.52662870440724 L 319.80526315789473 269.2945640379286 L 313.721052631579 269.2945640379286 L 313.721052631579 231.52662870440724 Z"/><path fill="#7C0000" stroke="none" paint-order="stroke fill markers" d=" M 328.9315789473685 256.75384892517513 L 335.0157894736842 256.75384892517513 L 335.0157894736842 275.1268392624083 L 328.9315789473685 275.1268392624083 L 328.9315789473685 256.75384892517513 Z"/><path fill="#7C0000" stroke="none" paint-order="stroke fill markers" d=" M 344.1421052631579 260.7625985330708 L 350.2263157894737 260.7625985330708 L 350.2263157894737 274.9082983618128 L 344.1421052631579 274.9082983618128 L 344.1421052631579 260.7625985330708 Z"/><path fill="#7C0000" stroke="none" paint-order="stroke fill markers" d=" M 359.35263157894735 260.33761674342986 L 365.43684210526317 260.33761674342986 L 365.43684210526317 274.49543982082105 L 359.35263157894735 274.49543982082105 L 359.35263157894735 260.33761674342986 Z"/></g></g></g><g clip-path="url(#VezNOtTFmERw)"><g><g><path fill="none" stroke="none"/><path fill="#1f77b4" stroke="none" paint-order="stroke fill markers" d=" M 85.56315789473685 265.0222719556737 L 91.64736842105263 265.0222719556737 L 91.64736842105263 265.0222719556737 L 85.56315789473685 265.0222719556737 L 85.56315789473685 265.0222719556737 Z"/><path fill="none" stroke="white" paint-order="fill stroke markers" d=" M 85.56315789473685 265.0222719556737 L 91.64736842105263 265.0222719556737 L 91.64736842105263 265.0222719556737 L 85.56315789473685 265.0222719556737 L 85.56315789473685 265.0222719556737 Z" stroke-linejoin="bevel" stroke-miterlimit="10"/><path fill="#1f77b4" stroke="none" paint-order="stroke fill markers" d=" M 100.77368421052633 271.4583623431132 L 106.85789473684211 271.4583623431132 L 106.85789473684211 271.4583623431132 L 100.77368421052633 271.4583623431132 L 100.77368421052633 271.4583623431132 Z"/><path fill="none" stroke="white" paint-order="fill stroke markers" d=" M 100.77368421052633 271.4583623431132 L 106.85789473684211 271.4583623431132 L 106.85789473684211 271.4583623431132 L 100.77368421052633 271.4583623431132 L 100.77368421052633 271.4583623431132 Z" stroke-linejoin="bevel" stroke-miterlimit="10"/><path fill="#1f77b4" stroke="none" paint-order="stroke fill markers" d=" M 115.98421052631579 269.9633293948603 L 122.06842105263158 269.9633293948603 L 122.06842105263158 269.9633293948603 L 115.98421052631579 269.9633293948603 L 115.98421052631579 269.9633293948603 Z"/><path fill="none" stroke="white" paint-order="fill stroke markers" d=" M 115.98421052631579 269.9633293948603 L 122.06842105263158 269.9633293948603 L 122.06842105263158 269.9633293948603 L 115.98421052631579 269.9633293948603 L 115.98421052631579 269.9633293948603 Z" stroke-linejoin="bevel" stroke-miterlimit="10"/><path fill="#1f77b4" stroke="none" paint-order="stroke fill markers" d=" M 131.19473684210527 266.48193671073113 L 137.27894736842103 266.48193671073113 L 137.27894736842103 266.48193671073113 L 131.19473684210527 266.48193671073113 L 131.19473684210527 266.48193671073113 Z"/><path fill="none" stroke="white" paint-order="fill stroke markers" d=" M 131.19473684210527 266.48193671073113 L 137.27894736842103 266.48193671073113 L 137.27894736842103 266.48193671073113 L 131.19473684210527 266.48193671073113 L 131.19473684210527 266.48193671073113 Z" stroke-linejoin="bevel" stroke-miterlimit="10"/><path fill="#1f77b4" stroke="none" paint-order="stroke fill markers" d=" M 146.40526315789475 269.93522084570355 L 152.4894736842105 269.93522084570355 L 152.4894736842105 269.93522084570355 L 146.40526315789475 269.93522084570355 L 146.40526315789475 269.93522084570355 Z"/><path fill="none" stroke="white" paint-order="fill stroke markers" d=" M 146.40526315789475 269.93522084570355 L 152.4894736842105 269.93522084570355 L 152.4894736842105 269.93522084570355 L 146.40526315789475 269.93522084570355 L 146.40526315789475 269.93522084570355 Z" stroke-linejoin="bevel" stroke-miterlimit="10"/><path fill="#1f77b4" stroke="none" paint-order="stroke fill markers" d=" M 161.61578947368423 246.47858129170726 L 167.7 246.47858129170726 L 167.7 246.47858129170726 L 161.61578947368423 246.47858129170726 L 161.61578947368423 246.47858129170726 Z"/><path fill="none" stroke="white" paint-order="fill stroke markers" d=" M 161.61578947368423 246.47858129170726 L 167.7 246.47858129170726 L 167.7 246.47858129170726 L 161.61578947368423 246.47858129170726 L 161.61578947368423 246.47858129170726 Z" stroke-linejoin="bevel" stroke-miterlimit="10"/><path fill="#1f77b4" stroke="none" paint-order="stroke fill markers" d=" M 176.8263157894737 239.01775867252167 L 182.91052631578947 239.01775867252167 L 182.91052631578947 239.01775867252167 L 176.8263157894737 239.01775867252167 L 176.8263157894737 239.01775867252167 Z"/><path fill="none" stroke="white" paint-order="fill stroke markers" d=" M 176.8263157894737 239.01775867252167 L 182.91052631578947 239.01775867252167 L 182.91052631578947 239.01775867252167 L 176.8263157894737 239.01775867252167 L 176.8263157894737 239.01775867252167 Z" stroke-linejoin="bevel" stroke-miterlimit="10"/><path fill="#1f77b4" stroke="none" paint-order="stroke fill markers" d=" M 192.03684210526313 267.2834490980532 L 198.12105263157895 267.2834490980532 L 198.12105263157895 267.2834490980532 L 192.03684210526313 267.2834490980532 L 192.03684210526313 267.2834490980532 Z"/><path fill="none" stroke="white" paint-order="fill stroke markers" d=" M 192.03684210526313 267.2834490980532 L 198.12105263157895 267.2834490980532 L 198.12105263157895 267.2834490980532 L 192.03684210526313 267.2834490980532 L 192.03684210526313 267.2834490980532 Z" stroke-linejoin="bevel" stroke-miterlimit="10"/><path fill="#1f77b4" stroke="none" paint-order="stroke fill markers" d=" M 207.2473684210526 256.8788263937738 L 213.33157894736843 256.8788263937738 L 213.33157894736843 256.8788263937738 L 207.2473684210526 256.8788263937738 L 207.2473684210526 256.8788263937738 Z"/><path fill="none" stroke="white" paint-order="fill stroke markers" d=" M 207.2473684210526 256.8788263937738 L 213.33157894736843 256.8788263937738 L 213.33157894736843 256.8788263937738 L 207.2473684210526 256.8788263937738 L 207.2473684210526 256.8788263937738 Z" stroke-linejoin="bevel" stroke-miterlimit="10"/><path fill="#1f77b4" stroke="none" paint-order="stroke fill markers" d=" M 222.45789473684212 267.59283933268944 L 228.54210526315788 267.59283933268944 L 228.54210526315788 267.59283933268944 L 222.45789473684212 267.59283933268944 L 222.45789473684212 267.59283933268944 Z"/><path fill="none" stroke="white" paint-order="fill stroke markers" d=" M 222.45789473684212 267.59283933268944 L 228.54210526315788 267.59283933268944 L 228.54210526315788 267.59283933268944 L 222.45789473684212 267.59283933268944 L 222.45789473684212 267.59283933268944 Z" stroke-linejoin="bevel" stroke-miterlimit="10"/><path fill="#1f77b4" stroke="none" paint-order="stroke fill markers" d=" M 237.6684210526316 268.93095116236253 L 243.75263157894736 268.93095116236253 L 243.75263157894736 268.93095116236253 L 237.6684210526316 268.93095116236253 L 237.6684210526316 268.93095116236253 Z"/><path fill="none" stroke="white" paint-order="fill stroke markers" d=" M 237.6684210526316 268.93095116236253 L 243.75263157894736 268.93095116236253 L 243.75263157894736 268.93095116236253 L 237.6684210526316 268.93095116236253 L 237.6684210526316 268.93095116236253 Z" stroke-linejoin="bevel" stroke-miterlimit="10"/><path fill="#1f77b4" stroke="none" paint-order="stroke fill markers" d=" M 252.8789473684211 260.2470175114772 L 258.9631578947368 260.2470175114772 L 258.9631578947368 260.2470175114772 L 252.8789473684211 260.2470175114772 L 252.8789473684211 260.2470175114772 Z"/><path fill="none" stroke="white" paint-order="fill stroke markers" d=" M 252.8789473684211 260.2470175114772 L 258.9631578947368 260.2470175114772 L 258.9631578947368 260.2470175114772 L 252.8789473684211 260.2470175114772 L 252.8789473684211 260.2470175114772 Z" stroke-linejoin="bevel" stroke-miterlimit="10"/><path fill="#1f77b4" stroke="none" paint-order="stroke fill markers" d=" M 268.0894736842106 258.83696387087116 L 274.1736842105263 258.83696387087116 L 274.1736842105263 258.83696387087116 L 268.0894736842106 258.83696387087116 L 268.0894736842106 258.83696387087116 Z"/><path fill="none" stroke="white" paint-order="fill stroke markers" d=" M 268.0894736842106 258.83696387087116 L 274.1736842105263 258.83696387087116 L 274.1736842105263 258.83696387087116 L 268.0894736842106 258.83696387087116 L 268.0894736842106 258.83696387087116 Z" stroke-linejoin="bevel" stroke-miterlimit="10"/><path fill="#1f77b4" stroke="none" paint-order="stroke fill markers" d=" M 283.30000000000007 269.1590760293007 L 289.38421052631577 269.1590760293007 L 289.38421052631577 269.1590760293007 L 283.30000000000007 269.1590760293007 L 283.30000000000007 269.1590760293007 Z"/><path fill="none" stroke="white" paint-order="fill stroke markers" d=" M 283.30000000000007 269.1590760293007 L 289.38421052631577 269.1590760293007 L 289.38421052631577 269.1590760293007 L 283.30000000000007 269.1590760293007 L 283.30000000000007 269.1590760293007 Z" stroke-linejoin="bevel" stroke-miterlimit="10"/><path fill="#1f77b4" stroke="none" paint-order="stroke fill markers" d=" M 298.51052631578955 270.96626950278505 L 304.59473684210525 270.96626950278505 L 304.59473684210525 270.96626950278505 L 298.51052631578955 270.96626950278505 L 298.51052631578955 270.96626950278505 Z"/><path fill="none" stroke="white" paint-order="fill stroke markers" d=" M 298.51052631578955 270.96626950278505 L 304.59473684210525 270.96626950278505 L 304.59473684210525 270.96626950278505 L 298.51052631578955 270.96626950278505 L 298.51052631578955 270.96626950278505 Z" stroke-linejoin="bevel" stroke-miterlimit="10"/><path fill="#1f77b4" stroke="none" paint-order="stroke fill markers" d=" M 313.721052631579 255.92662580515238 L 319.80526315789473 255.92662580515238 L 319.80526315789473 255.92662580515238 L 313.721052631579 255.92662580515238 L 313.721052631579 255.92662580515238 Z"/><path fill="none" stroke="white" paint-order="fill stroke markers" d=" M 313.721052631579 255.92662580515238 L 319.80526315789473 255.92662580515238 L 319.80526315789473 255.92662580515238 L 313.721052631579 255.92662580515238 L 313.721052631579 255.92662580515238 Z" stroke-linejoin="bevel" stroke-miterlimit="10"/><path fill="#1f77b4" stroke="none" paint-order="stroke fill markers" d=" M 328.9315789473685 268.2103751008082 L 335.0157894736842 268.2103751008082 L 335.0157894736842 268.2103751008082 L 328.9315789473685 268.2103751008082 L 328.9315789473685 268.2103751008082 Z"/><path fill="none" stroke="white" paint-order="fill stroke markers" d=" M 328.9315789473685 268.2103751008082 L 335.0157894736842 268.2103751008082 L 335.0157894736842 268.2103751008082 L 328.9315789473685 268.2103751008082 L 328.9315789473685 268.2103751008082 Z" stroke-linejoin="bevel" stroke-miterlimit="10"/><path fill="#1f77b4" stroke="none" paint-order="stroke fill markers" d=" M 344.1421052631579 270.8532050746601 L 350.2263157894737 270.8532050746601 L 350.2263157894737 270.8532050746601 L 344.1421052631579 270.8532050746601 L 344.1421052631579 270.8532050746601 Z"/><path fill="none" stroke="white" paint-order="fill stroke markers" d=" M 344.1421052631579 270.8532050746601 L 350.2263157894737 270.8532050746601 L 350.2263157894737 270.8532050746601 L 344.1421052631579 270.8532050746601 L 344.1421052631579 270.8532050746601 Z" stroke-linejoin="bevel" stroke-miterlimit="10"/><path fill="#1f77b4" stroke="none" paint-order="stroke fill markers" d=" M 359.35263157894735 269.75802131800145 L 365.43684210526317 269.75802131800145 L 365.43684210526317 269.75802131800145 L 359.35263157894735 269.75802131800145 L 359.35263157894735 269.75802131800145 Z"/><path fill="none" stroke="white" paint-order="fill stroke markers" d=" M 359.35263157894735 269.75802131800145 L 365.43684210526317 269.75802131800145 L 365.43684210526317 269.75802131800145 L 359.35263157894735 269.75802131800145 L 359.35263157894735 269.75802131800145 Z" stroke-linejoin="bevel" stroke-miterlimit="10"/></g></g></g><g><g fill="#444444"><path fill="" stroke="none" d=""/><g transform="translate(81,24)"><path fill="none" stroke="none"/><text fill="" stroke="none" font-family="helvetica" font-size="10pt" font-style="normal" font-weight="bold" text-decoration="normal" x="0" y="0" text-anchor="start" dominant-baseline="text-after-edge">exponential residuals squared</text></g></g></g><g/><g><g fill="black"><path fill="none" stroke="white" paint-order="fill stroke markers" d=" M 81 276 L 370 276" stroke-linejoin="bevel" stroke-miterlimit="10"/><path fill="none" stroke="black" paint-order="fill stroke markers" d=" M 89 282 L 89 274" stroke-linejoin="bevel" stroke-miterlimit="10"/><path fill="none" stroke="black" paint-order="fill stroke markers" d=" M 104 282 L 104 274" stroke-linejoin="bevel" stroke-miterlimit="10"/><path fill="none" stroke="black" paint-order="fill stroke markers" d=" M 119 282 L 119 274" stroke-linejoin="bevel" stroke-miterlimit="10"/><path fill="none" stroke="black" paint-order="fill stroke markers" d=" M 134 282 L 134 274" stroke-linejoin="bevel" stroke-miterlimit="10"/><path fill="none" stroke="black" paint-order="fill stroke markers" d=" M 149 282 L 149 274" stroke-linejoin="bevel" stroke-miterlimit="10"/><path fill="none" stroke="black" paint-order="fill stroke markers" d=" M 165 282 L 165 274" stroke-linejoin="bevel" stroke-miterlimit="10"/><path fill="none" stroke="black" paint-order="fill stroke markers" d=" M 180 282 L 180 274" stroke-linejoin="bevel" stroke-miterlimit="10"/><path fill="none" stroke="black" paint-order="fill stroke markers" d=" M 195 282 L 195 274" stroke-linejoin="bevel" stroke-miterlimit="10"/><path fill="none" stroke="black" paint-order="fill stroke markers" d=" M 210 282 L 210 274" stroke-linejoin="bevel" stroke-miterlimit="10"/><path fill="none" stroke="black" paint-order="fill stroke markers" d=" M 226 282 L 226 274" stroke-linejoin="bevel" stroke-miterlimit="10"/><path fill="none" stroke="black" paint-order="fill stroke markers" d=" M 241 282 L 241 274" stroke-linejoin="bevel" stroke-miterlimit="10"/><path fill="none" stroke="black" paint-order="fill stroke markers" d=" M 256 282 L 256 274" stroke-linejoin="bevel" stroke-miterlimit="10"/><path fill="none" stroke="black" paint-order="fill stroke markers" d=" M 271 282 L 271 274" stroke-linejoin="bevel" stroke-miterlimit="10"/><path fill="none" stroke="black" paint-order="fill stroke markers" d=" M 286 282 L 286 274" stroke-linejoin="bevel" stroke-miterlimit="10"/><path fill="none" stroke="black" paint-order="fill stroke markers" d=" M 302 282 L 302 274" stroke-linejoin="bevel" stroke-miterlimit="10"/><path fill="none" stroke="black" paint-order="fill stroke markers" d=" M 317 282 L 317 274" stroke-linejoin="bevel" stroke-miterlimit="10"/><path fill="none" stroke="black" paint-order="fill stroke markers" d=" M 332 282 L 332 274" stroke-linejoin="bevel" stroke-miterlimit="10"/><path fill="none" stroke="black" paint-order="fill stroke markers" d=" M 347 282 L 347 274" stroke-linejoin="bevel" stroke-miterlimit="10"/><path fill="" stroke="black" paint-order="fill stroke markers" d=" M 362 282 L 362 274" stroke-linejoin="bevel" stroke-miterlimit="10"/><g transform="translate(89,287) rotate(0,0,0)"><text fill="" stroke="none" font-family="helvetica" font-size="8pt" font-style="normal" font-weight="normal" text-decoration="normal" x="0" y="0" text-anchor="middle" dominant-baseline="hanging">0</text><g transform="rotate(0,0,0) translate(-89,-287) translate(104,287) rotate(0,0,0)"><text fill="" stroke="none" font-family="helvetica" font-size="8pt" font-style="normal" font-weight="normal" text-decoration="normal" x="0" y="0" text-anchor="middle" dominant-baseline="hanging">1</text><g transform="rotate(0,0,0) translate(-104,-287) translate(119,287) rotate(0,0,0)"><text fill="" stroke="none" font-family="helvetica" font-size="8pt" font-style="normal" font-weight="normal" text-decoration="normal" x="0" y="0" text-anchor="middle" dominant-baseline="hanging">2</text><g transform="rotate(0,0,0) translate(-119,-287) translate(134,287) rotate(0,0,0)"><text fill="" stroke="none" font-family="helvetica" font-size="8pt" font-style="normal" font-weight="normal" text-decoration="normal" x="0" y="0" text-anchor="middle" dominant-baseline="hanging">3</text><g transform="rotate(0,0,0) translate(-134,-287) translate(149,287) rotate(0,0,0)"><text fill="" stroke="none" font-family="helvetica" font-size="8pt" font-style="normal" font-weight="normal" text-decoration="normal" x="0" y="0" text-anchor="middle" dominant-baseline="hanging">4</text><g transform="rotate(0,0,0) translate(-149,-287) translate(165,287) rotate(0,0,0)"><text fill="" stroke="none" font-family="helvetica" font-size="8pt" font-style="normal" font-weight="normal" text-decoration="normal" x="0" y="0" text-anchor="middle" dominant-baseline="hanging">5</text><g transform="rotate(0,0,0) translate(-165,-287) translate(180,287) rotate(0,0,0)"><text fill="" stroke="none" font-family="helvetica" font-size="8pt" font-style="normal" font-weight="normal" text-decoration="normal" x="0" y="0" text-anchor="middle" dominant-baseline="hanging">6</text><g transform="rotate(0,0,0) translate(-180,-287) translate(195,287) rotate(0,0,0)"><text fill="" stroke="none" font-family="helvetica" font-size="8pt" font-style="normal" font-weight="normal" text-decoration="normal" x="0" y="0" text-anchor="middle" dominant-baseline="hanging">7</text><g transform="rotate(0,0,0) translate(-195,-287) translate(210,287) rotate(0,0,0)"><text fill="" stroke="none" font-family="helvetica" font-size="8pt" font-style="normal" font-weight="normal" text-decoration="normal" x="0" y="0" text-anchor="middle" dominant-baseline="hanging">9</text><g transform="rotate(0,0,0) translate(-210,-287) translate(226,287) rotate(0,0,0)"><text fill="" stroke="none" font-family="helvetica" font-size="8pt" font-style="normal" font-weight="normal" text-decoration="normal" x="0" y="0" text-anchor="middle" dominant-baseline="hanging">10</text><g transform="rotate(0,0,0) translate(-226,-287) translate(241,287) rotate(0,0,0)"><text fill="" stroke="none" font-family="helvetica" font-size="8pt" font-style="normal" font-weight="normal" text-decoration="normal" x="0" y="0" text-anchor="middle" dominant-baseline="hanging">11</text><g transform="rotate(0,0,0) translate(-241,-287) translate(256,287) rotate(0,0,0)"><text fill="" stroke="none" font-family="helvetica" font-size="8pt" font-style="normal" font-weight="normal" text-decoration="normal" x="0" y="0" text-anchor="middle" dominant-baseline="hanging">12</text><g transform="rotate(0,0,0) translate(-256,-287) translate(271,287) rotate(0,0,0)"><text fill="" stroke="none" font-family="helvetica" font-size="8pt" font-style="normal" font-weight="normal" text-decoration="normal" x="0" y="0" text-anchor="middle" dominant-baseline="hanging">13</text><g transform="rotate(0,0,0) translate(-271,-287) translate(286,287) rotate(0,0,0)"><text fill="" stroke="none" font-family="helvetica" font-size="8pt" font-style="normal" font-weight="normal" text-decoration="normal" x="0" y="0" text-anchor="middle" dominant-baseline="hanging">14</text><g transform="rotate(0,0,0) translate(-286,-287) translate(302,287) rotate(0,0,0)"><text fill="" stroke="none" font-family="helvetica" font-size="8pt" font-style="normal" font-weight="normal" text-decoration="normal" x="0" y="0" text-anchor="middle" dominant-baseline="hanging">15</text><g transform="rotate(0,0,0) translate(-302,-287) translate(317,287) rotate(0,0,0)"><text fill="" stroke="none" font-family="helvetica" font-size="8pt" font-style="normal" font-weight="normal" text-decoration="normal" x="0" y="0" text-anchor="middle" dominant-baseline="hanging">16</text><g transform="rotate(0,0,0) translate(-317,-287) translate(332,287) rotate(0,0,0)"><text fill="" stroke="none" font-family="helvetica" font-size="8pt" font-style="normal" font-weight="normal" text-decoration="normal" x="0" y="0" text-anchor="middle" dominant-baseline="hanging">17</text><g transform="rotate(0,0,0) translate(-332,-287) translate(347,287) rotate(0,0,0)"><text fill="" stroke="none" font-family="helvetica" font-size="8pt" font-style="normal" font-weight="normal" text-decoration="normal" x="0" y="0" text-anchor="middle" dominant-baseline="hanging">18</text><g transform="rotate(0,0,0) translate(-347,-287) translate(362,287) rotate(0,0,0)"><text fill="" stroke="none" font-family="helvetica" font-size="8pt" font-style="normal" font-weight="normal" text-decoration="normal" x="0" y="0" text-anchor="middle" dominant-baseline="hanging">19</text><g transform="rotate(0,0,0) translate(-362,-287)"/></g></g></g></g></g></g></g></g></g></g></g></g></g></g></g></g></g></g></g></g></g><g><g fill="black"><path fill="none" stroke="white" paint-order="fill stroke markers" d=" M 81 276 L 81 29" stroke-linejoin="bevel" stroke-miterlimit="10"/><path fill="none" stroke="black" paint-order="fill stroke markers" d=" M 75 276 L 83 276" stroke-linejoin="bevel" stroke-miterlimit="10"/><path fill="none" stroke="black" paint-order="fill stroke markers" d=" M 75 245 L 83 245" stroke-linejoin="bevel" stroke-miterlimit="10"/><path fill="none" stroke="black" paint-order="fill stroke markers" d=" M 75 214 L 83 214" stroke-linejoin="bevel" stroke-miterlimit="10"/><path fill="none" stroke="black" paint-order="fill stroke markers" d=" M 75 183 L 83 183" stroke-linejoin="bevel" stroke-miterlimit="10"/><path fill="none" stroke="black" paint-order="fill stroke markers" d=" M 75 153 L 83 153" stroke-linejoin="bevel" stroke-miterlimit="10"/><path fill="none" stroke="black" paint-order="fill stroke markers" d=" M 75 122 L 83 122" stroke-linejoin="bevel" stroke-miterlimit="10"/><path fill="none" stroke="black" paint-order="fill stroke markers" d=" M 75 91 L 83 91" stroke-linejoin="bevel" stroke-miterlimit="10"/><path fill="none" stroke="black" paint-order="fill stroke markers" d=" M 75 60 L 83 60" stroke-linejoin="bevel" stroke-miterlimit="10"/><path fill="none" stroke="black" paint-order="fill stroke markers" d=" M 75 29 L 83 29" stroke-linejoin="bevel" stroke-miterlimit="10"/><path fill="none" stroke="black" paint-order="fill stroke markers" d=" M 77 276 L 81 276" stroke-linejoin="bevel" stroke-miterlimit="10"/><path fill="none" stroke="black" paint-order="fill stroke markers" d=" M 77 270 L 81 270" stroke-linejoin="bevel" stroke-miterlimit="10"/><path fill="none" stroke="black" paint-order="fill stroke markers" d=" M 77 264 L 81 264" stroke-linejoin="bevel" stroke-miterlimit="10"/><path fill="none" stroke="black" paint-order="fill stroke markers" d=" M 77 257 L 81 257" stroke-linejoin="bevel" stroke-miterlimit="10"/><path fill="none" stroke="black" paint-order="fill stroke markers" d=" M 77 251 L 81 251" stroke-linejoin="bevel" stroke-miterlimit="10"/><path fill="none" stroke="black" paint-order="fill stroke markers" d=" M 77 245 L 81 245" stroke-linejoin="bevel" stroke-miterlimit="10"/><path fill="none" stroke="black" paint-order="fill stroke markers" d=" M 77 239 L 81 239" stroke-linejoin="bevel" stroke-miterlimit="10"/><path fill="none" stroke="black" paint-order="fill stroke markers" d=" M 77 233 L 81 233" stroke-linejoin="bevel" stroke-miterlimit="10"/><path fill="none" stroke="black" paint-order="fill stroke markers" d=" M 77 227 L 81 227" stroke-linejoin="bevel" stroke-miterlimit="10"/><path fill="none" stroke="black" paint-order="fill stroke markers" d=" M 77 220 L 81 220" stroke-linejoin="bevel" stroke-miterlimit="10"/><path fill="none" stroke="black" paint-order="fill stroke markers" d=" M 77 214 L 81 214" stroke-linejoin="bevel" stroke-miterlimit="10"/><path fill="none" stroke="black" paint-order="fill stroke markers" d=" M 77 208 L 81 208" stroke-linejoin="bevel" stroke-miterlimit="10"/><path fill="none" stroke="black" paint-order="fill stroke markers" d=" M 77 202 L 81 202" stroke-linejoin="bevel" stroke-miterlimit="10"/><path fill="none" stroke="black" paint-order="fill stroke markers" d=" M 77 196 L 81 196" stroke-linejoin="bevel" stroke-miterlimit="10"/><path fill="none" stroke="black" paint-order="fill stroke markers" d=" M 77 190 L 81 190" stroke-linejoin="bevel" stroke-miterlimit="10"/><path fill="none" stroke="black" paint-order="fill stroke markers" d=" M 77 183 L 81 183" stroke-linejoin="bevel" stroke-miterlimit="10"/><path fill="none" stroke="black" paint-order="fill stroke markers" d=" M 77 177 L 81 177" stroke-linejoin="bevel" stroke-miterlimit="10"/><path fill="none" stroke="black" paint-order="fill stroke markers" d=" M 77 171 L 81 171" stroke-linejoin="bevel" stroke-miterlimit="10"/><path fill="none" stroke="black" paint-order="fill stroke markers" d=" M 77 165 L 81 165" stroke-linejoin="bevel" stroke-miterlimit="10"/><path fill="none" stroke="black" paint-order="fill stroke markers" d=" M 77 159 L 81 159" stroke-linejoin="bevel" stroke-miterlimit="10"/><path fill="none" stroke="black" paint-order="fill stroke markers" d=" M 77 153 L 81 153" stroke-linejoin="bevel" stroke-miterlimit="10"/><path fill="none" stroke="black" paint-order="fill stroke markers" d=" M 77 146 L 81 146" stroke-linejoin="bevel" stroke-miterlimit="10"/><path fill="none" stroke="black" paint-order="fill stroke markers" d=" M 77 140 L 81 140" stroke-linejoin="bevel" stroke-miterlimit="10"/><path fill="none" stroke="black" paint-order="fill stroke markers" d=" M 77 134 L 81 134" stroke-linejoin="bevel" stroke-miterlimit="10"/><path fill="none" stroke="black" paint-order="fill stroke markers" d=" M 77 128 L 81 128" stroke-linejoin="bevel" stroke-miterlimit="10"/><path fill="none" stroke="black" paint-order="fill stroke markers" d=" M 77 122 L 81 122" stroke-linejoin="bevel" stroke-miterlimit="10"/><path fill="none" stroke="black" paint-order="fill stroke markers" d=" M 77 115 L 81 115" stroke-linejoin="bevel" stroke-miterlimit="10"/><path fill="none" stroke="black" paint-order="fill stroke markers" d=" M 77 109 L 81 109" stroke-linejoin="bevel" stroke-miterlimit="10"/><path fill="none" stroke="black" paint-order="fill stroke markers" d=" M 77 103 L 81 103" stroke-linejoin="bevel" stroke-miterlimit="10"/><path fill="none" stroke="black" paint-order="fill stroke markers" d=" M 77 97 L 81 97" stroke-linejoin="bevel" stroke-miterlimit="10"/><path fill="none" stroke="black" paint-order="fill stroke markers" d=" M 77 91 L 81 91" stroke-linejoin="bevel" stroke-miterlimit="10"/><path fill="none" stroke="black" paint-order="fill stroke markers" d=" M 77 85 L 81 85" stroke-linejoin="bevel" stroke-miterlimit="10"/><path fill="none" stroke="black" paint-order="fill stroke markers" d=" M 77 78 L 81 78" stroke-linejoin="bevel" stroke-miterlimit="10"/><path fill="none" stroke="black" paint-order="fill stroke markers" d=" M 77 72 L 81 72" stroke-linejoin="bevel" stroke-miterlimit="10"/><path fill="none" stroke="black" paint-order="fill stroke markers" d=" M 77 66 L 81 66" stroke-linejoin="bevel" stroke-miterlimit="10"/><path fill="none" stroke="black" paint-order="fill stroke markers" d=" M 77 60 L 81 60" stroke-linejoin="bevel" stroke-miterlimit="10"/><path fill="none" stroke="black" paint-order="fill stroke markers" d=" M 77 54 L 81 54" stroke-linejoin="bevel" stroke-miterlimit="10"/><path fill="none" stroke="black" paint-order="fill stroke markers" d=" M 77 48 L 81 48" stroke-linejoin="bevel" stroke-miterlimit="10"/><path fill="none" stroke="black" paint-order="fill stroke markers" d=" M 77 41 L 81 41" stroke-linejoin="bevel" stroke-miterlimit="10"/><path fill="none" stroke="black" paint-order="fill stroke markers" d=" M 77 35 L 81 35" stroke-linejoin="bevel" stroke-miterlimit="10"/><path fill="" stroke="black" paint-order="fill stroke markers" d=" M 77 29 L 81 29" stroke-linejoin="bevel" stroke-miterlimit="10"/><g transform="translate(70,276) rotate(0,0,0)"><text fill="" stroke="none" font-family="helvetica" font-size="8pt" font-style="normal" font-weight="normal" text-decoration="normal" x="0" y="0" text-anchor="end" dominant-baseline="central">0.000e+0</text><g transform="rotate(0,0,0) translate(-70,-276) translate(70,245) rotate(0,0,0)"><text fill="" stroke="none" font-family="helvetica" font-size="8pt" font-style="normal" font-weight="normal" text-decoration="normal" x="0" y="0" text-anchor="end" dominant-baseline="central">5.000e-4</text><g transform="rotate(0,0,0) translate(-70,-245) translate(70,214) rotate(0,0,0)"><text fill="" stroke="none" font-family="helvetica" font-size="8pt" font-style="normal" font-weight="normal" text-decoration="normal" x="0" y="0" text-anchor="end" dominant-baseline="central">1.000e-3</text><g transform="rotate(0,0,0) translate(-70,-214) translate(70,183) rotate(0,0,0)"><text fill="" stroke="none" font-family="helvetica" font-size="8pt" font-style="normal" font-weight="normal" text-decoration="normal" x="0" y="0" text-anchor="end" dominant-baseline="central">1.500e-3</text><g transform="rotate(0,0,0) translate(-70,-183) translate(70,153) rotate(0,0,0)"><text fill="" stroke="none" font-family="helvetica" font-size="8pt" font-style="normal" font-weight="normal" text-decoration="normal" x="0" y="0" text-anchor="end" dominant-baseline="central">2.000e-3</text><g transform="rotate(0,0,0) translate(-70,-153) translate(70,122) rotate(0,0,0)"><text fill="" stroke="none" font-family="helvetica" font-size="8pt" font-style="normal" font-weight="normal" text-decoration="normal" x="0" y="0" text-anchor="end" dominant-baseline="central">2.500e-3</text><g transform="rotate(0,0,0) translate(-70,-122) translate(70,91) rotate(0,0,0)"><text fill="" stroke="none" font-family="helvetica" font-size="8pt" font-style="normal" font-weight="normal" text-decoration="normal" x="0" y="0" text-anchor="end" dominant-baseline="central">3.000e-3</text><g transform="rotate(0,0,0) translate(-70,-91) translate(70,60) rotate(0,0,0)"><text fill="" stroke="none" font-family="helvetica" font-size="8pt" font-style="normal" font-weight="normal" text-decoration="normal" x="0" y="0" text-anchor="end" dominant-baseline="central">3.500e-3</text><g transform="rotate(0,0,0) translate(-70,-60) translate(70,29) rotate(0,0,0)"><text fill="" stroke="none" font-family="helvetica" font-size="8pt" font-style="normal" font-weight="normal" text-decoration="normal" x="0" y="0" text-anchor="end" dominant-baseline="central">4.000e-3</text><g transform="rotate(0,0,0) translate(-70,-29) translate(16,153) rotate(-90,0,0)"><text fill="" stroke="none" font-family="helvetica" font-size="10pt" font-style="italic" font-weight="normal" text-decoration="normal" x="0" y="0" text-anchor="middle" dominant-baseline="alphabetic">expo resid^2</text><g transform="rotate(90,0,0) translate(-16,-153)"/></g></g></g></g></g></g></g></g></g></g></g></g><g clip-path="url(#OBxTAbocIqCy)"><g/></g></g></g></svg>