<svg version="1.1" xmlns="http://www.w3.org/2000/svg" xmlns:xlink="http://www.w3.org/1999/xlink" width="400" height="300" style="width: 400px; height: 300px;"><defs><clipPath id="erbLNRQHCLbq"><path fill="none" stroke="none" d=" M 81 29 L 370 29 L 370 276 L 81 276 L 81 29 Z"/></clipPath><clipPath id="EovfvyKLWoBS"><path fill="none" stroke="none" d=" M 81 29 L 370 29 L 370 276 L 81 276 L 81 29 Z"/></clipPath><clipPath id="THUpKoGBDdKb"><path fill="none" stroke="none" d=" M 81 29 L 370 29 L 370 276 L 81 276 L 81 29 Z"/></clipPath><clipPath id="nVotKHckSKGz"><path fill="none" stroke="none" d=" M 81 29 L 370 29 L 370 276 L 81 276 L 81 29 Z"/></clipPath><clipPath id="ooKGiobaeZuJ"><path fill="none" stroke="none" d=" M 81 29 L 370 29 L 370 276 L 81 276 L 81 29 Z"/></clipPath><clipPath id="fhouuJWDJICq"><path fill="none" stroke="none" d=" M 81 29 L 370 29 L 370 276 L 81 276 L 81 29 Z"/></clipPath><clipPath id="yvUEAmHTBSEm"><path fill="none" stroke="none" d=" M 81 29 L 370 29 L 370 276 L 81 276 L 81 29 Z"/></clipPath><clipPath id="yfZWEXTFTEaD"><path fill="none" stroke="none" d=" M 81 29 L 370 29 L 370 276 L 81 276 L 81 29 Z"/></clipPath><clipPath id="MAMDNCgnnttS"><path fill="none" stroke="none" d=" M 81 29 L 370 29 L 370 276 L 81 276 L 81 29 Z"/></clipPath></defs><g><g transform="scale(1,1) translate(0.5,0.5)"><rect fill="#FFFFFF" stroke="none" x="0" y="0" width="400" height="300"/><rect fill="white" stroke="none" x="0" y="0" width="400" height="300"/><rect fill="#FFFFFF" stroke="none" x="81" y="29" width="289" height="247"/><rect fill="snow" stroke="none" x="81" y="29" width="289" height="247"/><g><rect fill="none" stroke="white" x="81" y="29" width="289" height="247" stroke-linejoin="bevel" stroke-miterlimit="10"/></g><g clip-path="url(#erbLNRQHCLbq)"><g><g/></g></g><g clip-path="url(#EovfvyKLWoBS)"><g><g><path fill="none" stroke="#e5e5e5" paint-order="fill stroke markers" d=" M 81 245 L 370 245" stroke-linejoin="bevel" stroke-miterlimit="10" stroke-opacity="0.2" stroke-dasharray="6,4"/><path fill="none" stroke="#e5e5e5" paint-order="fill stroke markers" d=" M 81 214 L 370 214" stroke-linejoin="bevel" stroke-miterlimit="10" stroke-opacity="0.2" stroke-dasharray="6,4"/><path fill="none" stroke="#e5e5e5" paint-order="fill stroke markers" d=" M 81 183 L 370 183" stroke-linejoin="bevel" stroke-miterlimit="10" stroke-opacity="0.2" stroke-dasharray="6,4"/><path fill="none" stroke="#e5e5e5" paint-order="fill stroke markers" d=" M 81 153 L 370 153" stroke-linejoin="bevel" stroke-miterlimit="10" stroke-opacity="0.2" stroke-dasharray="6,4"/><path fill="none" stroke="#e5e5e5" paint-order="fill stroke markers" d=" M 81 122 L 370 122" stroke-linejoin="bevel" stroke-miterlimit="10" stroke-opacity="0.2" stroke-dasharray="6,4"/><path fill="none" stroke="#e5e5e5" paint-order="fill stroke markers" d=" M 81 91 L 370 91" stroke-linejoin="bevel" stroke-miterlimit="10" stroke-opacity="0.2" stroke-dasharray="6,4"/><path fill="none" stroke="#e5e5e5" paint-order="fill stroke markers" d=" M 81 60 L 370 60" stroke-linejoin="bevel" stroke-miterlimit="10" stroke-opacity="0.2" stroke-dasharray="6,4"/></g></g></g><g clip-path="url(#THUpKoGBDdKb)"><g><g><path fill="none" stroke="none"/><path fill="none" stroke="#7C0000" paint-order="fill stroke markers" d=" M 88.60526315789474 240.48927717657216 L 88.60526315789474 201.58433018929063" stroke-linejoin="bevel" stroke-miterlimit="10" stroke-width="2"/><path fill="none" stroke="#7C0000" paint-order="fill stroke markers" d=" M 103.81578947368422 231.802159363702 L 103.81578947368422 183.710583852105" stroke-linejoin="bevel" stroke-miterlimit="10" stroke-width="2"/><path fill="none" stroke="#7C0000" paint-order="fill stroke markers" d=" M 119.02631578947368 184.15763077344081 L 119.02631578947368 107.76735450031046" stroke-linejoin="bevel" stroke-miterlimit="10" stroke-width="2"/><path fill="none" stroke="#7C0000" paint-order="fill stroke markers" d=" M 134.23684210526315 246.54431521080477 L 134.23684210526315 209.89399544974606" stroke-linejoin="bevel" stroke-miterlimit="10" stroke-width="2"/><path fill="none" stroke="#7C0000" paint-order="fill stroke markers" d=" M 149.44736842105263 225.04597234664163 L 149.44736842105263 161.3939650499458" stroke-linejoin="bevel" stroke-miterlimit="10" stroke-width="2"/><path fill="none" stroke="#7C0000" paint-order="fill stroke markers" d=" M 164.6578947368421 225.41103920926503 L 164.6578947368421 157.06633530056752" stroke-linejoin="bevel" stroke-miterlimit="10" stroke-width="2"/><path fill="none" stroke="#7C0000" paint-order="fill stroke markers" d=" M 179.8684210526316 175.6691850048419 L 179.8684210526316 42.73426440311033" stroke-linejoin="bevel" stroke-miterlimit="10" stroke-width="2"/><path fill="none" stroke="#7C0000" paint-order="fill stroke markers" d=" M 195.07894736842104 227.91939522611455 L 195.07894736842104 169.08227673822566" stroke-linejoin="bevel" stroke-miterlimit="10" stroke-width="2"/><path fill="none" stroke="#7C0000" paint-order="fill stroke markers" d=" M 210.28947368421052 211.91126621356818 L 210.28947368421052 147.9115580449062" stroke-linejoin="bevel" stroke-miterlimit="10" stroke-width="2"/><path fill="none" stroke="#7C0000" paint-order="fill stroke markers" d=" M 225.5 196.80194652610794 L 225.5 105.59519256731963" stroke-linejoin="bevel" stroke-miterlimit="10" stroke-width="2"/><path fill="none" stroke="#7C0000" paint-order="fill stroke markers" d=" M 240.71052631578948 247.43321153683192 L 240.71052631578948 220.0564626675021" stroke-linejoin="bevel" stroke-miterlimit="10" stroke-width="2"/><path fill="none" stroke="#7C0000" paint-order="fill stroke markers" d=" M 255.92105263157896 234.58364173618006 L 255.92105263157896 185.9050443197429" stroke-linejoin="bevel" stroke-miterlimit="10" stroke-width="2"/><path fill="none" stroke="#7C0000" paint-order="fill stroke markers" d=" M 271.13157894736844 237.54557488613057 L 271.13157894736844 186.175425975768" stroke-linejoin="bevel" stroke-miterlimit="10" stroke-width="2"/><path fill="none" stroke="#7C0000" paint-order="fill stroke markers" d=" M 286.3421052631579 232.01659597925055 L 286.3421052631579 182.03534279483773" stroke-linejoin="bevel" stroke-miterlimit="10" stroke-width="2"/><path fill="none" stroke="#7C0000" paint-order="fill stroke markers" d=" M 301.5526315789474 240.8125222480114 L 301.5526315789474 196.49652969469275" stroke-linejoin="bevel" stroke-miterlimit="10" stroke-width="2"/><path fill="none" stroke="#7C0000" paint-order="fill stroke markers" d=" M 316.7631578947369 256.3429927897943 L 316.7631578947369 230.36173681548547" stroke-linejoin="bevel" stroke-miterlimit="10" stroke-width="2"/><path fill="none" stroke="#7C0000" paint-order="fill stroke markers" d=" M 331.97368421052636 239.37570828487117 L 331.97368421052636 201.1705639754598" stroke-linejoin="bevel" stroke-miterlimit="10" stroke-width="2"/><path fill="none" stroke="#7C0000" paint-order="fill stroke markers" d=" M 347.1842105263158 260.23852569173806 L 347.1842105263158 243.70006880269625" stroke-linejoin="bevel" stroke-miterlimit="10" stroke-width="2"/><path fill="none" stroke="#7C0000" paint-order="fill stroke markers" d=" M 362.39473684210526 181.46642984192027 L 362.39473684210526 89.02284874761676" stroke-linejoin="bevel" stroke-miterlimit="10" stroke-width="2"/></g></g></g><g clip-path="url(#nVotKHckSKGz)"><g><g><path fill="none" stroke="none"/><path fill="none" stroke="#7C0000" paint-order="fill stroke markers" d=" M 88.60526315789474 272.0827738399082 L 88.60526315789474 275.9999293257624" stroke-linejoin="bevel" stroke-miterlimit="10" stroke-width="2"/><path fill="none" stroke="#7C0000" paint-order="fill stroke markers" d=" M 103.81578947368422 271.3661825565196 L 103.81578947368422 275.99997358758" stroke-linejoin="bevel" stroke-miterlimit="10" stroke-width="2"/><path fill="none" stroke="#7C0000" paint-order="fill stroke markers" d=" M 119.02631578947368 264.89293091061063 L 119.02631578947368 275.9903048478948" stroke-linejoin="bevel" stroke-miterlimit="10" stroke-width="2"/><path fill="none" stroke="#7C0000" paint-order="fill stroke markers" d=" M 134.23684210526315 273.1714619059419 L 134.23684210526315 275.99999759921343" stroke-linejoin="bevel" stroke-miterlimit="10" stroke-width="2"/><path fill="none" stroke="#7C0000" paint-order="fill stroke markers" d=" M 149.44736842105263 270.77023148261424 L 149.44736842105263 275.9737347025512" stroke-linejoin="bevel" stroke-miterlimit="10" stroke-width="2"/><path fill="none" stroke="#7C0000" paint-order="fill stroke markers" d=" M 164.6578947368421 273.73927871555014 L 164.6578947368421 275.9961521602546" stroke-linejoin="bevel" stroke-miterlimit="10" stroke-width="2"/><path fill="none" stroke="#7C0000" paint-order="fill stroke markers" d=" M 179.8684210526316 271.5221598435176 L 179.8684210526316 275.9995984294734" stroke-linejoin="bevel" stroke-miterlimit="10" stroke-width="2"/><path fill="none" stroke="#7C0000" paint-order="fill stroke markers" d=" M 195.07894736842104 269.40019080996814 L 195.07894736842104 275.9999955427984" stroke-linejoin="bevel" stroke-miterlimit="10" stroke-width="2"/><path fill="none" stroke="#7C0000" paint-order="fill stroke markers" d=" M 210.28947368421052 269.004341060653 L 210.28947368421052 275.9998692677822" stroke-linejoin="bevel" stroke-miterlimit="10" stroke-width="2"/><path fill="none" stroke="#7C0000" paint-order="fill stroke markers" d=" M 225.5 265.2218466646226 L 225.5 275.7559932295239" stroke-linejoin="bevel" stroke-miterlimit="10" stroke-width="2"/><path fill="none" stroke="#7C0000" paint-order="fill stroke markers" d=" M 240.71052631578948 271.4971883117643 L 240.71052631578948 275.99999601477776" stroke-linejoin="bevel" stroke-miterlimit="10" stroke-width="2"/><path fill="none" stroke="#7C0000" paint-order="fill stroke markers" d=" M 255.92105263157896 273.83522052712846 L 255.92105263157896 275.99718361204447" stroke-linejoin="bevel" stroke-miterlimit="10" stroke-width="2"/><path fill="none" stroke="#7C0000" paint-order="fill stroke markers" d=" M 271.13157894736844 273.60873382633764 L 271.13157894736844 275.99999982930046" stroke-linejoin="bevel" stroke-miterlimit="10" stroke-width="2"/><path fill="none" stroke="#7C0000" paint-order="fill stroke markers" d=" M 286.3421052631579 268.6471024643747 L 286.3421052631579 275.96531956197873" stroke-linejoin="bevel" stroke-miterlimit="10" stroke-width="2"/><path fill="none" stroke="#7C0000" paint-order="fill stroke markers" d=" M 301.5526315789474 271.0933828726926 L 301.5526315789474 275.99716964833823" stroke-linejoin="bevel" stroke-miterlimit="10" stroke-width="2"/><path fill="none" stroke="#7C0000" paint-order="fill stroke markers" d=" M 316.7631578947369 274.7857603344739 L 316.7631578947369 275.9997334151359" stroke-linejoin="bevel" stroke-miterlimit="10" stroke-width="2"/><path fill="none" stroke="#7C0000" paint-order="fill stroke markers" d=" M 331.97368421052636 269.1973646327949 L 331.97368421052636 275.986897651296" stroke-linejoin="bevel" stroke-miterlimit="10" stroke-width="2"/><path fill="none" stroke="#7C0000" paint-order="fill stroke markers" d=" M 347.1842105263158 275.1579964852077 L 347.1842105263158 275.9978693920874" stroke-linejoin="bevel" stroke-miterlimit="10" stroke-width="2"/><path fill="none" stroke="#7C0000" paint-order="fill stroke markers" d=" M 362.39473684210526 263.4880823755326 L 362.39473684210526 275.99989311224226" stroke-linejoin="bevel" stroke-miterlimit="10" stroke-width="2"/></g></g></g><g clip-path="url(#ooKGiobaeZuJ)"><g><g><path fill="none" stroke="none"/><path fill="#1f77b4" stroke="none" paint-order="stroke fill markers" d=" M 87.84473684210526 201.58433018929063 L 89.36578947368422 201.58433018929063 L 89.36578947368422 201.58433018929063 L 87.84473684210526 201.58433018929063 L 87.84473684210526 201.58433018929063 Z"/><path fill="none" stroke="#7C0000" paint-order="fill stroke markers" d=" M 87.84473684210526 201.58433018929063 L 89.36578947368422 201.58433018929063 L 89.36578947368422 201.58433018929063 L 87.84473684210526 201.58433018929063 L 87.84473684210526 201.58433018929063 Z" stroke-linejoin="bevel" stroke-miterlimit="10" stroke-width="2"/><path fill="#1f77b4" stroke="none" paint-order="stroke fill markers" d=" M 103.05526315789474 183.710583852105 L 104.5763157894737 183.710583852105 L 104.5763157894737 183.710583852105 L 103.05526315789474 183.710583852105 L 103.05526315789474 183.710583852105 Z"/><path fill="none" stroke="#7C0000" paint-order="fill stroke markers" d=" M 103.05526315789474 183.710583852105 L 104.5763157894737 183.710583852105 L 104.5763157894737 183.710583852105 L 103.05526315789474 183.710583852105 L 103.05526315789474 183.710583852105 Z" stroke-linejoin="bevel" stroke-miterlimit="10" stroke-width="2"/><path fill="#1f77b4" stroke="none" paint-order="stroke fill markers" d=" M 118.26578947368421 107.76735450031046 L 119.78684210526316 107.76735450031046 L 119.78684210526316 107.76735450031046 L 118.26578947368421 107.76735450031046 L 118.26578947368421 107.76735450031046 Z"/><path fill="none" stroke="#7C0000" paint-order="fill stroke markers" d=" M 118.26578947368421 107.76735450031046 L 119.78684210526316 107.76735450031046 L 119.78684210526316 107.76735450031046 L 118.26578947368421 107.76735450031046 L 118.26578947368421 107.76735450031046 Z" stroke-linejoin="bevel" stroke-miterlimit="10" stroke-width="2"/><path fill="#1f77b4" stroke="none" paint-order="stroke fill markers" d=" M 133.4763157894737 209.89399544974606 L 134.9973684210526 209.89399544974606 L 134.9973684210526 209.89399544974606 L 133.4763157894737 209.89399544974606 L 133.4763157894737 209.89399544974606 Z"/><path fill="none" stroke="#7C0000" paint-order="fill stroke markers" d=" M 133.4763157894737 209.89399544974606 L 134.9973684210526 209.89399544974606 L 134.9973684210526 209.89399544974606 L 133.4763157894737 209.89399544974606 L 133.4763157894737 209.89399544974606 Z" stroke-linejoin="bevel" stroke-miterlimit="10" stroke-width="2"/><path fill="#1f77b4" stroke="none" paint-order="stroke fill markers" d=" M 148.68684210526317 161.3939650499458 L 150.2078947368421 161.3939650499458 L 150.2078947368421 161.3939650499458 L 148.68684210526317 161.3939650499458 L 148.68684210526317 161.3939650499458 Z"/><path fill="none" stroke="#7C0000" paint-order="fill stroke markers" d=" M 148.68684210526317 161.3939650499458 L 150.2078947368421 161.3939650499458 L 150.2078947368421 161.3939650499458 L 148.68684210526317 161.3939650499458 L 148.68684210526317 161.3939650499458 Z" stroke-linejoin="bevel" stroke-miterlimit="10" stroke-width="2"/><path fill="#1f77b4" stroke="none" paint-order="stroke fill markers" d=" M 163.89736842105265 157.06633530056752 L 165.41842105263157 157.06633530056752 L 165.41842105263157 157.06633530056752 L 163.89736842105265 157.06633530056752 L 163.89736842105265 157.06633530056752 Z"/><path fill="none" stroke="#7C0000" paint-order="fill stroke markers" d=" M 163.89736842105265 157.06633530056752 L 165.41842105263157 157.06633530056752 L 165.41842105263157 157.06633530056752 L 163.89736842105265 157.06633530056752 L 163.89736842105265 157.06633530056752 Z" stroke-linejoin="bevel" stroke-miterlimit="10" stroke-width="2"/><path fill="#1f77b4" stroke="none" paint-order="stroke fill markers" d=" M 179.10789473684213 42.73426440311033 L 180.62894736842105 42.73426440311033 L 180.62894736842105 42.73426440311033 L 179.10789473684213 42.73426440311033 L 179.10789473684213 42.73426440311033 Z"/><path fill="none" stroke="#7C0000" paint-order="fill stroke markers" d=" M 179.10789473684213 42.73426440311033 L 180.62894736842105 42.73426440311033 L 180.62894736842105 42.73426440311033 L 179.10789473684213 42.73426440311033 L 179.10789473684213 42.73426440311033 Z" stroke-linejoin="bevel" stroke-miterlimit="10" stroke-width="2"/><path fill="#1f77b4" stroke="none" paint-order="stroke fill markers" d=" M 194.31842105263158 169.08227673822566 L 195.8394736842105 169.08227673822566 L 195.8394736842105 169.08227673822566 L 194.31842105263158 169.08227673822566 L 194.31842105263158 169.08227673822566 Z"/><path fill="none" stroke="#7C0000" paint-order="fill stroke markers" d=" M 194.31842105263158 169.08227673822566 L 195.8394736842105 169.08227673822566 L 195.8394736842105 169.08227673822566 L 194.31842105263158 169.08227673822566 L 194.31842105263158 169.08227673822566 Z" stroke-linejoin="bevel" stroke-miterlimit="10" stroke-width="2"/><path fill="#1f77b4" stroke="none" paint-order="stroke fill markers" d=" M 209.52894736842103 147.9115580449062 L 211.05 147.9115580449062 L 211.05 147.9115580449062 L 209.52894736842103 147.9115580449062 L 209.52894736842103 147.9115580449062 Z"/><path fill="none" stroke="#7C0000" paint-order="fill stroke markers" d=" M 209.52894736842103 147.9115580449062 L 211.05 147.9115580449062 L 211.05 147.9115580449062 L 209.52894736842103 147.9115580449062 L 209.52894736842103 147.9115580449062 Z" stroke-linejoin="bevel" stroke-miterlimit="10" stroke-width="2"/><path fill="#1f77b4" stroke="none" paint-order="stroke fill markers" d=" M 224.7394736842105 105.59519256731963 L 226.2605263157895 105.59519256731963 L 226.2605263157895 105.59519256731963 L 224.7394736842105 105.59519256731963 L 224.7394736842105 105.59519256731963 Z"/><path fill="none" stroke="#7C0000" paint-order="fill stroke markers" d=" M 224.7394736842105 105.59519256731963 L 226.2605263157895 105.59519256731963 L 226.2605263157895 105.59519256731963 L 224.7394736842105 105.59519256731963 L 224.7394736842105 105.59519256731963 Z" stroke-linejoin="bevel" stroke-miterlimit="10" stroke-width="2"/><path fill="#1f77b4" stroke="none" paint-order="stroke fill markers" d=" M 239.95 220.0564626675021 L 241.47105263157897 220.0564626675021 L 241.47105263157897 220.0564626675021 L 239.95 220.0564626675021 L 239.95 220.0564626675021 Z"/><path fill="none" stroke="#7C0000" paint-order="fill stroke markers" d=" M 239.95 220.0564626675021 L 241.47105263157897 220.0564626675021 L 241.47105263157897 220.0564626675021 L 239.95 220.0564626675021 L 239.95 220.0564626675021 Z" stroke-linejoin="bevel" stroke-miterlimit="10" stroke-width="2"/><path fill="#1f77b4" stroke="none" paint-order="stroke fill markers" d=" M 255.16052631578947 185.9050443197429 L 256.68157894736845 185.9050443197429 L 256.68157894736845 185.9050443197429 L 255.16052631578947 185.9050443197429 L 255.16052631578947 185.9050443197429 Z"/><path fill="none" stroke="#7C0000" paint-order="fill stroke markers" d=" M 255.16052631578947 185.9050443197429 L 256.68157894736845 185.9050443197429 L 256.68157894736845 185.9050443197429 L 255.16052631578947 185.9050443197429 L 255.16052631578947 185.9050443197429 Z" stroke-linejoin="bevel" stroke-miterlimit="10" stroke-width="2"/><path fill="#1f77b4" stroke="none" paint-order="stroke fill markers" d=" M 270.371052631579 186.175425975768 L 271.8921052631579 186.175425975768 L 271.8921052631579 186.175425975768 L 270.371052631579 186.175425975768 L 270.371052631579 186.175425975768 Z"/><path fill="none" stroke="#7C0000" paint-order="fill stroke markers" d=" M 270.371052631579 186.175425975768 L 271.8921052631579 186.175425975768 L 271.8921052631579 186.175425975768 L 270.371052631579 186.175425975768 L 270.371052631579 186.175425975768 Z" stroke-linejoin="bevel" stroke-miterlimit="10" stroke-width="2"/><path fill="#1f77b4" stroke="none" paint-order="stroke fill markers" d=" M 285.5815789473685 182.03534279483773 L 287.10263157894735 182.03534279483773 L 287.10263157894735 182.03534279483773 L 285.5815789473685 182.03534279483773 L 285.5815789473685 182.03534279483773 Z"/><path fill="none" stroke="#7C0000" paint-order="fill stroke markers" d=" M 285.5815789473685 182.03534279483773 L 287.10263157894735 182.03534279483773 L 287.10263157894735 182.03534279483773 L 285.5815789473685 182.03534279483773 L 285.5815789473685 182.03534279483773 Z" stroke-linejoin="bevel" stroke-miterlimit="10" stroke-width="2"/><path fill="#1f77b4" stroke="none" paint-order="stroke fill markers" d=" M 300.79210526315796 196.49652969469275 L 302.31315789473683 196.49652969469275 L 302.31315789473683 196.49652969469275 L 300.79210526315796 196.49652969469275 L 300.79210526315796 196.49652969469275 Z"/><path fill="none" stroke="#7C0000" paint-order="fill stroke markers" d=" M 300.79210526315796 196.49652969469275 L 302.31315789473683 196.49652969469275 L 302.31315789473683 196.49652969469275 L 300.79210526315796 196.49652969469275 L 300.79210526315796 196.49652969469275 Z" stroke-linejoin="bevel" stroke-miterlimit="10" stroke-width="2"/><path fill="#1f77b4" stroke="none" paint-order="stroke fill markers" d=" M 316.0026315789474 230.36173681548547 L 317.52368421052637 230.36173681548547 L 317.52368421052637 230.36173681548547 L 316.0026315789474 230.36173681548547 L 316.0026315789474 230.36173681548547 Z"/><path fill="none" stroke="#7C0000" paint-order="fill stroke markers" d=" M 316.0026315789474 230.36173681548547 L 317.52368421052637 230.36173681548547 L 317.52368421052637 230.36173681548547 L 316.0026315789474 230.36173681548547 L 316.0026315789474 230.36173681548547 Z" stroke-linejoin="bevel" stroke-miterlimit="10" stroke-width="2"/><path fill="#1f77b4" stroke="none" paint-order="stroke fill markers" d=" M 331.21315789473687 201.1705639754598 L 332.73421052631585 201.1705639754598 L 332.73421052631585 201.1705639754598 L 331.21315789473687 201.1705639754598 L 331.21315789473687 201.1705639754598 Z"/><path fill="none" stroke="#7C0000" paint-order="fill stroke markers" d=" M 331.21315789473687 201.1705639754598 L 332.73421052631585 201.1705639754598 L 332.73421052631585 201.1705639754598 L 331.21315789473687 201.1705639754598 L 331.21315789473687 201.1705639754598 Z" stroke-linejoin="bevel" stroke-miterlimit="10" stroke-width="2"/><path fill="#1f77b4" stroke="none" paint-order="stroke fill markers" d=" M 346.4236842105263 243.70006880269625 L 347.94473684210527 243.70006880269625 L 347.94473684210527 243.70006880269625 L 346.4236842105263 243.70006880269625 L 346.4236842105263 243.70006880269625 Z"/><path fill="none" stroke="#7C0000" paint-order="fill stroke markers" d=" M 346.4236842105263 243.70006880269625 L 347.94473684210527 243.70006880269625 L 347.94473684210527 243.70006880269625 L 346.4236842105263 243.70006880269625 L 346.4236842105263 243.70006880269625 Z" stroke-linejoin="bevel" stroke-miterlimit="10" stroke-width="2"/><path fill="#1f77b4" stroke="none" paint-order="stroke fill markers" d=" M 361.63421052631577 89.02284874761676 L 363.15526315789475 89.02284874761676 L 363.15526315789475 89.02284874761676 L 361.63421052631577 89.02284874761676 L 361.63421052631577 89.02284874761676 Z"/><path fill="none" stroke="#7C0000" paint-order="fill stroke markers" d=" M 361.63421052631577 89.02284874761676 L 363.15526315789475 89.02284874761676 L 363.15526315789475 89.02284874761676 L 361.63421052631577 89.02284874761676 L 361.63421052631577 89.02284874761676 Z" stroke-linejoin="bevel" stroke-miterlimit="10" stroke-width="2"/></g></g></g><g clip-path="url(#fhouuJWDJICq)"><g><g><path fill="none" stroke="none"/><path fill="#1f77b4" stroke="none" paint-order="stroke fill markers" d=" M 87.84473684210526 275.9999293257624 L 89.36578947368422 275.9999293257624 L 89.36578947368422 275.9999293257624 L 87.84473684210526 275.9999293257624 L 87.84473684210526 275.9999293257624 Z"/><path fill="none" stroke="#7C0000" paint-order="fill stroke markers" d=" M 87.84473684210526 275.9999293257624 L 89.36578947368422 275.9999293257624 L 89.36578947368422 275.9999293257624 L 87.84473684210526 275.9999293257624 L 87.84473684210526 275.9999293257624 Z" stroke-linejoin="bevel" stroke-miterlimit="10" stroke-width="2"/><path fill="#1f77b4" stroke="none" paint-order="stroke fill markers" d=" M 103.05526315789474 275.99997358758 L 104.5763157894737 275.99997358758 L 104.5763157894737 275.99997358758 L 103.05526315789474 275.99997358758 L 103.05526315789474 275.99997358758 Z"/><path fill="none" stroke="#7C0000" paint-order="fill stroke markers" d=" M 103.05526315789474 275.99997358758 L 104.5763157894737 275.99997358758 L 104.5763157894737 275.99997358758 L 103.05526315789474 275.99997358758 L 103.05526315789474 275.99997358758 Z" stroke-linejoin="bevel" stroke-miterlimit="10" stroke-width="2"/><path fill="#1f77b4" stroke="none" paint-order="stroke fill markers" d=" M 118.26578947368421 275.9903048478948 L 119.78684210526316 275.9903048478948 L 119.78684210526316 275.9903048478948 L 118.26578947368421 275.9903048478948 L 118.26578947368421 275.9903048478948 Z"/><path fill="none" stroke="#7C0000" paint-order="fill stroke markers" d=" M 118.26578947368421 275.9903048478948 L 119.78684210526316 275.9903048478948 L 119.78684210526316 275.9903048478948 L 118.26578947368421 275.9903048478948 L 118.26578947368421 275.9903048478948 Z" stroke-linejoin="bevel" stroke-miterlimit="10" stroke-width="2"/><path fill="#1f77b4" stroke="none" paint-order="stroke fill markers" d=" M 133.4763157894737 275.99999759921343 L 134.9973684210526 275.99999759921343 L 134.9973684210526 275.99999759921343 L 133.4763157894737 275.99999759921343 L 133.4763157894737 275.99999759921343 Z"/><path fill="none" stroke="#7C0000" paint-order="fill stroke markers" d=" M 133.4763157894737 275.99999759921343 L 134.9973684210526 275.99999759921343 L 134.9973684210526 275.99999759921343 L 133.4763157894737 275.99999759921343 L 133.4763157894737 275.99999759921343 Z" stroke-linejoin="bevel" stroke-miterlimit="10" stroke-width="2"/><path fill="#1f77b4" stroke="none" paint-order="stroke fill markers" d=" M 148.68684210526317 275.9737347025512 L 150.2078947368421 275.9737347025512 L 150.2078947368421 275.9737347025512 L 148.68684210526317 275.9737347025512 L 148.68684210526317 275.9737347025512 Z"/><path fill="none" stroke="#7C0000" paint-order="fill stroke markers" d=" M 148.68684210526317 275.9737347025512 L 150.2078947368421 275.9737347025512 L 150.2078947368421 275.9737347025512 L 148.68684210526317 275.9737347025512 L 148.68684210526317 275.9737347025512 Z" stroke-linejoin="bevel" stroke-miterlimit="10" stroke-width="2"/><path fill="#1f77b4" stroke="none" paint-order="stroke fill markers" d=" M 163.89736842105265 275.9961521602546 L 165.41842105263157 275.9961521602546 L 165.41842105263157 275.9961521602546 L 163.89736842105265 275.9961521602546 L 163.89736842105265 275.9961521602546 Z"/><path fill="none" stroke="#7C0000" paint-order="fill stroke markers" d=" M 163.89736842105265 275.9961521602546 L 165.41842105263157 275.9961521602546 L 165.41842105263157 275.9961521602546 L 163.89736842105265 275.9961521602546 L 163.89736842105265 275.9961521602546 Z" stroke-linejoin="bevel" stroke-miterlimit="10" stroke-width="2"/><path fill="#1f77b4" stroke="none" paint-order="stroke fill markers" d=" M 179.10789473684213 275.9995984294734 L 180.62894736842105 275.9995984294734 L 180.62894736842105 275.9995984294734 L 179.10789473684213 275.9995984294734 L 179.10789473684213 275.9995984294734 Z"/><path fill="none" stroke="#7C0000" paint-order="fill stroke markers" d=" M 179.10789473684213 275.9995984294734 L 180.62894736842105 275.9995984294734 L 180.62894736842105 275.9995984294734 L 179.10789473684213 275.9995984294734 L 179.10789473684213 275.9995984294734 Z" stroke-linejoin="bevel" stroke-miterlimit="10" stroke-width="2"/><path fill="#1f77b4" stroke="none" paint-order="stroke fill markers" d=" M 194.31842105263158 275.9999955427984 L 195.8394736842105 275.9999955427984 L 195.8394736842105 275.9999955427984 L 194.31842105263158 275.9999955427984 L 194.31842105263158 275.9999955427984 Z"/><path fill="none" stroke="#7C0000" paint-order="fill stroke markers" d=" M 194.31842105263158 275.9999955427984 L 195.8394736842105 275.9999955427984 L 195.8394736842105 275.9999955427984 L 194.31842105263158 275.9999955427984 L 194.31842105263158 275.9999955427984 Z" stroke-linejoin="bevel" stroke-miterlimit="10" stroke-width="2"/><path fill="#1f77b4" stroke="none" paint-order="stroke fill markers" d=" M 209.52894736842103 275.9998692677822 L 211.05 275.9998692677822 L 211.05 275.9998692677822 L 209.52894736842103 275.9998692677822 L 209.52894736842103 275.9998692677822 Z"/><path fill="none" stroke="#7C0000" paint-order="fill stroke markers" d=" M 209.52894736842103 275.9998692677822 L 211.05 275.9998692677822 L 211.05 275.9998692677822 L 209.52894736842103 275.9998692677822 L 209.52894736842103 275.9998692677822 Z" stroke-linejoin="bevel" stroke-miterlimit="10" stroke-width="2"/><path fill="#1f77b4" stroke="none" paint-order="stroke fill markers" d=" M 224.7394736842105 275.7559932295239 L 226.2605263157895 275.7559932295239 L 226.2605263157895 275.7559932295239 L 224.7394736842105 275.7559932295239 L 224.7394736842105 275.7559932295239 Z"/><path fill="none" stroke="#7C0000" paint-order="fill stroke markers" d=" M 224.7394736842105 275.7559932295239 L 226.2605263157895 275.7559932295239 L 226.2605263157895 275.7559932295239 L 224.7394736842105 275.7559932295239 L 224.7394736842105 275.7559932295239 Z" stroke-linejoin="bevel" stroke-miterlimit="10" stroke-width="2"/><path fill="#1f77b4" stroke="none" paint-order="stroke fill markers" d=" M 239.95 275.99999601477776 L 241.47105263157897 275.99999601477776 L 241.47105263157897 275.99999601477776 L 239.95 275.99999601477776 L 239.95 275.99999601477776 Z"/><path fill="none" stroke="#7C0000" paint-order="fill stroke markers" d=" M 239.95 275.99999601477776 L 241.47105263157897 275.99999601477776 L 241.47105263157897 275.99999601477776 L 239.95 275.99999601477776 L 239.95 275.99999601477776 Z" stroke-linejoin="bevel" stroke-miterlimit="10" stroke-width="2"/><path fill="#1f77b4" stroke="none" paint-order="stroke fill markers" d=" M 255.16052631578947 275.99718361204447 L 256.68157894736845 275.99718361204447 L 256.68157894736845 275.99718361204447 L 255.16052631578947 275.99718361204447 L 255.16052631578947 275.99718361204447 Z"/><path fill="none" stroke="#7C0000" paint-order="fill stroke markers" d=" M 255.16052631578947 275.99718361204447 L 256.68157894736845 275.99718361204447 L 256.68157894736845 275.99718361204447 L 255.16052631578947 275.99718361204447 L 255.16052631578947 275.99718361204447 Z" stroke-linejoin="bevel" stroke-miterlimit="10" stroke-width="2"/><path fill="#1f77b4" stroke="none" paint-order="stroke fill markers" d=" M 270.371052631579 275.99999982930046 L 271.8921052631579 275.99999982930046 L 271.8921052631579 275.99999982930046 L 270.371052631579 275.99999982930046 L 270.371052631579 275.99999982930046 Z"/><path fill="none" stroke="#7C0000" paint-order="fill stroke markers" d=" M 270.371052631579 275.99999982930046 L 271.8921052631579 275.99999982930046 L 271.8921052631579 275.99999982930046 L 270.371052631579 275.99999982930046 L 270.371052631579 275.99999982930046 Z" stroke-linejoin="bevel" stroke-miterlimit="10" stroke-width="2"/><path fill="#1f77b4" stroke="none" paint-order="stroke fill markers" d=" M 285.5815789473685 275.96531956197873 L 287.10263157894735 275.96531956197873 L 287.10263157894735 275.96531956197873 L 285.5815789473685 275.96531956197873 L 285.5815789473685 275.96531956197873 Z"/><path fill="none" stroke="#7C0000" paint-order="fill stroke markers" d=" M 285.5815789473685 275.96531956197873 L 287.10263157894735 275.96531956197873 L 287.10263157894735 275.96531956197873 L 285.5815789473685 275.96531956197873 L 285.5815789473685 275.96531956197873 Z" stroke-linejoin="bevel" stroke-miterlimit="10" stroke-width="2"/><path fill="#1f77b4" stroke="none" paint-order="stroke fill markers" d=" M 300.79210526315796 275.99716964833823 L 302.31315789473683 275.99716964833823 L 302.31315789473683 275.99716964833823 L 300.79210526315796 275.99716964833823 L 300.79210526315796 275.99716964833823 Z"/><path fill="none" stroke="#7C0000" paint-order="fill stroke markers" d=" M 300.79210526315796 275.99716964833823 L 302.31315789473683 275.99716964833823 L 302.31315789473683 275.99716964833823 L 300.79210526315796 275.99716964833823 L 300.79210526315796 275.99716964833823 Z" stroke-linejoin="bevel" stroke-miterlimit="10" stroke-width="2"/><path fill="#1f77b4" stroke="none" paint-order="stroke fill markers" d=" M 316.0026315789474 275.9997334151359 L 317.52368421052637 275.9997334151359 L 317.52368421052637 275.9997334151359 L 316.0026315789474 275.9997334151359 L 316.0026315789474 275.9997334151359 Z"/><path fill="none" stroke="#7C0000" paint-order="fill stroke markers" d=" M 316.0026315789474 275.9997334151359 L 317.52368421052637 275.9997334151359 L 317.52368421052637 275.9997334151359 L 316.0026315789474 275.9997334151359 L 316.0026315789474 275.9997334151359 Z" stroke-linejoin="bevel" stroke-miterlimit="10" stroke-width="2"/><path fill="#1f77b4" stroke="none" paint-order="stroke fill markers" d=" M 331.21315789473687 275.986897651296 L 332.73421052631585 275.986897651296 L 332.73421052631585 275.986897651296 L 331.21315789473687 275.986897651296 L 331.21315789473687 275.986897651296 Z"/><path fill="none" stroke="#7C0000" paint-order="fill stroke markers" d=" M 331.21315789473687 275.986897651296 L 332.73421052631585 275.986897651296 L 332.73421052631585 275.986897651296 L 331.21315789473687 275.986897651296 L 331.21315789473687 275.986897651296 Z" stroke-linejoin="bevel" stroke-miterlimit="10" stroke-width="2"/><path fill="#1f77b4" stroke="none" paint-order="stroke fill markers" d=" M 346.4236842105263 275.9978693920874 L 347.94473684210527 275.9978693920874 L 347.94473684210527 275.9978693920874 L 346.4236842105263 275.9978693920874 L 346.4236842105263 275.9978693920874 Z"/><path fill="none" stroke="#7C0000" paint-order="fill stroke markers" d=" M 346.4236842105263 275.9978693920874 L 347.94473684210527 275.9978693920874 L 347.94473684210527 275.9978693920874 L 346.4236842105263 275.9978693920874 L 346.4236842105263 275.9978693920874 Z" stroke-linejoin="bevel" stroke-miterlimit="10" stroke-width="2"/><path fill="#1f77b4" stroke="none" paint-order="stroke fill markers" d=" M 361.63421052631577 275.99989311224226 L 363.15526315789475 275.99989311224226 L 363.15526315789475 275.99989311224226 L 361.63421052631577 275.99989311224226 L 361.63421052631577 275.99989311224226 Z"/><path fill="none" stroke="#7C0000" paint-order="fill stroke markers" d=" M 361.63421052631577 275.99989311224226 L 363.15526315789475 275.99989311224226 L 363.15526315789475 275.99989311224226 L 361.63421052631577 275.99989311224226 L 361.63421052631577 275.99989311224226 Z" stroke-linejoin="bevel" stroke-miterlimit="10" stroke-width="2"/></g></g></g><g clip-path="url(#yvUEAmHTBSEm)"><g><g><path fill="none" stroke="none"/><path fill="#7C0000" stroke="none" paint-order="stroke fill markers" d=" M 85.56315789473685 240.48927717657216 L 91.64736842105263 240.48927717657216 L 91.64736842105263 272.0827738399082 L 85.56315789473685 272.0827738399082 L 85.56315789473685 240.48927717657216 Z"/><path fill="#7C0000" stroke="none" paint-order="stroke fill markers" d=" M 100.77368421052633 231.802159363702 L 106.85789473684211 231.802159363702 L 106.85789473684211 271.3661825565196 L 100.77368421052633 271.3661825565196 L 100.77368421052633 231.802159363702 Z"/><path fill="#7C0000" stroke="none" paint-order="stroke fill markers" d=" M 115.98421052631579 184.15763077344081 L 122.06842105263158 184.15763077344081 L 122.06842105263158 264.89293091061063 L 115.98421052631579 264.89293091061063 L 115.98421052631579 184.15763077344081 Z"/><path fill="#7C0000" stroke="none" paint-order="stroke fill markers" d=" M 131.19473684210527 246.54431521080477 L 137.27894736842103 246.54431521080477 L 137.27894736842103 273.1714619059419 L 131.19473684210527 273.1714619059419 L 131.19473684210527 246.54431521080477 Z"/><path fill="#7C0000" stroke="none" paint-order="stroke fill markers" d=" M 146.40526315789475 225.04597234664163 L 152.4894736842105 225.04597234664163 L 152.4894736842105 270.77023148261424 L 146.40526315789475 270.77023148261424 L 146.40526315789475 225.04597234664163 Z"/><path fill="#7C0000" stroke="none" paint-order="stroke fill markers" d=" M 161.61578947368423 225.41103920926503 L 167.7 225.41103920926503 L 167.7 273.73927871555014 L 161.61578947368423 273.73927871555014 L 161.61578947368423 225.41103920926503 Z"/><path fill="#7C0000" stroke="none" paint-order="stroke fill markers" d=" M 176.8263157894737 175.6691850048419 L 182.91052631578947 175.6691850048419 L 182.91052631578947 271.5221598435176 L 176.8263157894737 271.5221598435176 L 176.8263157894737 175.6691850048419 Z"/><path fill="#7C0000" stroke="none" paint-order="stroke fill markers" d=" M 192.03684210526313 227.91939522611455 L 198.12105263157895 227.91939522611455 L 198.12105263157895 269.40019080996814 L 192.03684210526313 269.40019080996814 L 192.03684210526313 227.91939522611455 Z"/><path fill="#7C0000" stroke="none" paint-order="stroke fill markers" d=" M 207.2473684210526 211.91126621356818 L 213.33157894736843 211.91126621356818 L 213.33157894736843 269.004341060653 L 207.2473684210526 269.004341060653 L 207.2473684210526 211.91126621356818 Z"/><path fill="#7C0000" stroke="none" paint-order="stroke fill markers" d=" M 222.45789473684212 196.80194652610794 L 228.54210526315788 196.80194652610794 L 228.54210526315788 265.2218466646226 L 222.45789473684212 265.2218466646226 L 222.45789473684212 196.80194652610794 Z"/><path fill="#7C0000" stroke="none" paint-order="stroke fill markers" d=" M 237.6684210526316 247.43321153683192 L 243.75263157894736 247.43321153683192 L 243.75263157894736 271.4971883117643 L 237.6684210526316 271.4971883117643 L 237.6684210526316 247.43321153683192 Z"/><path fill="#7C0000" stroke="none" paint-order="stroke fill markers" d=" M 252.8789473684211 234.58364173618006 L 258.9631578947368 234.58364173618006 L 258.9631578947368 273.83522052712846 L 252.8789473684211 273.83522052712846 L 252.8789473684211 234.58364173618006 Z"/><path fill="#7C0000" stroke="none" paint-order="stroke fill markers" d=" M 268.0894736842106 237.54557488613057 L 274.1736842105263 237.54557488613057 L 274.1736842105263 273.60873382633764 L 268.0894736842106 273.60873382633764 L 268.0894736842106 237.54557488613057 Z"/><path fill="#7C0000" stroke="none" paint-order="stroke fill markers" d=" M 283.30000000000007 232.01659597925055 L 289.38421052631577 232.01659597925055 L 289.38421052631577 268.6471024643747 L 283.30000000000007 268.6471024643747 L 283.30000000000007 232.01659597925055 Z"/><path fill="#7C0000" stroke="none" paint-order="stroke fill markers" d=" M 298.51052631578955 240.8125222480114 L 304.59473684210525 240.8125222480114 L 304.59473684210525 271.0933828726926 L 298.51052631578955 271.0933828726926 L 298.51052631578955 240.8125222480114 Z"/><path fill="#7C0000" stroke="none" paint-order="stroke fill markers" d=" M 313.721052631579 256.3429927897943 L 319.80526315789473 256.3429927897943 L 319.80526315789473 274.7857603344739 L 313.721052631579 274.7857603344739 L 313.721052631579 256.3429927897943 Z"/><path fill="#7C0000" stroke="none" paint-order="stroke fill markers" d=" M 328.9315789473685 239.37570828487117 L 335.0157894736842 239.37570828487117 L 335.0157894736842 269.1973646327949 L 328.9315789473685 269.1973646327949 L 328.9315789473685 239.37570828487117 Z"/><path fill="#7C0000" stroke="none" paint-order="stroke fill markers" d=" M 344.1421052631579 260.23852569173806 L 350.2263157894737 260.23852569173806 L 350.2263157894737 275.1579964852077 L 344.1421052631579 275.1579964852077 L 344.1421052631579 260.23852569173806 Z"/><path fill="#7C0000" stroke="none" paint-order="stroke fill markers" d=" M 359.35263157894735 181.46642984192027 L 365.43684210526317 181.46642984192027 L 365.43684210526317 263.4880823755326 L 359.35263157894735 263.4880823755326 L 359.35263157894735 181.46642984192027 Z"/></g></g></g><g clip-path="url(#yfZWEXTFTEaD)"><g><g><path fill="none" stroke="none"/><path fill="#1f77b4" stroke="none" paint-order="stroke fill markers" d=" M 85.56315789473685 261.84441026944575 L 91.64736842105263 261.84441026944575 L 91.64736842105263 261.84441026944575 L 85.56315789473685 261.84441026944575 L 85.56315789473685 261.84441026944575 Z"/><path fill="none" stroke="white" paint-order="fill stroke markers" d=" M 85.56315789473685 261.84441026944575 L 91.64736842105263 261.84441026944575 L 91.64736842105263 261.84441026944575 L 85.56315789473685 261.84441026944575 L 85.56315789473685 261.84441026944575 Z" stroke-linejoin="bevel" stroke-miterlimit="10"/><path fill="#1f77b4" stroke="none" paint-order="stroke fill markers" d=" M 100.77368421052633 256.88445224535155 L 106.85789473684211 256.88445224535155 L 106.85789473684211 256.88445224535155 L 100.77368421052633 256.88445224535155 L 100.77368421052633 256.88445224535155 Z"/><path fill="none" stroke="white" paint-order="fill stroke markers" d=" M 100.77368421052633 256.88445224535155 L 106.85789473684211 256.88445224535155 L 106.85789473684211 256.88445224535155 L 100.77368421052633 256.88445224535155 L 100.77368421052633 256.88445224535155 Z" stroke-linejoin="bevel" stroke-miterlimit="10"/><path fill="#1f77b4" stroke="none" paint-order="stroke fill markers" d=" M 115.98421052631579 236.69969919628446 L 122.06842105263158 236.69969919628446 L 122.06842105263158 236.69969919628446 L 115.98421052631579 236.69969919628446 L 115.98421052631579 236.69969919628446 Z"/><path fill="none" stroke="white" paint-order="fill stroke markers" d=" M 115.98421052631579 236.69969919628446 L 122.06842105263158 236.69969919628446 L 122.06842105263158 236.69969919628446 L 115.98421052631579 236.69969919628446 L 115.98421052631579 236.69969919628446 Z" stroke-linejoin="bevel" stroke-miterlimit="10"/><path fill="#1f77b4" stroke="none" paint-order="stroke fill markers" d=" M 131.19473684210527 262.8578788436393 L 137.27894736842103 262.8578788436393 L 137.27894736842103 262.8578788436393 L 131.19473684210527 262.8578788436393 L 131.19473684210527 262.8578788436393 Z"/><path fill="none" stroke="white" paint-order="fill stroke markers" d=" M 131.19473684210527 262.8578788436393 L 137.27894736842103 262.8578788436393 L 137.27894736842103 262.8578788436393 L 131.19473684210527 262.8578788436393 L 131.19473684210527 262.8578788436393 Z" stroke-linejoin="bevel" stroke-miterlimit="10"/><path fill="#1f77b4" stroke="none" paint-order="stroke fill markers" d=" M 146.40526315789475 257.47091312350966 L 152.4894736842105 257.47091312350966 L 152.4894736842105 257.47091312350966 L 146.40526315789475 257.47091312350966 L 146.40526315789475 257.47091312350966 Z"/><path fill="none" stroke="white" paint-order="fill stroke markers" d=" M 146.40526315789475 257.47091312350966 L 152.4894736842105 257.47091312350966 L 152.4894736842105 257.47091312350966 L 146.40526315789475 257.47091312350966 L 146.40526315789475 257.47091312350966 Z" stroke-linejoin="bevel" stroke-miterlimit="10"/><path fill="#1f77b4" stroke="none" paint-order="stroke fill markers" d=" M 161.61578947368423 264.2345568025528 L 167.7 264.2345568025528 L 167.7 264.2345568025528 L 161.61578947368423 264.2345568025528 L 161.61578947368423 264.2345568025528 Z"/><path fill="none" stroke="white" paint-order="fill stroke markers" d=" M 161.61578947368423 264.2345568025528 L 167.7 264.2345568025528 L 167.7 264.2345568025528 L 161.61578947368423 264.2345568025528 L 161.61578947368423 264.2345568025528 Z" stroke-linejoin="bevel" stroke-miterlimit="10"/><path fill="#1f77b4" stroke="none" paint-order="stroke fill markers" d=" M 176.8263157894737 249.13760199059016 L 182.91052631578947 249.13760199059016 L 182.91052631578947 249.13760199059016 L 176.8263157894737 249.13760199059016 L 176.8263157894737 249.13760199059016 Z"/><path fill="none" stroke="white" paint-order="fill stroke markers" d=" M 176.8263157894737 249.13760199059016 L 182.91052631578947 249.13760199059016 L 182.91052631578947 249.13760199059016 L 176.8263157894737 249.13760199059016 L 176.8263157894737 249.13760199059016 Z" stroke-linejoin="bevel" stroke-miterlimit="10"/><path fill="#1f77b4" stroke="none" paint-order="stroke fill markers" d=" M 192.03684210526313 250.1122352008081 L 198.12105263157895 250.1122352008081 L 198.12105263157895 250.1122352008081 L 192.03684210526313 250.1122352008081 L 192.03684210526313 250.1122352008081 Z"/><path fill="none" stroke="white" paint-order="fill stroke markers" d=" M 192.03684210526313 250.1122352008081 L 198.12105263157895 250.1122352008081 L 198.12105263157895 250.1122352008081 L 192.03684210526313 250.1122352008081 L 192.03684210526313 250.1122352008081 Z" stroke-linejoin="bevel" stroke-miterlimit="10"/><path fill="#1f77b4" stroke="none" paint-order="stroke fill markers" d=" M 207.2473684210526 247.0513313310585 L 213.33157894736843 247.0513313310585 L 213.33157894736843 247.0513313310585 L 207.2473684210526 247.0513313310585 L 207.2473684210526 247.0513313310585 Z"/><path fill="none" stroke="white" paint-order="fill stroke markers" d=" M 207.2473684210526 247.0513313310585 L 213.33157894736843 247.0513313310585 L 213.33157894736843 247.0513313310585 L 207.2473684210526 247.0513313310585 L 207.2473684210526 247.0513313310585 Z" stroke-linejoin="bevel" stroke-miterlimit="10"/><path fill="#1f77b4" stroke="none" paint-order="stroke fill markers" d=" M 222.45789473684212 242.02998026660208 L 228.54210526315788 242.02998026660208 L 228.54210526315788 242.02998026660208 L 222.45789473684212 242.02998026660208 L 222.45789473684212 242.02998026660208 Z"/><path fill="none" stroke="white" paint-order="fill stroke markers" d=" M 222.45789473684212 242.02998026660208 L 228.54210526315788 242.02998026660208 L 228.54210526315788 242.02998026660208 L 222.45789473684212 242.02998026660208 L 222.45789473684212 242.02998026660208 Z" stroke-linejoin="bevel" stroke-miterlimit="10"/><path fill="#1f77b4" stroke="none" paint-order="stroke fill markers" d=" M 237.6684210526316 262.39393456995515 L 243.75263157894736 262.39393456995515 L 243.75263157894736 262.39393456995515 L 237.6684210526316 262.39393456995515 L 237.6684210526316 262.39393456995515 Z"/><path fill="none" stroke="white" paint-order="fill stroke markers" d=" M 237.6684210526316 262.39393456995515 L 243.75263157894736 262.39393456995515 L 243.75263157894736 262.39393456995515 L 237.6684210526316 262.39393456995515 L 237.6684210526316 262.39393456995515 Z" stroke-linejoin="bevel" stroke-miterlimit="10"/><path fill="#1f77b4" stroke="none" paint-order="stroke fill markers" d=" M 252.8789473684211 267.4439410085733 L 258.9631578947368 267.4439410085733 L 258.9631578947368 267.4439410085733 L 252.8789473684211 267.4439410085733 L 252.8789473684211 267.4439410085733 Z"/><path fill="none" stroke="white" paint-order="fill stroke markers" d=" M 252.8789473684211 267.4439410085733 L 258.9631578947368 267.4439410085733 L 258.9631578947368 267.4439410085733 L 252.8789473684211 267.4439410085733 L 252.8789473684211 267.4439410085733 Z" stroke-linejoin="bevel" stroke-miterlimit="10"/><path fill="#1f77b4" stroke="none" paint-order="stroke fill markers" d=" M 268.0894736842106 266.6400142598309 L 274.1736842105263 266.6400142598309 L 274.1736842105263 266.6400142598309 L 268.0894736842106 266.6400142598309 L 268.0894736842106 266.6400142598309 Z"/><path fill="none" stroke="white" paint-order="fill stroke markers" d=" M 268.0894736842106 266.6400142598309 L 274.1736842105263 266.6400142598309 L 274.1736842105263 266.6400142598309 L 268.0894736842106 266.6400142598309 L 268.0894736842106 266.6400142598309 Z" stroke-linejoin="bevel" stroke-miterlimit="10"/><path fill="#1f77b4" stroke="none" paint-order="stroke fill markers" d=" M 283.30000000000007 255.38374827324358 L 289.38421052631577 255.38374827324358 L 289.38421052631577 255.38374827324358 L 283.30000000000007 255.38374827324358 L 283.30000000000007 255.38374827324358 Z"/><path fill="none" stroke="white" paint-order="fill stroke markers" d=" M 283.30000000000007 255.38374827324358 L 289.38421052631577 255.38374827324358 L 289.38421052631577 255.38374827324358 L 283.30000000000007 255.38374827324358 L 283.30000000000007 255.38374827324358 Z" stroke-linejoin="bevel" stroke-miterlimit="10"/><path fill="#1f77b4" stroke="none" paint-order="stroke fill markers" d=" M 298.51052631578955 258.7456328274909 L 304.59473684210525 258.7456328274909 L 304.59473684210525 258.7456328274909 L 298.51052631578955 258.7456328274909 L 298.51052631578955 258.7456328274909 Z"/><path fill="none" stroke="white" paint-order="fill stroke markers" d=" M 298.51052631578955 258.7456328274909 L 304.59473684210525 258.7456328274909 L 304.59473684210525 258.7456328274909 L 298.51052631578955 258.7456328274909 L 298.51052631578955 258.7456328274909 Z" stroke-linejoin="bevel" stroke-miterlimit="10"/><path fill="#1f77b4" stroke="none" paint-order="stroke fill markers" d=" M 313.721052631579 269.84406503989214 L 319.80526315789473 269.84406503989214 L 319.80526315789473 269.84406503989214 L 313.721052631579 269.84406503989214 L 313.721052631579 269.84406503989214 Z"/><path fill="none" stroke="white" paint-order="fill stroke markers" d=" M 313.721052631579 269.84406503989214 L 319.80526315789473 269.84406503989214 L 319.80526315789473 269.84406503989214 L 313.721052631579 269.84406503989214 L 313.721052631579 269.84406503989214 Z" stroke-linejoin="bevel" stroke-miterlimit="10"/><path fill="#1f77b4" stroke="none" paint-order="stroke fill markers" d=" M 328.9315789473685 258.93545495728057 L 335.0157894736842 258.93545495728057 L 335.0157894736842 258.93545495728057 L 328.9315789473685 258.93545495728057 L 328.9315789473685 258.93545495728057 Z"/><path fill="none" stroke="white" paint-order="fill stroke markers" d=" M 328.9315789473685 258.93545495728057 L 335.0157894736842 258.93545495728057 L 335.0157894736842 258.93545495728057 L 328.9315789473685 258.93545495728057 L 328.9315789473685 258.93545495728057 Z" stroke-linejoin="bevel" stroke-miterlimit="10"/><path fill="#1f77b4" stroke="none" paint-order="stroke fill markers" d=" M 344.1421052631579 270.2446458701162 L 350.2263157894737 270.2446458701162 L 350.2263157894737 270.2446458701162 L 344.1421052631579 270.2446458701162 L 344.1421052631579 270.2446458701162 Z"/><path fill="none" stroke="white" paint-order="fill stroke markers" d=" M 344.1421052631579 270.2446458701162 L 350.2263157894737 270.2446458701162 L 350.2263157894737 270.2446458701162 L 344.1421052631579 270.2446458701162 L 344.1421052631579 270.2446458701162 Z" stroke-linejoin="bevel" stroke-miterlimit="10"/><path fill="#1f77b4" stroke="none" paint-order="stroke fill markers" d=" M 359.35263157894735 231.6875801812976 L 365.43684210526317 231.6875801812976 L 365.43684210526317 231.6875801812976 L 359.35263157894735 231.6875801812976 L 359.35263157894735 231.6875801812976 Z"/><path fill="none" stroke="white" paint-order="fill stroke markers" d=" M 359.35263157894735 231.6875801812976 L 365.43684210526317 231.6875801812976 L 365.43684210526317 231.6875801812976 L 359.35263157894735 231.6875801812976 L 359.35263157894735 231.6875801812976 Z" stroke-linejoin="bevel" stroke-miterlimit="10"/></g></g></g><g><g fill="#444444"><path fill="" stroke="none" d=""/><g transform="translate(81,24)"><path fill="none" stroke="none"/><text fill="" stroke="none" font-family="helvetica" font-size="10pt" font-style="normal" font-weight="bold" text-decoration="normal" x="0" y="0" text-anchor="start" dominant-baseline="text-after-edge">linear residuals squared</text></g></g></g><g/><g><g fill="black"><path fill="none" stroke="white" paint-order="fill stroke markers" d=" M 81 276 L 370 276" stroke-linejoin="bevel" stroke-miterlimit="10"/><path fill="none" stroke="black" paint-order="fill stroke markers" d=" M 89 282 L 89 274" stroke-linejoin="bevel" stroke-miterlimit="10"/><path fill="none" stroke="black" paint-order="fill stroke markers" d=" M 104 282 L 104 274" stroke-linejoin="bevel" stroke-miterlimit="10"/><path fill="none" stroke="black" paint-order="fill stroke markers" d=" M 119 282 L 119 274" stroke-linejoin="bevel" stroke-miterlimit="10"/><path fill="none" stroke="black" paint-order="fill stroke markers" d=" M 134 282 L 134 274" stroke-linejoin="bevel" stroke-miterlimit="10"/><path fill="none" stroke="black" paint-order="fill stroke markers" d=" M 149 282 L 149 274" stroke-linejoin="bevel" stroke-miterlimit="10"/><path fill="none" stroke="black" paint-order="fill stroke markers" d=" M 165 282 L 165 274" stroke-linejoin="bevel" stroke-miterlimit="10"/><path fill="none" stroke="black" paint-order="fill stroke markers" d=" M 180 282 L 180 274" stroke-linejoin="bevel" stroke-miterlimit="10"/><path fill="none" stroke="black" paint-order="fill stroke markers" d=" M 195 282 L 195 274" stroke-linejoin="bevel" stroke-miterlimit="10"/><path fill="none" stroke="black" paint-order="fill stroke markers" d=" M 210 282 L 210 274" stroke-linejoin="bevel" stroke-miterlimit="10"/><path fill="none" stroke="black" paint-order="fill stroke markers" d=" M 226 282 L 226 274" stroke-linejoin="bevel" stroke-miterlimit="10"/><path fill="none" stroke="black" paint-order="fill stroke markers" d=" M 241 282 L 241 274" stroke-linejoin="bevel" stroke-miterlimit="10"/><path fill="none" stroke="black" paint-order="fill stroke markers" d=" M 256 282 L 256 274" stroke-linejoin="bevel" stroke-miterlimit="10"/><path fill="none" stroke="black" paint-order="fill stroke markers" d=" M 271 282 L 271 274" stroke-linejoin="bevel" stroke-miterlimit="10"/><path fill="none" stroke="black" paint-order="fill stroke markers" d=" M 286 282 L 286 274" stroke-linejoin="bevel" stroke-miterlimit="10"/><path fill="none" stroke="black" paint-order="fill stroke markers" d=" M 302 282 L 302 274" stroke-linejoin="bevel" stroke-miterlimit="10"/><path fill="none" stroke="black" paint-order="fill stroke markers" d=" M 317 282 L 317 274" stroke-linejoin="bevel" stroke-miterlimit="10"/><path fill="none" stroke="black" paint-order="fill stroke markers" d=" M 332 282 L 332 274" stroke-linejoin="bevel" stroke-miterlimit="10"/><path fill="none" stroke="black" paint-order="fill stroke markers" d=" M 347 282 L 347 274" stroke-linejoin="bevel" stroke-miterlimit="10"/><path fill="" stroke="black" paint-order="fill stroke markers" d=" M 362 282 L 362 274" stroke-linejoin="bevel" stroke-miterlimit="10"/><g transform="translate(89,287) rotate(0,0,0)"><text fill="" stroke="none" font-family="helvetica" font-size="8pt" font-style="normal" font-weight="normal" text-decoration="normal" x="0" y="0" text-anchor="middle" dominant-baseline="hanging">0</text><g transform="rotate(0,0,0) translate(-89,-287) translate(104,287) rotate(0,0,0)"><text fill="" stroke="none" font-family="helvetica" font-size="8pt" font-style="normal" font-weight="normal" text-decoration="normal" x="0" y="0" text-anchor="middle" dominant-baseline="hanging">1</text><g transform="rotate(0,0,0) translate(-104,-287) translate(119,287) rotate(0,0,0)"><text fill="" stroke="none" font-family="helvetica" font-size="8pt" font-style="normal" font-weight="normal" text-decoration="normal" x="0" y="0" text-anchor="middle" dominant-baseline="hanging">2</text><g transform="rotate(0,0,0) translate(-119,-287) translate(134,287) rotate(0,0,0)"><text fill="" stroke="none" font-family="helvetica" font-size="8pt" font-style="normal" font-weight="normal" text-decoration="normal" x="0" y="0" text-anchor="middle" dominant-baseline="hanging">3</text><g transform="rotate(0,0,0) translate(-134,-287) translate(149,287) rotate(0,0,0)"><text fill="" stroke="none" font-family="helvetica" font-size="8pt" font-style="normal" font-weight="normal" text-decoration="normal" x="0" y="0" text-anchor="middle" dominant-baseline="hanging">4</text><g transform="rotate(0,0,0) translate(-149,-287) translate(165,287) rotate(0,0,0)"><text fill="" stroke="none" font-family="helvetica" font-size="8pt" font-style="normal" font-weight="normal" text-decoration="normal" x="0" y="0" text-anchor="middle" dominant-baseline="hanging">5</text><g transform="rotate(0,0,0) translate(-165,-287) translate(180,287) rotate(0,0,0)"><text fill="" stroke="none" font-family="helvetica" font-size="8pt" font-style="normal" font-weight="normal" text-decoration="normal" x="0" y="0" text-anchor="middle" dominant-baseline="hanging">6</text><g transform="rotate(0,0,0) translate(-180,-287) translate(195,287) rotate(0,0,0)"><text fill="" stroke="none" font-family="helvetica" font-size="8pt" font-style="normal" font-weight="normal" text-decoration="normal" x="0" y="0" text-anchor="middle" dominant-baseline="hanging">7</text><g transform="rotate(0,0,0) translate(-195,-287) translate(210,287) rotate(0,0,0)"><text fill="" stroke="none" font-family="helvetica" font-size="8pt" font-style="normal" font-weight="normal" text-decoration="normal" x="0" y="0" text-anchor="middle" dominant-baseline="hanging">9</text><g transform="rotate(0,0,0) translate(-210,-287) translate(226,287) rotate(0,0,0)"><text fill="" stroke="none" font-family="helvetica" font-size="8pt" font-style="normal" font-weight="normal" text-decoration="normal" x="0" y="0" text-anchor="middle" dominant-baseline="hanging">10</text><g transform="rotate(0,0,0) translate(-226,-287) translate(241,287) rotate(0,0,0)"><text fill="" stroke="none" font-family="helvetica" font-size="8pt" font-style="normal" font-weight="normal" text-decoration="normal" x="0" y="0" text-anchor="middle" dominant-baseline="hanging">11</text><g transform="rotate(0,0,0) translate(-241,-287) translate(256,287) rotate(0,0,0)"><text fill="" stroke="none" font-family="helvetica" font-size="8pt" font-style="normal" font-weight="normal" text-decoration="normal" x="0" y="0" text-anchor="middle" dominant-baseline="hanging">12</text><g transform="rotate(0,0,0) translate(-256,-287) translate(271,287) rotate(0,0,0)"><text fill="" stroke="none" font-family="helvetica" font-size="8pt" font-style="normal" font-weight="normal" text-decoration="normal" x="0" y="0" text-anchor="middle" dominant-baseline="hanging">13</text><g transform="rotate(0,0,0) translate(-271,-287) translate(286,287) rotate(0,0,0)"><text fill="" stroke="none" font-family="helvetica" font-size="8pt" font-style="normal" font-weight="normal" text-decoration="normal" x="0" y="0" text-anchor="middle" dominant-baseline="hanging">14</text><g transform="rotate(0,0,0) translate(-286,-287) translate(302,287) rotate(0,0,0)"><text fill="" stroke="none" font-family="helvetica" font-size="8pt" font-style="normal" font-weight="normal" text-decoration="normal" x="0" y="0" text-anchor="middle" dominant-baseline="hanging">15</text><g transform="rotate(0,0,0) translate(-302,-287) translate(317,287) rotate(0,0,0)"><text fill="" stroke="none" font-family="helvetica" font-size="8pt" font-style="normal" font-weight="normal" text-decoration="normal" x="0" y="0" text-anchor="middle" dominant-baseline="hanging">16</text><g transform="rotate(0,0,0) translate(-317,-287) translate(332,287) rotate(0,0,0)"><text fill="" stroke="none" font-family="helvetica" font-size="8pt" font-style="normal" font-weight="normal" text-decoration="normal" x="0" y="0" text-anchor="middle" dominant-baseline="hanging">17</text><g transform="rotate(0,0,0) translate(-332,-287) translate(347,287) rotate(0,0,0)"><text fill="" stroke="none" font-family="helvetica" font-size="8pt" font-style="normal" font-weight="normal" text-decoration="normal" x="0" y="0" text-anchor="middle" dominant-baseline="hanging">18</text><g transform="rotate(0,0,0) translate(-347,-287) translate(362,287) rotate(0,0,0)"><text fill="" stroke="none" font-family="helvetica" font-size="8pt" font-style="normal" font-weight="normal" text-decoration="normal" x="0" y="0" text-anchor="middle" dominant-baseline="hanging">19</text><g transform="rotate(0,0,0) translate(-362,-287)"/></g></g></g></g></g></g></g></g></g></g></g></g></g></g></g></g></g></g></g></g></g><g><g fill="black"><path fill="none" stroke="white" paint-order="fill stroke markers" d=" M 81 276 L 81 29" stroke-linejoin="bevel" stroke-miterlimit="10"/><path fill="none" stroke="black" paint-order="fill stroke markers" d=" M 75 276 L 83 276" stroke-linejoin="bevel" stroke-miterlimit="10"/><path fill="none" stroke="black" paint-order="fill stroke markers" d=" M 75 245 L 83 245" stroke-linejoin="bevel" stroke-miterlimit="10"/><path fill="none" stroke="black" paint-order="fill stroke markers" d=" M 75 214 L 83 214" stroke-linejoin="bevel" stroke-miterlimit="10"/><path fill="none" stroke="black" paint-order="fill stroke markers" d=" M 75 183 L 83 183" stroke-linejoin="bevel" stroke-miterlimit="10"/><path fill="none" stroke="black" paint-order="fill stroke markers" d=" M 75 153 L 83 153" stroke-linejoin="bevel" stroke-miterlimit="10"/><path fill="none" stroke="black" paint-order="fill stroke markers" d=" M 75 122 L 83 122" stroke-linejoin="bevel" stroke-miterlimit="10"/><path fill="none" stroke="black" paint-order="fill stroke markers" d=" M 75 91 L 83 91" stroke-linejoin="bevel" stroke-miterlimit="10"/><path fill="none" stroke="black" paint-order="fill stroke markers" d=" M 75 60 L 83 60" stroke-linejoin="bevel" stroke-miterlimit="10"/><path fill="none" stroke="black" paint-order="fill stroke markers" d=" M 75 29 L 83 29" stroke-linejoin="bevel" stroke-miterlimit="10"/><path fill="none" stroke="black" paint-order="fill stroke markers" d=" M 77 276 L 81 276" stroke-linejoin="bevel" stroke-miterlimit="10"/><path fill="none" stroke="black" paint-order="fill stroke markers" d=" M 77 270 L 81 270" stroke-linejoin="bevel" stroke-miterlimit="10"/><path fill="none" stroke="black" paint-order="fill stroke markers" d=" M 77 264 L 81 264" stroke-linejoin="bevel" stroke-miterlimit="10"/><path fill="none" stroke="black" paint-order="fill stroke markers" d=" M 77 257 L 81 257" stroke-linejoin="bevel" stroke-miterlimit="10"/><path fill="none" stroke="black" paint-order="fill stroke markers" d=" M 77 251 L 81 251" stroke-linejoin="bevel" stroke-miterlimit="10"/><path fill="none" stroke="black" paint-order="fill stroke markers" d=" M 77 245 L 81 245" stroke-linejoin="bevel" stroke-miterlimit="10"/><path fill="none" stroke="black" paint-order="fill stroke markers" d=" M 77 239 L 81 239" stroke-linejoin="bevel" stroke-miterlimit="10"/><path fill="none" stroke="black" paint-order="fill stroke markers" d=" M 77 233 L 81 233" stroke-linejoin="bevel" stroke-miterlimit="10"/><path fill="none" stroke="black" paint-order="fill stroke markers" d=" M 77 227 L 81 227" stroke-linejoin="bevel" stroke-miterlimit="10"/><path fill="none" stroke="black" paint-order="fill stroke markers" d=" M 77 220 L 81 220" stroke-linejoin="bevel" stroke-miterlimit="10"/><path fill="none" stroke="black" paint-order="fill stroke markers" d=" M 77 214 L 81 214" stroke-linejoin="bevel" stroke-miterlimit="10"/><path fill="none" stroke="black" paint-order="fill stroke markers" d=" M 77 208 L 81 208" stroke-linejoin="bevel" stroke-miterlimit="10"/><path fill="none" stroke="black" paint-order="fill stroke markers" d=" M 77 202 L 81 202" stroke-linejoin="bevel" stroke-miterlimit="10"/><path fill="none" stroke="black" paint-order="fill stroke markers" d=" M 77 196 L 81 196" stroke-linejoin="bevel" stroke-miterlimit="10"/><path fill="none" stroke="black" paint-order="fill stroke markers" d=" M 77 190 L 81 190" stroke-linejoin="bevel" stroke-miterlimit="10"/><path fill="none" stroke="black" paint-order="fill stroke markers" d=" M 77 183 L 81 183" stroke-linejoin="bevel" stroke-miterlimit="10"/><path fill="none" stroke="black" paint-order="fill stroke markers" d=" M 77 177 L 81 177" stroke-linejoin="bevel" stroke-miterlimit="10"/><path fill="none" stroke="black" paint-order="fill stroke markers" d=" M 77 171 L 81 171" stroke-linejoin="bevel" stroke-miterlimit="10"/><path fill="none" stroke="black" paint-order="fill stroke markers" d=" M 77 165 L 81 165" stroke-linejoin="bevel" stroke-miterlimit="10"/><path fill="none" stroke="black" paint-order="fill stroke markers" d=" M 77 159 L 81 159" stroke-linejoin="bevel" stroke-miterlimit="10"/><path fill="none" stroke="black" paint-order="fill stroke markers" d=" M 77 153 L 81 153" stroke-linejoin="bevel" stroke-miterlimit="10"/><path fill="none" stroke="black" paint-order="fill stroke markers" d=" M 77 146 L 81 146" stroke-linejoin="bevel" stroke-miterlimit="10"/><path fill="none" stroke="black" paint-order="fill stroke markers" d=" M 77 140 L 81 140" stroke-linejoin="bevel" stroke-miterlimit="10"/><path fill="none" stroke="black" paint-order="fill stroke markers" d=" M 77 134 L 81 134" stroke-linejoin="bevel" stroke-miterlimit="10"/><path fill="none" stroke="black" paint-order="fill stroke markers" d=" M 77 128 L 81 128" stroke-linejoin="bevel" stroke-miterlimit="10"/><path fill="none" stroke="black" paint-order="fill stroke markers" d=" M 77 122 L 81 122" stroke-linejoin="bevel" stroke-miterlimit="10"/><path fill="none" stroke="black" paint-order="fill stroke markers" d=" M 77 115 L 81 115" stroke-linejoin="bevel" stroke-miterlimit="10"/><path fill="none" stroke="black" paint-order="fill stroke markers" d=" M 77 109 L 81 109" stroke-linejoin="bevel" stroke-miterlimit="10"/><path fill="none" stroke="black" paint-order="fill stroke markers" d=" M 77 103 L 81 103" stroke-linejoin="bevel" stroke-miterlimit="10"/><path fill="none" stroke="black" paint-order="fill stroke markers" d=" M 77 97 L 81 97" stroke-linejoin="bevel" stroke-miterlimit="10"/><path fill="none" stroke="black" paint-order="fill stroke markers" d=" M 77 91 L 81 91" stroke-linejoin="bevel" stroke-miterlimit="10"/><path fill="none" stroke="black" paint-order="fill stroke markers" d=" M 77 85 L 81 85" stroke-linejoin="bevel" stroke-miterlimit="10"/><path fill="none" stroke="black" paint-order="fill stroke markers" d=" M 77 78 L 81 78" stroke-linejoin="bevel" stroke-miterlimit="10"/><path fill="none" stroke="black" paint-order="fill stroke markers" d=" M 77 72 L 81 72" stroke-linejoin="bevel" stroke-miterlimit="10"/><path fill="none" stroke="black" paint-order="fill stroke markers" d=" M 77 66 L 81 66" stroke-linejoin="bevel" stroke-miterlimit="10"/><path fill="none" stroke="black" paint-order="fill stroke markers" d=" M 77 60 L 81 60" stroke-linejoin="bevel" stroke-miterlimit="10"/><path fill="none" stroke="black" paint-order="fill stroke markers" d=" M 77 54 L 81 54" stroke-linejoin="bevel" stroke-miterlimit="10"/><path fill="none" stroke="black" paint-order="fill stroke markers" d=" M 77 48 L 81 48" stroke-linejoin="bevel" stroke-miterlimit="10"/><path fill="none" stroke="black" paint-order="fill stroke markers" d=" M 77 41 L 81 41" stroke-linejoin="bevel" stroke-miterlimit="10"/><path fill="none" stroke="black" paint-order="fill stroke markers" d=" M 77 35 L 81 35" stroke-linejoin="bevel" stroke-miterlimit="10"/><path fill="" stroke="black" paint-order="fill stroke markers" d=" M 77 29 L 81 29" stroke-linejoin="bevel" stroke-miterlimit="10"/><g transform="translate(70,276) rotate(0,0,0)"><text fill="" stroke="none" font-family="helvetica" font-size="8pt" font-style="normal" font-weight="normal" text-decoration="normal" x="0" y="0" text-anchor="end" dominant-baseline="central">0.000e+0</text><g transform="rotate(0,0,0) translate(-70,-276) translate(70,245) rotate(0,0,0)"><text fill="" stroke="none" font-family="helvetica" font-size="8pt" font-style="normal" font-weight="normal" text-decoration="normal" x="0" y="0" text-anchor="end" dominant-baseline="central">5.000e-4</text><g transform="rotate(0,0,0) translate(-70,-245) translate(70,214) rotate(0,0,0)"><text fill="" stroke="none" font-family="helvetica" font-size="8pt" font-style="normal" font-weight="normal" text-decoration="normal" x="0" y="0" text-anchor="end" dominant-baseline="central">1.000e-3</text><g transform="rotate(0,0,0) translate(-70,-214) translate(70,183) rotate(0,0,0)"><text fill="" stroke="none" font-family="helvetica" font-size="8pt" font-style="normal" font-weight="normal" text-decoration="normal" x="0" y="0" text-anchor="end" dominant-baseline="central">1.500e-3</text><g transform="rotate(0,0,0) translate(-70,-183) translate(70,153) rotate(0,0,0)"><text fill="" stroke="none" font-family="helvetica" font-size="8pt" font-style="normal" font-weight="normal" text-decoration="normal" x="0" y="0" text-anchor="end" dominant-baseline="central">2.000e-3</text><g transform="rotate(0,0,0) translate(-70,-153) translate(70,122) rotate(0,0,0)"><text fill="" stroke="none" font-family="helvetica" font-size="8pt" font-style="normal" font-weight="normal" text-decoration="normal" x="0" y="0" text-anchor="end" dominant-baseline="central">2.500e-3</text><g transform="rotate(0,0,0) translate(-70,-122) translate(70,91) rotate(0,0,0)"><text fill="" stroke="none" font-family="helvetica" font-size="8pt" font-style="normal" font-weight="normal" text-decoration="normal" x="0" y="0" text-anchor="end" dominant-baseline="central">3.000e-3</text><g transform="rotate(0,0,0) translate(-70,-91) translate(70,60) rotate(0,0,0)"><text fill="" stroke="none" font-family="helvetica" font-size="8pt" font-style="normal" font-weight="normal" text-decoration="normal" x="0" y="0" text-anchor="end" dominant-baseline="central">3.500e-3</text><g transform="rotate(0,0,0) translate(-70,-60) translate(70,29) rotate(0,0,0)"><text fill="" stroke="none" font-family="helvetica" font-size="8pt" font-style="normal" font-weight="normal" text-decoration="normal" x="0" y="0" text-anchor="end" dominant-baseline="central">4.000e-3</text><g transform="rotate(0,0,0) translate(-70,-29) translate(16,153) rotate(-90,0,0)"><text fill="" stroke="none" font-family="helvetica" font-size="10pt" font-style="italic" font-weight="normal" text-decoration="normal" x="0" y="0" text-anchor="middle" dominant-baseline="alphabetic">linear resid^2</text><g transform="rotate(90,0,0) translate(-16,-153)"/></g></g></g></g></g></g></g></g></g></g></g></g><g clip-path="url(#MAMDNCgnnttS)"><g/></g></g></g></svg>