<svg version="1.1" xmlns="http://www.w3.org/2000/svg" xmlns:xlink="http://www.w3.org/1999/xlink" width="400" height="300" style="width: 400px; height: 300px;"><defs><clipPath id="WDMeJgZQmLab"><path fill="none" stroke="none" d=" M 48 29 L 370 29 L 370 255 L 48 255 L 48 29 Z"/></clipPath><clipPath id="DnETHOZkivGG"><path fill="none" stroke="none" d=" M 48 29 L 370 29 L 370 255 L 48 255 L 48 29 Z"/></clipPath><clipPath id="NuKygdyuqRJh"><path fill="none" stroke="none" d=" M 48 29 L 370 29 L 370 255 L 48 255 L 48 29 Z"/></clipPath><clipPath id="UHVpIqhTwSVB"><path fill="none" stroke="none" d=" M 48 29 L 370 29 L 370 255 L 48 255 L 48 29 Z"/></clipPath><clipPath id="LSVOGezPiTmI"><path fill="none" stroke="none" d=" M 48 29 L 370 29 L 370 255 L 48 255 L 48 29 Z"/></clipPath><clipPath id="UHrTgKToIdVB"><path fill="none" stroke="none" d=" M 48 29 L 370 29 L 370 255 L 48 255 L 48 29 Z"/></clipPath><clipPath id="nlnpOtooOezW"><path fill="none" stroke="none" d=" M 48 29 L 370 29 L 370 255 L 48 255 L 48 29 Z"/></clipPath><clipPath id="UILomnkQTMAS"><path fill="none" stroke="none" d=" M 48 29 L 370 29 L 370 255 L 48 255 L 48 29 Z"/></clipPath><clipPath id="oHJcqPdJoIWF"><path fill="none" stroke="none" d=" M 48 29 L 370 29 L 370 255 L 48 255 L 48 29 Z"/></clipPath><clipPath id="AKTNkJcAwWtK"><path fill="none" stroke="none" d=" M 48 29 L 370 29 L 370 255 L 48 255 L 48 29 Z"/></clipPath></defs><g><g transform="scale(1,1) translate(0.5,0.5)"><rect fill="#FFFFFF" stroke="none" x="0" y="0" width="400" height="300"/><rect fill="white" stroke="none" x="0" y="0" width="400" height="300"/><rect fill="#FFFFFF" stroke="none" x="48" y="29" width="322" height="226"/><rect fill="snow" stroke="none" x="48" y="29" width="322" height="226"/><g><rect fill="none" stroke="white" x="48" y="29" width="322" height="226" stroke-linejoin="bevel" stroke-miterlimit="10"/></g><g clip-path="url(#WDMeJgZQmLab)"><g><g><path fill="none" stroke="white" paint-order="fill stroke markers" d=" M 57 255 L 57 29" stroke-linejoin="bevel" stroke-miterlimit="10"/><path fill="none" stroke="white" paint-order="fill stroke markers" d=" M 66 255 L 66 29" stroke-linejoin="bevel" stroke-miterlimit="10"/><path fill="none" stroke="white" paint-order="fill stroke markers" d=" M 76 255 L 76 29" stroke-linejoin="bevel" stroke-miterlimit="10"/><path fill="none" stroke="white" paint-order="fill stroke markers" d=" M 85 255 L 85 29" stroke-linejoin="bevel" stroke-miterlimit="10"/><path fill="none" stroke="white" paint-order="fill stroke markers" d=" M 94 255 L 94 29" stroke-linejoin="bevel" stroke-miterlimit="10"/><path fill="none" stroke="white" paint-order="fill stroke markers" d=" M 103 255 L 103 29" stroke-linejoin="bevel" stroke-miterlimit="10"/><path fill="none" stroke="white" paint-order="fill stroke markers" d=" M 112 255 L 112 29" stroke-linejoin="bevel" stroke-miterlimit="10"/><path fill="none" stroke="white" paint-order="fill stroke markers" d=" M 122 255 L 122 29" stroke-linejoin="bevel" stroke-miterlimit="10"/><path fill="none" stroke="white" paint-order="fill stroke markers" d=" M 131 255 L 131 29" stroke-linejoin="bevel" stroke-miterlimit="10"/><path fill="none" stroke="white" paint-order="fill stroke markers" d=" M 140 255 L 140 29" stroke-linejoin="bevel" stroke-miterlimit="10"/><path fill="none" stroke="white" paint-order="fill stroke markers" d=" M 149 255 L 149 29" stroke-linejoin="bevel" stroke-miterlimit="10"/><path fill="none" stroke="white" paint-order="fill stroke markers" d=" M 158 255 L 158 29" stroke-linejoin="bevel" stroke-miterlimit="10"/><path fill="none" stroke="white" paint-order="fill stroke markers" d=" M 168 255 L 168 29" stroke-linejoin="bevel" stroke-miterlimit="10"/><path fill="none" stroke="white" paint-order="fill stroke markers" d=" M 177 255 L 177 29" stroke-linejoin="bevel" stroke-miterlimit="10"/><path fill="none" stroke="white" paint-order="fill stroke markers" d=" M 186 255 L 186 29" stroke-linejoin="bevel" stroke-miterlimit="10"/><path fill="none" stroke="white" paint-order="fill stroke markers" d=" M 195 255 L 195 29" stroke-linejoin="bevel" stroke-miterlimit="10"/><path fill="none" stroke="white" paint-order="fill stroke markers" d=" M 204 255 L 204 29" stroke-linejoin="bevel" stroke-miterlimit="10"/><path fill="none" stroke="white" paint-order="fill stroke markers" d=" M 214 255 L 214 29" stroke-linejoin="bevel" stroke-miterlimit="10"/><path fill="none" stroke="white" paint-order="fill stroke markers" d=" M 223 255 L 223 29" stroke-linejoin="bevel" stroke-miterlimit="10"/><path fill="none" stroke="white" paint-order="fill stroke markers" d=" M 232 255 L 232 29" stroke-linejoin="bevel" stroke-miterlimit="10"/><path fill="none" stroke="white" paint-order="fill stroke markers" d=" M 241 255 L 241 29" stroke-linejoin="bevel" stroke-miterlimit="10"/><path fill="none" stroke="white" paint-order="fill stroke markers" d=" M 250 255 L 250 29" stroke-linejoin="bevel" stroke-miterlimit="10"/><path fill="none" stroke="white" paint-order="fill stroke markers" d=" M 260 255 L 260 29" stroke-linejoin="bevel" stroke-miterlimit="10"/><path fill="none" stroke="white" paint-order="fill stroke markers" d=" M 269 255 L 269 29" stroke-linejoin="bevel" stroke-miterlimit="10"/><path fill="none" stroke="white" paint-order="fill stroke markers" d=" M 278 255 L 278 29" stroke-linejoin="bevel" stroke-miterlimit="10"/><path fill="none" stroke="white" paint-order="fill stroke markers" d=" M 287 255 L 287 29" stroke-linejoin="bevel" stroke-miterlimit="10"/><path fill="none" stroke="white" paint-order="fill stroke markers" d=" M 296 255 L 296 29" stroke-linejoin="bevel" stroke-miterlimit="10"/><path fill="none" stroke="white" paint-order="fill stroke markers" d=" M 306 255 L 306 29" stroke-linejoin="bevel" stroke-miterlimit="10"/><path fill="none" stroke="white" paint-order="fill stroke markers" d=" M 315 255 L 315 29" stroke-linejoin="bevel" stroke-miterlimit="10"/><path fill="none" stroke="white" paint-order="fill stroke markers" d=" M 324 255 L 324 29" stroke-linejoin="bevel" stroke-miterlimit="10"/><path fill="none" stroke="white" paint-order="fill stroke markers" d=" M 333 255 L 333 29" stroke-linejoin="bevel" stroke-miterlimit="10"/><path fill="none" stroke="white" paint-order="fill stroke markers" d=" M 342 255 L 342 29" stroke-linejoin="bevel" stroke-miterlimit="10"/><path fill="none" stroke="white" paint-order="fill stroke markers" d=" M 352 255 L 352 29" stroke-linejoin="bevel" stroke-miterlimit="10"/><path fill="none" stroke="white" paint-order="fill stroke markers" d=" M 361 255 L 361 29" stroke-linejoin="bevel" stroke-miterlimit="10"/><path fill="none" stroke="white" paint-order="fill stroke markers" d=" M 94 255 L 94 29" stroke-linejoin="bevel" stroke-miterlimit="10" stroke-opacity="0.2" stroke-dasharray="6,4"/><path fill="none" stroke="white" paint-order="fill stroke markers" d=" M 140 255 L 140 29" stroke-linejoin="bevel" stroke-miterlimit="10" stroke-opacity="0.2" stroke-dasharray="6,4"/><path fill="none" stroke="white" paint-order="fill stroke markers" d=" M 186 255 L 186 29" stroke-linejoin="bevel" stroke-miterlimit="10" stroke-opacity="0.2" stroke-dasharray="6,4"/><path fill="none" stroke="white" paint-order="fill stroke markers" d=" M 232 255 L 232 29" stroke-linejoin="bevel" stroke-miterlimit="10" stroke-opacity="0.2" stroke-dasharray="6,4"/><path fill="none" stroke="white" paint-order="fill stroke markers" d=" M 278 255 L 278 29" stroke-linejoin="bevel" stroke-miterlimit="10" stroke-opacity="0.2" stroke-dasharray="6,4"/><path fill="none" stroke="white" paint-order="fill stroke markers" d=" M 324 255 L 324 29" stroke-linejoin="bevel" stroke-miterlimit="10" stroke-opacity="0.2" stroke-dasharray="6,4"/></g></g></g><g clip-path="url(#DnETHOZkivGG)"><g><g><path fill="none" stroke="white" paint-order="fill stroke markers" d=" M 48 253 L 370 253" stroke-linejoin="bevel" stroke-miterlimit="10"/><path fill="none" stroke="white" paint-order="fill stroke markers" d=" M 48 245 L 370 245" stroke-linejoin="bevel" stroke-miterlimit="10"/><path fill="none" stroke="white" paint-order="fill stroke markers" d=" M 48 237 L 370 237" stroke-linejoin="bevel" stroke-miterlimit="10"/><path fill="none" stroke="white" paint-order="fill stroke markers" d=" M 48 228 L 370 228" stroke-linejoin="bevel" stroke-miterlimit="10"/><path fill="none" stroke="white" paint-order="fill stroke markers" d=" M 48 220 L 370 220" stroke-linejoin="bevel" stroke-miterlimit="10"/><path fill="none" stroke="white" paint-order="fill stroke markers" d=" M 48 212 L 370 212" stroke-linejoin="bevel" stroke-miterlimit="10"/><path fill="none" stroke="white" paint-order="fill stroke markers" d=" M 48 204 L 370 204" stroke-linejoin="bevel" stroke-miterlimit="10"/><path fill="none" stroke="white" paint-order="fill stroke markers" d=" M 48 195 L 370 195" stroke-linejoin="bevel" stroke-miterlimit="10"/><path fill="none" stroke="white" paint-order="fill stroke markers" d=" M 48 187 L 370 187" stroke-linejoin="bevel" stroke-miterlimit="10"/><path fill="none" stroke="white" paint-order="fill stroke markers" d=" M 48 179 L 370 179" stroke-linejoin="bevel" stroke-miterlimit="10"/><path fill="none" stroke="white" paint-order="fill stroke markers" d=" M 48 171 L 370 171" stroke-linejoin="bevel" stroke-miterlimit="10"/><path fill="none" stroke="white" paint-order="fill stroke markers" d=" M 48 163 L 370 163" stroke-linejoin="bevel" stroke-miterlimit="10"/><path fill="none" stroke="white" paint-order="fill stroke markers" d=" M 48 154 L 370 154" stroke-linejoin="bevel" stroke-miterlimit="10"/><path fill="none" stroke="white" paint-order="fill stroke markers" d=" M 48 146 L 370 146" stroke-linejoin="bevel" stroke-miterlimit="10"/><path fill="none" stroke="white" paint-order="fill stroke markers" d=" M 48 138 L 370 138" stroke-linejoin="bevel" stroke-miterlimit="10"/><path fill="none" stroke="white" paint-order="fill stroke markers" d=" M 48 130 L 370 130" stroke-linejoin="bevel" stroke-miterlimit="10"/><path fill="none" stroke="white" paint-order="fill stroke markers" d=" M 48 121 L 370 121" stroke-linejoin="bevel" stroke-miterlimit="10"/><path fill="none" stroke="white" paint-order="fill stroke markers" d=" M 48 113 L 370 113" stroke-linejoin="bevel" stroke-miterlimit="10"/><path fill="none" stroke="white" paint-order="fill stroke markers" d=" M 48 105 L 370 105" stroke-linejoin="bevel" stroke-miterlimit="10"/><path fill="none" stroke="white" paint-order="fill stroke markers" d=" M 48 97 L 370 97" stroke-linejoin="bevel" stroke-miterlimit="10"/><path fill="none" stroke="white" paint-order="fill stroke markers" d=" M 48 89 L 370 89" stroke-linejoin="bevel" stroke-miterlimit="10"/><path fill="none" stroke="white" paint-order="fill stroke markers" d=" M 48 80 L 370 80" stroke-linejoin="bevel" stroke-miterlimit="10"/><path fill="none" stroke="white" paint-order="fill stroke markers" d=" M 48 72 L 370 72" stroke-linejoin="bevel" stroke-miterlimit="10"/><path fill="none" stroke="white" paint-order="fill stroke markers" d=" M 48 64 L 370 64" stroke-linejoin="bevel" stroke-miterlimit="10"/><path fill="none" stroke="white" paint-order="fill stroke markers" d=" M 48 56 L 370 56" stroke-linejoin="bevel" stroke-miterlimit="10"/><path fill="none" stroke="white" paint-order="fill stroke markers" d=" M 48 47 L 370 47" stroke-linejoin="bevel" stroke-miterlimit="10"/><path fill="none" stroke="white" paint-order="fill stroke markers" d=" M 48 39 L 370 39" stroke-linejoin="bevel" stroke-miterlimit="10"/><path fill="none" stroke="white" paint-order="fill stroke markers" d=" M 48 31 L 370 31" stroke-linejoin="bevel" stroke-miterlimit="10"/><path fill="none" stroke="white" paint-order="fill stroke markers" d=" M 48 245 L 370 245" stroke-linejoin="bevel" stroke-miterlimit="10" stroke-opacity="0.2" stroke-dasharray="6,4"/><path fill="none" stroke="white" paint-order="fill stroke markers" d=" M 48 204 L 370 204" stroke-linejoin="bevel" stroke-miterlimit="10" stroke-opacity="0.2" stroke-dasharray="6,4"/><path fill="none" stroke="white" paint-order="fill stroke markers" d=" M 48 163 L 370 163" stroke-linejoin="bevel" stroke-miterlimit="10" stroke-opacity="0.2" stroke-dasharray="6,4"/><path fill="none" stroke="white" paint-order="fill stroke markers" d=" M 48 121 L 370 121" stroke-linejoin="bevel" stroke-miterlimit="10" stroke-opacity="0.2" stroke-dasharray="6,4"/><path fill="none" stroke="white" paint-order="fill stroke markers" d=" M 48 80 L 370 80" stroke-linejoin="bevel" stroke-miterlimit="10" stroke-opacity="0.2" stroke-dasharray="6,4"/><path fill="none" stroke="white" paint-order="fill stroke markers" d=" M 48 39 L 370 39" stroke-linejoin="bevel" stroke-miterlimit="10" stroke-opacity="0.2" stroke-dasharray="6,4"/></g></g></g><g clip-path="url(#NuKygdyuqRJh)"><g><g><path fill="none" stroke="none"/><path fill="none" stroke="#470938" paint-order="fill stroke markers" d=" M 66.39999999999998 233.91387559808612 L 103.19999999999993 233.91387559808612" stroke-linejoin="bevel" stroke-miterlimit="10" stroke-width="2"/><path fill="none" stroke="#470938" paint-order="fill stroke markers" d=" M 103.19999999999993 223.10047846889952 L 130.79999999999995 223.10047846889952" stroke-linejoin="bevel" stroke-miterlimit="10" stroke-width="2"/><path fill="none" stroke="#470938" paint-order="fill stroke markers" d=" M 130.79999999999995 212.28708133971293 L 149.19999999999993 212.28708133971293" stroke-linejoin="bevel" stroke-miterlimit="10" stroke-width="2"/><path fill="none" stroke="#470938" paint-order="fill stroke markers" d=" M 149.19999999999993 201.4736842105263 L 158.39999999999998 201.4736842105263" stroke-linejoin="bevel" stroke-miterlimit="10" stroke-width="2"/><path fill="none" stroke="#470938" paint-order="fill stroke markers" d=" M 158.39999999999998 190.6602870813397 L 176.79999999999995 190.6602870813397" stroke-linejoin="bevel" stroke-miterlimit="10" stroke-width="2"/><path fill="none" stroke="#470938" paint-order="fill stroke markers" d=" M 176.79999999999995 179.8468899521531 L 195.19999999999993 179.8468899521531" stroke-linejoin="bevel" stroke-miterlimit="10" stroke-width="2"/><path fill="none" stroke="#470938" paint-order="fill stroke markers" d=" M 195.19999999999993 169.0334928229665 L 213.5999999999999 169.0334928229665" stroke-linejoin="bevel" stroke-miterlimit="10" stroke-width="2"/><path fill="none" stroke="#470938" paint-order="fill stroke markers" d=" M 213.5999999999999 158.2200956937799 L 213.5999999999999 158.2200956937799" stroke-linejoin="bevel" stroke-miterlimit="10" stroke-width="2"/><path fill="none" stroke="#470938" paint-order="fill stroke markers" d=" M 213.5999999999999 147.4066985645933 L 213.5999999999999 147.4066985645933" stroke-linejoin="bevel" stroke-miterlimit="10" stroke-width="2"/><path fill="none" stroke="#470938" paint-order="fill stroke markers" d=" M 213.5999999999999 136.59330143540672 L 222.79999999999995 136.59330143540672" stroke-linejoin="bevel" stroke-miterlimit="10" stroke-width="2"/><path fill="none" stroke="#470938" paint-order="fill stroke markers" d=" M 222.79999999999995 125.77990430622009 L 222.79999999999995 125.77990430622009" stroke-linejoin="bevel" stroke-miterlimit="10" stroke-width="2"/><path fill="none" stroke="#470938" paint-order="fill stroke markers" d=" M 222.79999999999995 114.96650717703349 L 241.19999999999993 114.96650717703349" stroke-linejoin="bevel" stroke-miterlimit="10" stroke-width="2"/><path fill="none" stroke="#470938" paint-order="fill stroke markers" d=" M 241.19999999999993 104.1531100478469 L 250.39999999999998 104.1531100478469" stroke-linejoin="bevel" stroke-miterlimit="10" stroke-width="2"/><path fill="none" stroke="#470938" paint-order="fill stroke markers" d=" M 250.39999999999998 93.3397129186603 L 268.79999999999995 93.3397129186603" stroke-linejoin="bevel" stroke-miterlimit="10" stroke-width="2"/><path fill="none" stroke="#470938" paint-order="fill stroke markers" d=" M 268.79999999999995 82.5263157894737 L 287.19999999999993 82.5263157894737" stroke-linejoin="bevel" stroke-miterlimit="10" stroke-width="2"/><path fill="none" stroke="#470938" paint-order="fill stroke markers" d=" M 287.19999999999993 71.7129186602871 L 296.4 71.7129186602871" stroke-linejoin="bevel" stroke-miterlimit="10" stroke-width="2"/><path fill="none" stroke="#470938" paint-order="fill stroke markers" d=" M 296.4 60.899521531100476 L 296.4 60.899521531100476" stroke-linejoin="bevel" stroke-miterlimit="10" stroke-width="2"/><path fill="none" stroke="#470938" paint-order="fill stroke markers" d=" M 296.4 50.08612440191391 L 333.19999999999993 50.08612440191391" stroke-linejoin="bevel" stroke-miterlimit="10" stroke-width="2"/></g></g></g><g clip-path="url(#UHVpIqhTwSVB)"><g><g stroke="#470938" stroke-linejoin="bevel" stroke-miterlimit="10" stroke-width="2"><path fill="none" stroke="" d=""/><g transform="translate(66.39999999999998,244.72727272727272) rotate(-180,0,0)"><path fill="none" stroke="" paint-order="fill stroke markers" d=" M 0 0 L 1096 0"/><g transform="rotate(180,0,0) translate(-66.39999999999998,-244.72727272727272)"/></g></g></g></g><g clip-path="url(#LSVOGezPiTmI)"><g><g stroke="#470938" stroke-linejoin="bevel" stroke-miterlimit="10" stroke-width="2"><path fill="none" stroke="" d=""/><g transform="translate(333.19999999999993,39.27272727272728) rotate(0,0,0)"><path fill="none" stroke="" paint-order="fill stroke markers" d=" M 0 0 L 1096 0"/><g transform="rotate(0,0,0) translate(-333.19999999999993,-39.27272727272728)"/></g></g></g></g><g clip-path="url(#UHrTgKToIdVB)"><g><g><path fill="none" stroke="none"/><path fill="#470938" stroke="#470938" paint-order="fill stroke markers" d=" M 68.39999999999998 233.91387559808612 A 2 2 0 1 1 68.39999900000007 233.91187559841944" stroke-linejoin="bevel" stroke-miterlimit="10"/><path fill="#470938" stroke="#470938" paint-order="fill stroke markers" d=" M 105.19999999999993 223.10047846889952 A 2 2 0 1 1 105.19999900000002 223.09847846923284" stroke-linejoin="bevel" stroke-miterlimit="10"/><path fill="#470938" stroke="#470938" paint-order="fill stroke markers" d=" M 132.79999999999995 212.28708133971293 A 2 2 0 1 1 132.79999900000004 212.28508134004625" stroke-linejoin="bevel" stroke-miterlimit="10"/><path fill="#470938" stroke="#470938" paint-order="fill stroke markers" d=" M 151.19999999999993 201.4736842105263 A 2 2 0 1 1 151.19999900000002 201.47168421085962" stroke-linejoin="bevel" stroke-miterlimit="10"/><path fill="#470938" stroke="#470938" paint-order="fill stroke markers" d=" M 160.39999999999998 190.6602870813397 A 2 2 0 1 1 160.39999900000007 190.65828708167302" stroke-linejoin="bevel" stroke-miterlimit="10"/><path fill="#470938" stroke="#470938" paint-order="fill stroke markers" d=" M 178.79999999999995 179.8468899521531 A 2 2 0 1 1 178.79999900000004 179.84488995248643" stroke-linejoin="bevel" stroke-miterlimit="10"/><path fill="#470938" stroke="#470938" paint-order="fill stroke markers" d=" M 197.19999999999993 169.0334928229665 A 2 2 0 1 1 197.19999900000002 169.03149282329983" stroke-linejoin="bevel" stroke-miterlimit="10"/><path fill="#470938" stroke="#470938" paint-order="fill stroke markers" d=" M 215.5999999999999 158.2200956937799 A 2 2 0 1 1 215.599999 158.21809569411323" stroke-linejoin="bevel" stroke-miterlimit="10"/><path fill="#470938" stroke="#470938" paint-order="fill stroke markers" d=" M 215.5999999999999 147.4066985645933 A 2 2 0 1 1 215.599999 147.40469856492663" stroke-linejoin="bevel" stroke-miterlimit="10"/><path fill="#470938" stroke="#470938" paint-order="fill stroke markers" d=" M 215.5999999999999 136.59330143540672 A 2 2 0 1 1 215.599999 136.59130143574004" stroke-linejoin="bevel" stroke-miterlimit="10"/><path fill="#470938" stroke="#470938" paint-order="fill stroke markers" d=" M 224.79999999999995 125.77990430622009 A 2 2 0 1 1 224.79999900000004 125.77790430655342" stroke-linejoin="bevel" stroke-miterlimit="10"/><path fill="#470938" stroke="#470938" paint-order="fill stroke markers" d=" M 224.79999999999995 114.96650717703349 A 2 2 0 1 1 224.79999900000004 114.96450717736683" stroke-linejoin="bevel" stroke-miterlimit="10"/><path fill="#470938" stroke="#470938" paint-order="fill stroke markers" d=" M 243.19999999999993 104.1531100478469 A 2 2 0 1 1 243.19999900000002 104.15111004818023" stroke-linejoin="bevel" stroke-miterlimit="10"/><path fill="#470938" stroke="#470938" paint-order="fill stroke markers" d=" M 252.39999999999998 93.3397129186603 A 2 2 0 1 1 252.39999900000007 93.33771291899363" stroke-linejoin="bevel" stroke-miterlimit="10"/><path fill="#470938" stroke="#470938" paint-order="fill stroke markers" d=" M 270.79999999999995 82.5263157894737 A 2 2 0 1 1 270.799999 82.52431578980703" stroke-linejoin="bevel" stroke-miterlimit="10"/><path fill="#470938" stroke="#470938" paint-order="fill stroke markers" d=" M 289.19999999999993 71.7129186602871 A 2 2 0 1 1 289.199999 71.71091866062044" stroke-linejoin="bevel" stroke-miterlimit="10"/><path fill="#470938" stroke="#470938" paint-order="fill stroke markers" d=" M 298.4 60.899521531100476 A 2 2 0 1 1 298.39999900000004 60.89752153143381" stroke-linejoin="bevel" stroke-miterlimit="10"/><path fill="#470938" stroke="#470938" paint-order="fill stroke markers" d=" M 298.4 50.08612440191391 A 2 2 0 1 1 298.39999900000004 50.08412440224724" stroke-linejoin="bevel" stroke-miterlimit="10"/><path fill="#470938" stroke="#470938" paint-order="fill stroke markers" d=" M 335.19999999999993 39.27272727272728 A 2 2 0 1 1 335.199999 39.270727273060615" stroke-linejoin="bevel" stroke-miterlimit="10"/></g></g></g><g clip-path="url(#nlnpOtooOezW)"><g><g><path fill="none" stroke="none"/></g></g></g><g clip-path="url(#UILomnkQTMAS)"><g><g><path fill="none" stroke="none"/><path fill="white" stroke="#470938" paint-order="fill stroke markers" d=" M 105.19999999999993 233.91387559808612 A 2 2 0 1 1 105.19999900000002 233.91187559841944" stroke-linejoin="bevel" stroke-miterlimit="10"/><path fill="white" stroke="#470938" paint-order="fill stroke markers" d=" M 132.79999999999995 223.10047846889952 A 2 2 0 1 1 132.79999900000004 223.09847846923284" stroke-linejoin="bevel" stroke-miterlimit="10"/><path fill="white" stroke="#470938" paint-order="fill stroke markers" d=" M 151.19999999999993 212.28708133971293 A 2 2 0 1 1 151.19999900000002 212.28508134004625" stroke-linejoin="bevel" stroke-miterlimit="10"/><path fill="white" stroke="#470938" paint-order="fill stroke markers" d=" M 160.39999999999998 201.4736842105263 A 2 2 0 1 1 160.39999900000007 201.47168421085962" stroke-linejoin="bevel" stroke-miterlimit="10"/><path fill="white" stroke="#470938" paint-order="fill stroke markers" d=" M 178.79999999999995 190.6602870813397 A 2 2 0 1 1 178.79999900000004 190.65828708167302" stroke-linejoin="bevel" stroke-miterlimit="10"/><path fill="white" stroke="#470938" paint-order="fill stroke markers" d=" M 197.19999999999993 179.8468899521531 A 2 2 0 1 1 197.19999900000002 179.84488995248643" stroke-linejoin="bevel" stroke-miterlimit="10"/><path fill="white" stroke="#470938" paint-order="fill stroke markers" d=" M 215.5999999999999 169.0334928229665 A 2 2 0 1 1 215.599999 169.03149282329983" stroke-linejoin="bevel" stroke-miterlimit="10"/><path fill="white" stroke="#470938" paint-order="fill stroke markers" d=" M 215.5999999999999 158.2200956937799 A 2 2 0 1 1 215.599999 158.21809569411323" stroke-linejoin="bevel" stroke-miterlimit="10"/><path fill="white" stroke="#470938" paint-order="fill stroke markers" d=" M 215.5999999999999 147.4066985645933 A 2 2 0 1 1 215.599999 147.40469856492663" stroke-linejoin="bevel" stroke-miterlimit="10"/><path fill="white" stroke="#470938" paint-order="fill stroke markers" d=" M 224.79999999999995 136.59330143540672 A 2 2 0 1 1 224.79999900000004 136.59130143574004" stroke-linejoin="bevel" stroke-miterlimit="10"/><path fill="white" stroke="#470938" paint-order="fill stroke markers" d=" M 224.79999999999995 125.77990430622009 A 2 2 0 1 1 224.79999900000004 125.77790430655342" stroke-linejoin="bevel" stroke-miterlimit="10"/><path fill="white" stroke="#470938" paint-order="fill stroke markers" d=" M 243.19999999999993 114.96650717703349 A 2 2 0 1 1 243.19999900000002 114.96450717736683" stroke-linejoin="bevel" stroke-miterlimit="10"/><path fill="white" stroke="#470938" paint-order="fill stroke markers" d=" M 252.39999999999998 104.1531100478469 A 2 2 0 1 1 252.39999900000007 104.15111004818023" stroke-linejoin="bevel" stroke-miterlimit="10"/><path fill="white" stroke="#470938" paint-order="fill stroke markers" d=" M 270.79999999999995 93.3397129186603 A 2 2 0 1 1 270.799999 93.33771291899363" stroke-linejoin="bevel" stroke-miterlimit="10"/><path fill="white" stroke="#470938" paint-order="fill stroke markers" d=" M 289.19999999999993 82.5263157894737 A 2 2 0 1 1 289.199999 82.52431578980703" stroke-linejoin="bevel" stroke-miterlimit="10"/><path fill="white" stroke="#470938" paint-order="fill stroke markers" d=" M 298.4 71.7129186602871 A 2 2 0 1 1 298.39999900000004 71.71091866062044" stroke-linejoin="bevel" stroke-miterlimit="10"/><path fill="white" stroke="#470938" paint-order="fill stroke markers" d=" M 298.4 60.899521531100476 A 2 2 0 1 1 298.39999900000004 60.89752153143381" stroke-linejoin="bevel" stroke-miterlimit="10"/><path fill="white" stroke="#470938" paint-order="fill stroke markers" d=" M 335.19999999999993 50.08612440191391 A 2 2 0 1 1 335.199999 50.08412440224724" stroke-linejoin="bevel" stroke-miterlimit="10"/></g></g></g><g clip-path="url(#oHJcqPdJoIWF)"><g/></g><g><g fill="#444444"><path fill="" stroke="none" d=""/><g transform="translate(48,24)"><path fill="none" stroke="none"/><text fill="" stroke="none" font-family="helvetica" font-size="10pt" font-style="normal" font-weight="bold" text-decoration="normal" x="0" y="0" text-anchor="start" dominant-baseline="text-after-edge">Bacterium 1: Interdivision times</text></g></g></g><g/><g><g fill="black"><path fill="none" stroke="white" paint-order="fill stroke markers" d=" M 48 255 L 370 255" stroke-linejoin="bevel" stroke-miterlimit="10"/><path fill="none" stroke="black" paint-order="fill stroke markers" d=" M 48 261 L 48 253" stroke-linejoin="bevel" stroke-miterlimit="10"/><path fill="none" stroke="black" paint-order="fill stroke markers" d=" M 94 261 L 94 253" stroke-linejoin="bevel" stroke-miterlimit="10"/><path fill="none" stroke="black" paint-order="fill stroke markers" d=" M 140 261 L 140 253" stroke-linejoin="bevel" stroke-miterlimit="10"/><path fill="none" stroke="black" paint-order="fill stroke markers" d=" M 186 261 L 186 253" stroke-linejoin="bevel" stroke-miterlimit="10"/><path fill="none" stroke="black" paint-order="fill stroke markers" d=" M 232 261 L 232 253" stroke-linejoin="bevel" stroke-miterlimit="10"/><path fill="none" stroke="black" paint-order="fill stroke markers" d=" M 278 261 L 278 253" stroke-linejoin="bevel" stroke-miterlimit="10"/><path fill="none" stroke="black" paint-order="fill stroke markers" d=" M 324 261 L 324 253" stroke-linejoin="bevel" stroke-miterlimit="10"/><path fill="none" stroke="black" paint-order="fill stroke markers" d=" M 370 261 L 370 253" stroke-linejoin="bevel" stroke-miterlimit="10"/><path fill="none" stroke="black" paint-order="fill stroke markers" d=" M 48 259 L 48 255" stroke-linejoin="bevel" stroke-miterlimit="10"/><path fill="none" stroke="black" paint-order="fill stroke markers" d=" M 57 259 L 57 255" stroke-linejoin="bevel" stroke-miterlimit="10"/><path fill="none" stroke="black" paint-order="fill stroke markers" d=" M 66 259 L 66 255" stroke-linejoin="bevel" stroke-miterlimit="10"/><path fill="none" stroke="black" paint-order="fill stroke markers" d=" M 76 259 L 76 255" stroke-linejoin="bevel" stroke-miterlimit="10"/><path fill="none" stroke="black" paint-order="fill stroke markers" d=" M 85 259 L 85 255" stroke-linejoin="bevel" stroke-miterlimit="10"/><path fill="none" stroke="black" paint-order="fill stroke markers" d=" M 94 259 L 94 255" stroke-linejoin="bevel" stroke-miterlimit="10"/><path fill="none" stroke="black" paint-order="fill stroke markers" d=" M 103 259 L 103 255" stroke-linejoin="bevel" stroke-miterlimit="10"/><path fill="none" stroke="black" paint-order="fill stroke markers" d=" M 112 259 L 112 255" stroke-linejoin="bevel" stroke-miterlimit="10"/><path fill="none" stroke="black" paint-order="fill stroke markers" d=" M 122 259 L 122 255" stroke-linejoin="bevel" stroke-miterlimit="10"/><path fill="none" stroke="black" paint-order="fill stroke markers" d=" M 131 259 L 131 255" stroke-linejoin="bevel" stroke-miterlimit="10"/><path fill="none" stroke="black" paint-order="fill stroke markers" d=" M 140 259 L 140 255" stroke-linejoin="bevel" stroke-miterlimit="10"/><path fill="none" stroke="black" paint-order="fill stroke markers" d=" M 149 259 L 149 255" stroke-linejoin="bevel" stroke-miterlimit="10"/><path fill="none" stroke="black" paint-order="fill stroke markers" d=" M 158 259 L 158 255" stroke-linejoin="bevel" stroke-miterlimit="10"/><path fill="none" stroke="black" paint-order="fill stroke markers" d=" M 168 259 L 168 255" stroke-linejoin="bevel" stroke-miterlimit="10"/><path fill="none" stroke="black" paint-order="fill stroke markers" d=" M 177 259 L 177 255" stroke-linejoin="bevel" stroke-miterlimit="10"/><path fill="none" stroke="black" paint-order="fill stroke markers" d=" M 186 259 L 186 255" stroke-linejoin="bevel" stroke-miterlimit="10"/><path fill="none" stroke="black" paint-order="fill stroke markers" d=" M 195 259 L 195 255" stroke-linejoin="bevel" stroke-miterlimit="10"/><path fill="none" stroke="black" paint-order="fill stroke markers" d=" M 204 259 L 204 255" stroke-linejoin="bevel" stroke-miterlimit="10"/><path fill="none" stroke="black" paint-order="fill stroke markers" d=" M 214 259 L 214 255" stroke-linejoin="bevel" stroke-miterlimit="10"/><path fill="none" stroke="black" paint-order="fill stroke markers" d=" M 223 259 L 223 255" stroke-linejoin="bevel" stroke-miterlimit="10"/><path fill="none" stroke="black" paint-order="fill stroke markers" d=" M 232 259 L 232 255" stroke-linejoin="bevel" stroke-miterlimit="10"/><path fill="none" stroke="black" paint-order="fill stroke markers" d=" M 241 259 L 241 255" stroke-linejoin="bevel" stroke-miterlimit="10"/><path fill="none" stroke="black" paint-order="fill stroke markers" d=" M 250 259 L 250 255" stroke-linejoin="bevel" stroke-miterlimit="10"/><path fill="none" stroke="black" paint-order="fill stroke markers" d=" M 260 259 L 260 255" stroke-linejoin="bevel" stroke-miterlimit="10"/><path fill="none" stroke="black" paint-order="fill stroke markers" d=" M 269 259 L 269 255" stroke-linejoin="bevel" stroke-miterlimit="10"/><path fill="none" stroke="black" paint-order="fill stroke markers" d=" M 278 259 L 278 255" stroke-linejoin="bevel" stroke-miterlimit="10"/><path fill="none" stroke="black" paint-order="fill stroke markers" d=" M 287 259 L 287 255" stroke-linejoin="bevel" stroke-miterlimit="10"/><path fill="none" stroke="black" paint-order="fill stroke markers" d=" M 296 259 L 296 255" stroke-linejoin="bevel" stroke-miterlimit="10"/><path fill="none" stroke="black" paint-order="fill stroke markers" d=" M 306 259 L 306 255" stroke-linejoin="bevel" stroke-miterlimit="10"/><path fill="none" stroke="black" paint-order="fill stroke markers" d=" M 315 259 L 315 255" stroke-linejoin="bevel" stroke-miterlimit="10"/><path fill="none" stroke="black" paint-order="fill stroke markers" d=" M 324 259 L 324 255" stroke-linejoin="bevel" stroke-miterlimit="10"/><path fill="none" stroke="black" paint-order="fill stroke markers" d=" M 333 259 L 333 255" stroke-linejoin="bevel" stroke-miterlimit="10"/><path fill="none" stroke="black" paint-order="fill stroke markers" d=" M 342 259 L 342 255" stroke-linejoin="bevel" stroke-miterlimit="10"/><path fill="none" stroke="black" paint-order="fill stroke markers" d=" M 352 259 L 352 255" stroke-linejoin="bevel" stroke-miterlimit="10"/><path fill="none" stroke="black" paint-order="fill stroke markers" d=" M 361 259 L 361 255" stroke-linejoin="bevel" stroke-miterlimit="10"/><path fill="" stroke="black" paint-order="fill stroke markers" d=" M 370 259 L 370 255" stroke-linejoin="bevel" stroke-miterlimit="10"/><g transform="translate(48,266) rotate(0,0,0)"><text fill="" stroke="none" font-family="helvetica" font-size="8pt" font-style="normal" font-weight="normal" text-decoration="normal" x="0" y="0" text-anchor="middle" dominant-baseline="hanging">75</text><g transform="rotate(0,0,0) translate(-48,-266) translate(94,266) rotate(0,0,0)"><text fill="" stroke="none" font-family="helvetica" font-size="8pt" font-style="normal" font-weight="normal" text-decoration="normal" x="0" y="0" text-anchor="middle" dominant-baseline="hanging">80</text><g transform="rotate(0,0,0) translate(-94,-266) translate(140,266) rotate(0,0,0)"><text fill="" stroke="none" font-family="helvetica" font-size="8pt" font-style="normal" font-weight="normal" text-decoration="normal" x="0" y="0" text-anchor="middle" dominant-baseline="hanging">85</text><g transform="rotate(0,0,0) translate(-140,-266) translate(186,266) rotate(0,0,0)"><text fill="" stroke="none" font-family="helvetica" font-size="8pt" font-style="normal" font-weight="normal" text-decoration="normal" x="0" y="0" text-anchor="middle" dominant-baseline="hanging">90</text><g transform="rotate(0,0,0) translate(-186,-266) translate(232,266) rotate(0,0,0)"><text fill="" stroke="none" font-family="helvetica" font-size="8pt" font-style="normal" font-weight="normal" text-decoration="normal" x="0" y="0" text-anchor="middle" dominant-baseline="hanging">95</text><g transform="rotate(0,0,0) translate(-232,-266) translate(278,266) rotate(0,0,0)"><text fill="" stroke="none" font-family="helvetica" font-size="8pt" font-style="normal" font-weight="normal" text-decoration="normal" x="0" y="0" text-anchor="middle" dominant-baseline="hanging">100</text><g transform="rotate(0,0,0) translate(-278,-266) translate(324,266) rotate(0,0,0)"><text fill="" stroke="none" font-family="helvetica" font-size="8pt" font-style="normal" font-weight="normal" text-decoration="normal" x="0" y="0" text-anchor="middle" dominant-baseline="hanging">105</text><g transform="rotate(0,0,0) translate(-324,-266) translate(370,266) rotate(0,0,0)"><text fill="" stroke="none" font-family="helvetica" font-size="8pt" font-style="normal" font-weight="normal" text-decoration="normal" x="0" y="0" text-anchor="middle" dominant-baseline="hanging">110</text><g transform="rotate(0,0,0) translate(-370,-266) translate(209,284) rotate(0,0,0)"><text fill="" stroke="none" font-family="helvetica" font-size="10pt" font-style="italic" font-weight="normal" text-decoration="normal" x="0" y="0" text-anchor="middle" dominant-baseline="hanging">times</text><g transform="rotate(0,0,0) translate(-209,-284)"/></g></g></g></g></g></g></g></g></g></g></g><g><g fill="black"><path fill="none" stroke="white" paint-order="fill stroke markers" d=" M 48 255 L 48 29" stroke-linejoin="bevel" stroke-miterlimit="10"/><path fill="none" stroke="black" paint-order="fill stroke markers" d=" M 42 245 L 50 245" stroke-linejoin="bevel" stroke-miterlimit="10"/><path fill="none" stroke="black" paint-order="fill stroke markers" d=" M 42 204 L 50 204" stroke-linejoin="bevel" stroke-miterlimit="10"/><path fill="none" stroke="black" paint-order="fill stroke markers" d=" M 42 163 L 50 163" stroke-linejoin="bevel" stroke-miterlimit="10"/><path fill="none" stroke="black" paint-order="fill stroke markers" d=" M 42 121 L 50 121" stroke-linejoin="bevel" stroke-miterlimit="10"/><path fill="none" stroke="black" paint-order="fill stroke markers" d=" M 42 80 L 50 80" stroke-linejoin="bevel" stroke-miterlimit="10"/><path fill="none" stroke="black" paint-order="fill stroke markers" d=" M 42 39 L 50 39" stroke-linejoin="bevel" stroke-miterlimit="10"/><path fill="none" stroke="black" paint-order="fill stroke markers" d=" M 44 253 L 48 253" stroke-linejoin="bevel" stroke-miterlimit="10"/><path fill="none" stroke="black" paint-order="fill stroke markers" d=" M 44 245 L 48 245" stroke-linejoin="bevel" stroke-miterlimit="10"/><path fill="none" stroke="black" paint-order="fill stroke markers" d=" M 44 237 L 48 237" stroke-linejoin="bevel" stroke-miterlimit="10"/><path fill="none" stroke="black" paint-order="fill stroke markers" d=" M 44 228 L 48 228" stroke-linejoin="bevel" stroke-miterlimit="10"/><path fill="none" stroke="black" paint-order="fill stroke markers" d=" M 44 220 L 48 220" stroke-linejoin="bevel" stroke-miterlimit="10"/><path fill="none" stroke="black" paint-order="fill stroke markers" d=" M 44 212 L 48 212" stroke-linejoin="bevel" stroke-miterlimit="10"/><path fill="none" stroke="black" paint-order="fill stroke markers" d=" M 44 204 L 48 204" stroke-linejoin="bevel" stroke-miterlimit="10"/><path fill="none" stroke="black" paint-order="fill stroke markers" d=" M 44 195 L 48 195" stroke-linejoin="bevel" stroke-miterlimit="10"/><path fill="none" stroke="black" paint-order="fill stroke markers" d=" M 44 187 L 48 187" stroke-linejoin="bevel" stroke-miterlimit="10"/><path fill="none" stroke="black" paint-order="fill stroke markers" d=" M 44 179 L 48 179" stroke-linejoin="bevel" stroke-miterlimit="10"/><path fill="none" stroke="black" paint-order="fill stroke markers" d=" M 44 171 L 48 171" stroke-linejoin="bevel" stroke-miterlimit="10"/><path fill="none" stroke="black" paint-order="fill stroke markers" d=" M 44 163 L 48 163" stroke-linejoin="bevel" stroke-miterlimit="10"/><path fill="none" stroke="black" paint-order="fill stroke markers" d=" M 44 154 L 48 154" stroke-linejoin="bevel" stroke-miterlimit="10"/><path fill="none" stroke="black" paint-order="fill stroke markers" d=" M 44 146 L 48 146" stroke-linejoin="bevel" stroke-miterlimit="10"/><path fill="none" stroke="black" paint-order="fill stroke markers" d=" M 44 138 L 48 138" stroke-linejoin="bevel" stroke-miterlimit="10"/><path fill="none" stroke="black" paint-order="fill stroke markers" d=" M 44 130 L 48 130" stroke-linejoin="bevel" stroke-miterlimit="10"/><path fill="none" stroke="black" paint-order="fill stroke markers" d=" M 44 121 L 48 121" stroke-linejoin="bevel" stroke-miterlimit="10"/><path fill="none" stroke="black" paint-order="fill stroke markers" d=" M 44 113 L 48 113" stroke-linejoin="bevel" stroke-miterlimit="10"/><path fill="none" stroke="black" paint-order="fill stroke markers" d=" M 44 105 L 48 105" stroke-linejoin="bevel" stroke-miterlimit="10"/><path fill="none" stroke="black" paint-order="fill stroke markers" d=" M 44 97 L 48 97" stroke-linejoin="bevel" stroke-miterlimit="10"/><path fill="none" stroke="black" paint-order="fill stroke markers" d=" M 44 89 L 48 89" stroke-linejoin="bevel" stroke-miterlimit="10"/><path fill="none" stroke="black" paint-order="fill stroke markers" d=" M 44 80 L 48 80" stroke-linejoin="bevel" stroke-miterlimit="10"/><path fill="none" stroke="black" paint-order="fill stroke markers" d=" M 44 72 L 48 72" stroke-linejoin="bevel" stroke-miterlimit="10"/><path fill="none" stroke="black" paint-order="fill stroke markers" d=" M 44 64 L 48 64" stroke-linejoin="bevel" stroke-miterlimit="10"/><path fill="none" stroke="black" paint-order="fill stroke markers" d=" M 44 56 L 48 56" stroke-linejoin="bevel" stroke-miterlimit="10"/><path fill="none" stroke="black" paint-order="fill stroke markers" d=" M 44 47 L 48 47" stroke-linejoin="bevel" stroke-miterlimit="10"/><path fill="none" stroke="black" paint-order="fill stroke markers" d=" M 44 39 L 48 39" stroke-linejoin="bevel" stroke-miterlimit="10"/><path fill="" stroke="black" paint-order="fill stroke markers" d=" M 44 31 L 48 31" stroke-linejoin="bevel" stroke-miterlimit="10"/><g transform="translate(37,245) rotate(0,0,0)"><text fill="" stroke="none" font-family="helvetica" font-size="8pt" font-style="normal" font-weight="normal" text-decoration="normal" x="0" y="0" text-anchor="end" dominant-baseline="central">0</text><g transform="rotate(0,0,0) translate(-37,-245) translate(37,204) rotate(0,0,0)"><text fill="" stroke="none" font-family="helvetica" font-size="8pt" font-style="normal" font-weight="normal" text-decoration="normal" x="0" y="0" text-anchor="end" dominant-baseline="central">0.2</text><g transform="rotate(0,0,0) translate(-37,-204) translate(37,163) rotate(0,0,0)"><text fill="" stroke="none" font-family="helvetica" font-size="8pt" font-style="normal" font-weight="normal" text-decoration="normal" x="0" y="0" text-anchor="end" dominant-baseline="central">0.4</text><g transform="rotate(0,0,0) translate(-37,-163) translate(37,121) rotate(0,0,0)"><text fill="" stroke="none" font-family="helvetica" font-size="8pt" font-style="normal" font-weight="normal" text-decoration="normal" x="0" y="0" text-anchor="end" dominant-baseline="central">0.6</text><g transform="rotate(0,0,0) translate(-37,-121) translate(37,80) rotate(0,0,0)"><text fill="" stroke="none" font-family="helvetica" font-size="8pt" font-style="normal" font-weight="normal" text-decoration="normal" x="0" y="0" text-anchor="end" dominant-baseline="central">0.8</text><g transform="rotate(0,0,0) translate(-37,-80) translate(37,39) rotate(0,0,0)"><text fill="" stroke="none" font-family="helvetica" font-size="8pt" font-style="normal" font-weight="normal" text-decoration="normal" x="0" y="0" text-anchor="end" dominant-baseline="central">1</text><g transform="rotate(0,0,0) translate(-37,-39) translate(16,142) rotate(-90,0,0)"><text fill="" stroke="none" font-family="helvetica" font-size="10pt" font-style="italic" font-weight="normal" text-decoration="normal" x="0" y="0" text-anchor="middle" dominant-baseline="alphabetic">ECDF</text><g transform="rotate(90,0,0) translate(-16,-142)"/></g></g></g></g></g></g></g></g></g><g clip-path="url(#AKTNkJcAwWtK)"><g/></g></g><g/><g/><g/><g/><g/><g/><g/><g/><g/><g/><g/><g/><g/><g/><g/><g/><g/><g/><g/><g/><g/><g/><g/><g/><g/><g/><g/><g/><g/><g/><g/><g/><g/><g/><g/><g/><g/><g/><g/><g/><g/><g/><g/><g/><g/><g/><g/><g/><g/><g/><g/><g/><g/><g/><g/><g/><g/><g/><g/><g/><g/><g/><g/><g/><g/><g/><g/><g/><g/><g/><g/><g/><g/><g/><g/><g/><g/><g/><g/><g/><g/><g/><g/><g/><g/><g/><g/><g/><g/><g/><g/><g/><g/><g/><g/></g></svg>